<svg width="81" height="36" viewBox="0 0 81 36" fill="none" xmlns="http://www.w3.org/2000/svg">
<path d="M38.9688 7.43884H40.8659V16.6872H38.9688V7.43884Z" fill="#06061A"/>
<path d="M44.9562 16.7664C44.643 16.6872 44.355 16.572 44.0922 16.4208C43.833 16.2696 43.599 16.086 43.3938 15.8736C43.1886 15.6576 43.0158 15.4164 42.8754 15.15C42.735 14.88 42.627 14.5884 42.555 14.2716C42.4794 13.9548 42.4434 13.6164 42.4434 13.2564V13.242C42.4434 12.7092 42.5262 12.2196 42.6882 11.7768C42.8538 11.334 43.0878 10.9524 43.3938 10.632C43.6998 10.3116 44.0706 10.0632 44.5062 9.88676C44.9418 9.71036 45.4278 9.62036 45.9642 9.62036C46.4466 9.62036 46.8786 9.68516 47.271 9.81116C47.6598 9.93716 47.9982 10.1136 48.2826 10.3404C48.567 10.5672 48.801 10.8336 48.9846 11.1468C49.1682 11.46 49.2978 11.8056 49.3734 12.18H47.5482C47.5014 11.982 47.4294 11.8128 47.3394 11.6652C47.2458 11.5176 47.1378 11.3988 47.0046 11.3016C46.875 11.2044 46.7238 11.1324 46.551 11.0856C46.3818 11.0388 46.1982 11.0136 46.0002 11.0136C45.7518 11.0136 45.525 11.064 45.3234 11.1648C45.1218 11.2656 44.949 11.4096 44.8014 11.6004C44.6538 11.7912 44.5422 12.0252 44.463 12.3024C44.3838 12.5796 44.3442 12.8928 44.3442 13.242V13.2564C44.3442 13.494 44.3622 13.7136 44.3982 13.9152C44.4342 14.1168 44.4882 14.304 44.5566 14.4696C44.625 14.6352 44.7078 14.7828 44.8014 14.9088C44.8986 15.0348 45.0066 15.1428 45.129 15.2292C45.2514 15.3156 45.3846 15.384 45.5286 15.4272C45.6726 15.4704 45.8274 15.492 45.993 15.492C46.191 15.492 46.3746 15.4668 46.5438 15.42C46.713 15.3732 46.8642 15.2976 46.9974 15.2004C47.127 15.1032 47.2386 14.9808 47.3322 14.8332C47.4258 14.6856 47.4942 14.5164 47.541 14.3256H49.3662C49.2906 14.6964 49.1646 15.042 48.9774 15.3552C48.7902 15.6684 48.5598 15.942 48.2754 16.1688C47.991 16.3956 47.6562 16.572 47.2638 16.698C46.875 16.824 46.4394 16.8852 45.957 16.8852C45.6078 16.8852 45.2694 16.8456 44.9562 16.7664Z" fill="#06061A"/>
<path d="M51.8178 16.7412C51.5046 16.644 51.231 16.5072 51.0006 16.3236C50.7702 16.1436 50.5938 15.924 50.4642 15.6648C50.3382 15.4056 50.2734 15.1176 50.2734 14.7936V14.7864C50.2734 14.538 50.3058 14.3148 50.3706 14.1132C50.4354 13.9152 50.5326 13.7388 50.6622 13.5804C50.7918 13.4256 50.9502 13.2888 51.1446 13.17C51.3354 13.0512 51.5586 12.9468 51.8142 12.8568C52.0662 12.7668 52.3506 12.6912 52.6602 12.6228C52.9698 12.558 53.3082 12.5004 53.6754 12.4536C53.9526 12.4176 54.1722 12.3816 54.3342 12.3456C54.4998 12.3096 54.6258 12.2628 54.7158 12.2088C54.8058 12.1548 54.8634 12.09 54.8922 12.0144C54.921 11.9388 54.9354 11.8452 54.9354 11.7336V11.7228C54.9354 11.568 54.9066 11.4384 54.849 11.3304C54.7914 11.2224 54.7086 11.1288 54.6006 11.0568C54.4926 10.9848 54.3594 10.9308 54.2118 10.8948C54.0606 10.8588 53.8914 10.8408 53.7042 10.8408C53.499 10.8408 53.3118 10.8624 53.1426 10.9056C52.9734 10.9488 52.8294 11.0172 52.7106 11.1072C52.5918 11.2008 52.4946 11.316 52.4298 11.4564C52.3614 11.5968 52.3254 11.7624 52.3146 11.9532H50.5794C50.5866 11.5644 50.673 11.2224 50.8314 10.9308C50.9898 10.6392 51.2094 10.3944 51.483 10.1964C51.7566 9.99836 52.0878 9.85076 52.4694 9.74996C52.851 9.64916 53.2686 9.59875 53.7186 9.59875C54.183 9.59875 54.597 9.63836 54.9678 9.71396C55.3386 9.78956 55.6482 9.91915 55.9074 10.1028C56.163 10.2864 56.3574 10.5312 56.4942 10.8372C56.631 11.1432 56.6958 11.5248 56.6958 11.9856L56.6778 14.5236C56.6778 14.754 56.6814 14.97 56.6886 15.168C56.6958 15.366 56.7066 15.5496 56.721 15.726C56.7354 15.9024 56.757 16.068 56.7858 16.2228C56.8146 16.3812 56.847 16.5324 56.8866 16.6836H55.101C55.0938 16.6296 55.083 16.5792 55.0794 16.5324C55.0722 16.4856 55.065 16.4352 55.0614 16.3884C55.0542 16.3416 55.0506 16.2876 55.0434 16.2336C55.0398 16.1796 55.0362 16.1184 55.0362 16.0536C54.921 16.1832 54.795 16.302 54.6474 16.4028C54.5034 16.5072 54.3414 16.5936 54.1614 16.662C53.9814 16.7304 53.7834 16.7844 53.5638 16.824C53.3442 16.86 53.103 16.878 52.8438 16.878C52.4766 16.8852 52.1346 16.8348 51.8178 16.7412ZM53.8014 15.582C53.9382 15.5568 54.0606 15.5244 54.1758 15.4776C54.291 15.4308 54.3918 15.3732 54.4854 15.3048C54.579 15.2364 54.6546 15.15 54.7194 15.0564C54.7842 14.9592 54.8346 14.8512 54.8706 14.7324C54.9066 14.6136 54.9246 14.4804 54.9246 14.3364V13.2204C54.8058 13.2636 54.6942 13.3032 54.5898 13.3356C54.4854 13.368 54.3846 13.4004 54.2838 13.4292C54.1866 13.458 54.0894 13.4832 53.9994 13.5084C53.9058 13.5336 53.8194 13.5552 53.7366 13.5768C53.5386 13.6308 53.3658 13.6776 53.211 13.7244C53.0562 13.7712 52.923 13.818 52.8078 13.8648C52.6926 13.9116 52.5918 13.9656 52.5126 14.0196C52.4334 14.0736 52.365 14.1348 52.3146 14.1996C52.2642 14.2644 52.2282 14.3364 52.203 14.4156C52.1778 14.4948 52.167 14.5848 52.167 14.6856V14.6928C52.167 14.8404 52.1958 14.9736 52.2534 15.0888C52.311 15.204 52.3902 15.3012 52.4946 15.3804C52.599 15.4596 52.725 15.5208 52.8762 15.5604C53.0274 15.6036 53.1966 15.6216 53.3838 15.6216C53.5242 15.618 53.6646 15.6072 53.8014 15.582Z" fill="#06061A"/>
<path d="M60.3844 16.7808C60.118 16.7124 59.8732 16.6044 59.6392 16.4676C59.4088 16.3272 59.1964 16.1544 59.0056 15.9528C58.8148 15.7512 58.6528 15.5136 58.5124 15.2436C58.3756 14.9736 58.2676 14.6748 58.1956 14.3472C58.12 14.0196 58.084 13.6632 58.084 13.278V13.2636C58.084 12.6876 58.1668 12.1728 58.3324 11.7264C58.498 11.2764 58.7212 10.902 59.0056 10.596C59.2864 10.29 59.6176 10.056 59.9992 9.89764C60.3808 9.73924 60.7804 9.65644 61.2052 9.65644C61.45 9.65644 61.6804 9.68164 61.8928 9.73204C62.1088 9.78244 62.3032 9.85444 62.4832 9.94444C62.6632 10.038 62.8216 10.146 62.9656 10.272C63.106 10.398 63.2248 10.5384 63.3148 10.686V7.43884H65.1436V16.6872H63.3148V15.8556C63.2212 16.0032 63.106 16.1436 62.9656 16.2696C62.8252 16.3956 62.6632 16.5072 62.4832 16.5972C62.3032 16.6908 62.1088 16.7592 61.8928 16.8096C61.6768 16.86 61.45 16.8852 61.2052 16.8852C60.9244 16.8852 60.6508 16.8492 60.3844 16.7808ZM62.17 15.4344C62.3176 15.3912 62.4508 15.3264 62.5768 15.2436C62.7028 15.1608 62.8144 15.0564 62.9152 14.9304C63.016 14.8044 63.0988 14.6604 63.1672 14.4984C63.2356 14.3328 63.286 14.1492 63.3256 13.9476C63.3616 13.746 63.3796 13.5192 63.3796 13.2744V13.26C63.3796 13.0152 63.3616 12.792 63.3256 12.5868C63.2896 12.3852 63.2356 12.198 63.1672 12.036C63.0988 11.8704 63.016 11.7264 62.9152 11.604C62.8144 11.478 62.7028 11.3772 62.5768 11.2908C62.4508 11.208 62.3176 11.1432 62.17 11.1C62.0224 11.0568 61.864 11.0352 61.6948 11.0352C61.5256 11.0352 61.3672 11.0568 61.2196 11.1C61.072 11.1432 60.9388 11.208 60.8128 11.2908C60.6868 11.3736 60.5752 11.478 60.4744 11.604C60.3736 11.73 60.2908 11.874 60.2224 12.036C60.154 12.2016 60.1036 12.3852 60.064 12.5868C60.028 12.7884 60.01 13.0152 60.01 13.26V13.2744C60.01 13.5192 60.028 13.7424 60.064 13.9476C60.1 14.1492 60.154 14.3364 60.2224 14.4984C60.2908 14.664 60.3736 14.808 60.4744 14.9304C60.5752 15.0564 60.6868 15.1572 60.8128 15.2436C60.9388 15.3264 61.072 15.3912 61.2196 15.4344C61.3672 15.4776 61.5256 15.4992 61.6948 15.4992C61.864 15.4992 62.0224 15.4776 62.17 15.4344Z" fill="#06061A"/>
<path d="M39.0918 19.2108H40.4814V27.246H44.9994V28.4592H39.0918V19.2108Z" fill="#3E3EFF"/>
<path d="M47.2653 28.503C46.9557 28.4094 46.6893 28.2726 46.4661 28.0962C46.2393 27.9198 46.0665 27.7038 45.9369 27.4482C45.8109 27.1926 45.7461 26.9046 45.7461 26.5842V26.5698C45.7461 26.3286 45.7785 26.1126 45.8397 25.9182C45.9045 25.7238 45.9981 25.551 46.1205 25.3962C46.2465 25.2414 46.4013 25.1082 46.5885 24.993C46.7757 24.8778 46.9953 24.7734 47.2437 24.6834C47.4921 24.5934 47.7729 24.5178 48.0825 24.4494C48.3921 24.3846 48.7341 24.327 49.1049 24.2802C49.3893 24.2406 49.6125 24.201 49.7817 24.1614C49.9473 24.1218 50.0769 24.0714 50.1669 24.0138C50.2569 23.9562 50.3145 23.8842 50.3397 23.8014C50.3649 23.7186 50.3793 23.6142 50.3793 23.4882V23.4738C50.3793 23.3046 50.3469 23.157 50.2821 23.031C50.2173 22.905 50.1237 22.8006 50.0013 22.7178C49.8789 22.6314 49.7313 22.5702 49.5549 22.527C49.3785 22.4838 49.1841 22.4658 48.9645 22.4658C48.7377 22.4658 48.5289 22.491 48.3381 22.5378C48.1473 22.5846 47.9853 22.6602 47.8449 22.7646C47.7081 22.869 47.6001 22.995 47.5209 23.1534C47.4417 23.3082 47.3985 23.4954 47.3913 23.715H46.0521C46.0521 23.3226 46.1313 22.9806 46.2897 22.6962C46.4481 22.4082 46.6605 22.1742 46.9269 21.987C47.1933 21.7998 47.5029 21.663 47.8593 21.5694C48.2121 21.4758 48.5865 21.4326 48.9753 21.4326C49.4001 21.4326 49.7817 21.4722 50.1201 21.5478C50.4585 21.6234 50.7465 21.7494 50.9805 21.9258C51.2145 22.1022 51.3945 22.3326 51.5169 22.6206C51.6429 22.9086 51.7041 23.265 51.7041 23.6826L51.6897 26.1954C51.6897 26.4438 51.6933 26.6706 51.6969 26.8758C51.7005 27.081 51.7113 27.2754 51.7257 27.4554C51.7401 27.6354 51.7617 27.8082 51.7905 27.9738C51.8193 28.1394 51.8517 28.3014 51.8913 28.4634H50.5593C50.5521 28.4058 50.5413 28.3518 50.5341 28.3014C50.5269 28.251 50.5161 28.2006 50.5089 28.1466C50.5017 28.0926 50.4945 28.0386 50.4909 27.981C50.4873 27.9234 50.4837 27.8622 50.4765 27.7902C50.3685 27.9126 50.2425 28.0278 50.1057 28.1322C49.9689 28.2366 49.8105 28.3266 49.6341 28.4022C49.4577 28.4778 49.2561 28.5354 49.0293 28.5786C48.8025 28.6218 48.5505 28.6434 48.2661 28.6434C47.9061 28.6434 47.5749 28.5966 47.2653 28.503ZM49.0761 27.549C49.2345 27.5202 49.3821 27.4806 49.5153 27.423C49.6485 27.369 49.7709 27.3006 49.8789 27.2214C49.9869 27.1422 50.0805 27.045 50.1561 26.937C50.2317 26.829 50.2893 26.7066 50.3289 26.5698C50.3721 26.433 50.3901 26.2854 50.3901 26.1234V24.885C50.2605 24.9282 50.1345 24.9678 50.0121 25.0074C49.8933 25.0434 49.7781 25.0794 49.6665 25.1082C49.5585 25.1406 49.4505 25.1658 49.3497 25.1946C49.2453 25.2198 49.1445 25.2486 49.0437 25.2738C48.8025 25.3314 48.5901 25.3854 48.4029 25.4394C48.2157 25.4934 48.0537 25.5474 47.9133 25.605C47.7729 25.659 47.6541 25.7166 47.5605 25.7742C47.4633 25.8318 47.3877 25.9002 47.3265 25.9758C47.2689 26.0514 47.2257 26.1306 47.1969 26.217C47.1717 26.3034 47.1573 26.4042 47.1573 26.5194V26.5266C47.1573 26.6958 47.1897 26.8506 47.2509 26.9838C47.3157 27.117 47.4057 27.2286 47.5281 27.3222C47.6469 27.4158 47.7945 27.4842 47.9709 27.5274C48.1473 27.5742 48.3453 27.5958 48.5685 27.5958C48.7485 27.5922 48.9177 27.5778 49.0761 27.549Z" fill="#3E3EFF"/>
<path d="M53.7422 21.623H55.0814V22.4438C55.1966 22.289 55.319 22.1522 55.4558 22.0298C55.5926 21.9074 55.7438 21.803 55.913 21.7166C56.0822 21.6302 56.2694 21.5618 56.4746 21.515C56.6798 21.4682 56.9102 21.443 57.1622 21.443C57.5762 21.443 57.9398 21.5114 58.2494 21.6446C58.559 21.7814 58.8182 21.9758 59.027 22.2278C59.2358 22.4798 59.3906 22.7894 59.495 23.153C59.5994 23.5166 59.6534 23.9234 59.6534 24.3806V28.4594H58.3142V24.6614C58.3142 24.323 58.2818 24.0278 58.217 23.765C58.1522 23.5058 58.0514 23.2862 57.9146 23.1098C57.7778 22.9334 57.6086 22.8002 57.407 22.7102C57.2054 22.6202 56.9678 22.577 56.6942 22.577C56.4242 22.577 56.1866 22.6202 55.9814 22.7102C55.7798 22.8002 55.6106 22.9334 55.4774 23.1098C55.3442 23.2862 55.2434 23.5058 55.1786 23.765C55.1138 24.0242 55.0814 24.323 55.0814 24.6614V28.4594H53.7422V21.623Z" fill="#3E3EFF"/>
<path d="M63.6201 28.521C63.3177 28.4418 63.0441 28.3266 62.7921 28.1754C62.5437 28.0278 62.3169 27.8442 62.1189 27.6318C61.9209 27.4158 61.7517 27.1782 61.6185 26.9118C61.4817 26.6454 61.3773 26.3538 61.3053 26.0406C61.2333 25.7274 61.1973 25.3926 61.1973 25.0434V25.029C61.1973 24.5034 61.2765 24.021 61.4385 23.5782C61.5969 23.1354 61.8273 22.7574 62.1189 22.4406C62.4141 22.1238 62.7705 21.8754 63.1881 21.699C63.6057 21.5226 64.0737 21.4326 64.5885 21.4326C65.0313 21.4326 65.4345 21.4902 65.7981 21.609C66.1617 21.7278 66.4821 21.8934 66.7557 22.1058C67.0293 22.3182 67.2561 22.5738 67.4361 22.869C67.6161 23.1678 67.7457 23.4954 67.8213 23.8518H66.4569C66.3993 23.643 66.3165 23.4558 66.2049 23.2902C66.0933 23.1246 65.9565 22.9878 65.7981 22.8762C65.6397 22.7646 65.4597 22.6818 65.2581 22.6242C65.0565 22.5666 64.8369 22.5378 64.6029 22.5378C64.3149 22.5378 64.0485 22.5918 63.8073 22.7034C63.5661 22.815 63.3537 22.977 63.1773 23.1894C63.0009 23.4018 62.8641 23.661 62.7633 23.9706C62.6661 24.2802 62.6157 24.6294 62.6157 25.0218V25.0362C62.6157 25.299 62.6373 25.5438 62.6841 25.767C62.7309 25.9938 62.7957 26.199 62.8785 26.3826C62.9613 26.5698 63.0621 26.7318 63.1809 26.8758C63.2997 27.0162 63.4329 27.1386 63.5769 27.2322C63.7245 27.3294 63.8829 27.4014 64.0557 27.4518C64.2285 27.5022 64.4121 27.5274 64.6029 27.5274C64.8405 27.5274 65.0565 27.4986 65.2581 27.4374C65.4597 27.3798 65.6397 27.2934 65.7981 27.1818C65.9565 27.0702 66.0933 26.9334 66.2049 26.7678C66.3165 26.6022 66.3993 26.4186 66.4569 26.2062H67.8213C67.7457 26.5662 67.6197 26.8938 67.4361 27.189C67.2561 27.4878 67.0257 27.7434 66.7557 27.9558C66.4821 28.1718 66.1617 28.3374 65.7981 28.4526C65.4345 28.5714 65.0313 28.629 64.5885 28.629C64.2465 28.6434 63.9225 28.6002 63.6201 28.521Z" fill="#3E3EFF"/>
<path d="M71.3286 28.5171C71.0154 28.4343 70.7274 28.3155 70.4718 28.1607C70.2162 28.0059 69.9894 27.8187 69.7914 27.6027C69.5934 27.3867 69.4242 27.1419 69.291 26.8755C69.1542 26.6055 69.0534 26.3175 68.9814 26.0043C68.913 25.6911 68.877 25.3635 68.877 25.0179V25.0035C68.877 24.4671 68.9634 23.9775 69.1362 23.5419C69.309 23.1063 69.5466 22.7283 69.8562 22.4187C70.1622 22.1055 70.5258 21.8643 70.9434 21.6951C71.3646 21.5259 71.8182 21.4395 72.3078 21.4395C72.6714 21.4395 73.0098 21.4827 73.323 21.5727C73.6362 21.6627 73.917 21.7923 74.1726 21.9615C74.4246 22.1307 74.6514 22.3323 74.8458 22.5699C75.0402 22.8075 75.2022 23.0703 75.3318 23.3655C75.4614 23.6607 75.555 23.9811 75.6126 24.3303C75.6702 24.6795 75.6954 25.0431 75.681 25.4283V25.4355H69.849L69.8346 24.3519H74.2626V24.3447C74.2482 24.1683 74.2194 24.0027 74.1726 23.8407C74.1258 23.6787 74.0646 23.5311 73.9818 23.3943C73.9026 23.2575 73.8054 23.1351 73.6938 23.0271C73.5822 22.9191 73.4562 22.8255 73.3122 22.7463C73.1718 22.6671 73.0134 22.6059 72.8478 22.5663C72.6786 22.5231 72.4986 22.5051 72.3006 22.5051C71.9946 22.5051 71.7174 22.5555 71.4654 22.6563C71.2134 22.7571 71.001 22.9119 70.821 23.1171C70.6446 23.3259 70.5078 23.5851 70.4142 23.8983C70.3206 24.2115 70.2738 24.5823 70.281 25.0107V25.0251C70.281 25.2735 70.3026 25.5111 70.3422 25.7343C70.3854 25.9575 70.4466 26.1627 70.5294 26.3463C70.6122 26.5335 70.713 26.6991 70.8354 26.8467C70.9542 26.9943 71.0946 27.1239 71.253 27.2283C71.4114 27.3327 71.5842 27.4119 71.775 27.4695C71.9658 27.5235 72.171 27.5523 72.387 27.5523C72.639 27.5523 72.8658 27.5307 73.0674 27.4839C73.2654 27.4371 73.4418 27.3687 73.5894 27.2823C73.737 27.1923 73.863 27.0843 73.9674 26.9547C74.0718 26.8251 74.1546 26.6811 74.2194 26.5191H75.5838C75.4902 26.8287 75.357 27.1167 75.1734 27.3795C74.9934 27.6423 74.7666 27.8691 74.493 28.0599C74.223 28.2507 73.9098 28.3983 73.5534 28.5027C73.197 28.6071 72.7974 28.6611 72.351 28.6611C71.9838 28.6431 71.6454 28.5999 71.3286 28.5171Z" fill="#3E3EFF"/>
<path d="M77.3145 21.6227H78.6537V22.8359C78.7545 22.6379 78.8733 22.4615 79.0137 22.2995C79.1541 22.1411 79.3161 22.0043 79.4997 21.8927C79.6833 21.7811 79.8885 21.6947 80.1153 21.6371C80.3421 21.5795 80.5905 21.5471 80.8569 21.5471H80.9829V22.8539H80.6229C80.3133 22.8539 80.0361 22.8899 79.7949 22.9655C79.5537 23.0411 79.3449 23.1563 79.1793 23.3183C79.0101 23.4803 78.8805 23.6891 78.7905 23.9483C78.7005 24.2075 78.6573 24.5207 78.6573 24.8879V28.4555H77.3181V21.6227H77.3145Z" fill="#3E3EFF"/>
<path d="M15.584 0V18L31.172 27V9L15.584 0Z" fill="#181863"/>
<path d="M7.79297 4.5V22.5L23.381 31.5V13.5L7.79297 4.5Z" fill="#3E3EFF"/>
<path d="M0 9V27L15.588 36V18L0 9Z" fill="#9999FF"/>
</svg>
