<svg width="224" height="50" viewBox="0 0 224 50" fill="none" xmlns="http://www.w3.org/2000/svg">
<path d="M62.4453 8.03223H65.488V22.8648H62.4453V8.03223Z" fill="#06061A"/>
<path d="M72.0437 22.992C71.5414 22.865 71.0795 22.6802 70.658 22.4377C70.2423 22.1952 69.867 21.9008 69.5379 21.5601C69.2088 21.2137 68.9317 20.8269 68.7065 20.3996C68.4813 19.9666 68.3081 19.4989 68.1927 18.9908C68.0714 18.4827 68.0137 17.94 68.0137 17.3627V17.3396C68.0137 16.4851 68.1465 15.6998 68.4063 14.9897C68.6719 14.2795 69.0472 13.6675 69.5379 13.1537C70.0287 12.6398 70.6234 12.2414 71.322 11.9585C72.0206 11.6756 72.8 11.5312 73.6603 11.5312C74.434 11.5312 75.1268 11.6352 75.7562 11.8373C76.3797 12.0393 76.9224 12.3222 77.3786 12.686C77.8347 13.0497 78.21 13.477 78.5044 13.9793C78.7989 14.4816 79.0067 15.0359 79.128 15.6363H76.2007C76.1257 15.3188 76.0102 15.0474 75.8659 14.8107C75.7158 14.574 75.5425 14.3834 75.3289 14.2276C75.1211 14.0717 74.8786 13.9562 74.6014 13.8811C74.3301 13.8061 74.0356 13.7657 73.7181 13.7657C73.3197 13.7657 72.9559 13.8465 72.6326 14.0082C72.3093 14.1698 72.0321 14.4008 71.7954 14.7068C71.5587 15.0128 71.3797 15.3881 71.2527 15.8326C71.1257 16.2772 71.0622 16.7795 71.0622 17.3396V17.3627C71.0622 17.7437 71.091 18.0959 71.1488 18.4192C71.2065 18.7426 71.2931 19.0428 71.4028 19.3084C71.5125 19.574 71.6453 19.8107 71.7954 20.0128C71.9513 20.2149 72.1245 20.3881 72.3208 20.5266C72.5171 20.6652 72.7308 20.7749 72.9617 20.8442C73.1927 20.9135 73.4409 20.9481 73.7065 20.9481C74.0241 20.9481 74.3185 20.9077 74.5899 20.8326C74.8612 20.7576 75.1037 20.6363 75.3174 20.4804C75.5252 20.3245 75.7042 20.1282 75.8543 19.8915C76.0044 19.6548 76.1141 19.3834 76.1892 19.0774H79.1164C78.9952 19.6721 78.7931 20.2264 78.4929 20.7287C78.1984 21.231 77.8231 21.6698 77.367 22.0336C76.9109 22.3973 76.374 22.6802 75.7446 22.8823C75.1211 23.0844 74.4224 23.1825 73.6488 23.1825C73.0887 23.1825 72.5518 23.119 72.0437 22.992Z" fill="#06061A"/>
<path d="M83.0511 22.9513C82.5488 22.7954 82.11 22.576 81.7405 22.2816C81.371 21.9929 81.0881 21.6407 80.8802 21.225C80.6781 20.8093 80.5742 20.3474 80.5742 19.8277V19.8162C80.5742 19.4178 80.6262 19.0598 80.7301 18.7365C80.834 18.419 80.9899 18.1361 81.1978 17.882C81.4056 17.6337 81.6597 17.4144 81.9714 17.2238C82.2774 17.0333 82.6354 16.8659 83.0454 16.7215C83.4495 16.5772 83.9056 16.4559 84.4022 16.3462C84.8987 16.2423 85.4414 16.1499 86.0303 16.0749C86.4749 16.0171 86.8271 15.9594 87.0869 15.9016C87.3525 15.8439 87.5546 15.7689 87.6989 15.6822C87.8433 15.5956 87.9357 15.4917 87.9818 15.3705C88.028 15.2492 88.0511 15.0991 88.0511 14.9201V14.9028C88.0511 14.6545 88.0049 14.4467 87.9126 14.2735C87.8202 14.1003 87.6874 13.9501 87.5142 13.8347C87.341 13.7192 87.1273 13.6326 86.8906 13.5749C86.6481 13.5171 86.3768 13.4883 86.0765 13.4883C85.7474 13.4883 85.4472 13.5229 85.1758 13.5922C84.9045 13.6615 84.6735 13.7712 84.483 13.9155C84.2925 14.0656 84.1366 14.2504 84.0326 14.4756C83.923 14.7007 83.8652 14.9663 83.8479 15.2723H81.065C81.0765 14.6488 81.2151 14.1003 81.4691 13.6326C81.7232 13.1649 82.0754 12.7723 82.5142 12.4548C82.9587 12.1372 83.4841 11.9005 84.0962 11.7388C84.7082 11.5772 85.3779 11.4963 86.0996 11.4963C86.8444 11.4963 87.5084 11.5598 88.1031 11.6811C88.6978 11.8023 89.2001 12.0102 89.61 12.3047C90.0199 12.5991 90.3317 12.9917 90.5511 13.4825C90.7705 13.9732 90.8745 14.5853 90.8745 15.3243L90.8456 19.3947C90.8456 19.7642 90.8514 20.1107 90.8629 20.4282C90.8744 20.7458 90.8918 21.0402 90.9149 21.3231C90.938 21.606 90.9726 21.8716 91.0188 22.1199C91.065 22.3739 91.1169 22.6164 91.1805 22.8589H88.3167C88.3052 22.7723 88.2878 22.6915 88.2821 22.6164C88.2705 22.5414 88.259 22.4605 88.2532 22.3855C88.2417 22.3104 88.2359 22.2238 88.2243 22.1372C88.2186 22.0506 88.2128 21.9525 88.2128 21.8485C88.028 22.0564 87.826 22.2469 87.5892 22.4086C87.3583 22.576 87.0985 22.7146 86.8098 22.8243C86.5211 22.934 86.2036 23.0206 85.8514 23.0841C85.4992 23.1418 85.1123 23.1707 84.6966 23.1707C84.1077 23.1822 83.5592 23.1014 83.0511 22.9513ZM86.2324 21.0922C86.4518 21.0518 86.6481 20.9998 86.8329 20.9247C87.0176 20.8497 87.1793 20.7573 87.3294 20.6476C87.4795 20.5379 87.6008 20.4051 87.7047 20.2492C87.8086 20.0933 87.8895 19.9201 87.9472 19.7296C88.0049 19.5391 88.0338 19.3254 88.0338 19.0945V17.3047C87.8433 17.3739 87.6643 17.4374 87.4969 17.4894C87.3294 17.5414 87.1678 17.5933 87.0061 17.6395C86.8502 17.6857 86.6943 17.7261 86.55 17.7665C86.3999 17.807 86.2613 17.8416 86.1285 17.8762C85.8109 17.9628 85.5338 18.0379 85.2855 18.113C85.0373 18.188 84.8236 18.2631 84.6389 18.3381C84.4541 18.4132 84.2925 18.4998 84.1654 18.5864C84.0384 18.673 83.9287 18.7712 83.8479 18.8751C83.7671 18.979 83.7093 19.0945 83.6689 19.2215C83.6285 19.3485 83.6112 19.4929 83.6112 19.6545V19.6661C83.6112 19.9028 83.6574 20.1164 83.7497 20.3012C83.8421 20.4859 83.9691 20.6418 84.1366 20.7689C84.304 20.8959 84.5061 20.994 84.7486 21.0575C84.9911 21.1268 85.2624 21.1557 85.5627 21.1557C85.7878 21.1499 86.013 21.1326 86.2324 21.0922Z" fill="#06061A"/>
<path d="M96.7851 23.0149C96.3578 22.9052 95.9652 22.732 95.5899 22.5126C95.2204 22.2874 94.8798 22.0103 94.5738 21.687C94.2678 21.3636 94.0079 20.9826 93.7828 20.5495C93.5634 20.1165 93.3902 19.6373 93.2747 19.1119C93.1534 18.5865 93.0957 18.0149 93.0957 17.3971V17.374C93.0957 16.4502 93.2285 15.6246 93.4941 14.9087C93.7597 14.187 94.1176 13.5865 94.5738 13.0957C95.0241 12.605 95.5553 12.2297 96.1673 11.9756C96.7793 11.7216 97.4202 11.5888 98.1015 11.5888C98.4941 11.5888 98.8636 11.6292 99.2042 11.7101C99.5507 11.7909 99.8624 11.9064 100.151 12.0507C100.44 12.2008 100.694 12.374 100.925 12.5761C101.15 12.7782 101.341 13.0034 101.485 13.2401V8.03223H104.418V22.8648H101.485V21.5311C101.335 21.7678 101.15 21.993 100.925 22.195C100.7 22.3971 100.44 22.5761 100.151 22.7204C99.8624 22.8706 99.5507 22.9803 99.2042 23.0611C98.8578 23.1419 98.4941 23.1823 98.1015 23.1823C97.6511 23.1823 97.2123 23.1246 96.7851 23.0149ZM99.6488 20.8555C99.8855 20.7863 100.099 20.6823 100.301 20.5495C100.503 20.4168 100.682 20.2493 100.844 20.0472C101.006 19.8452 101.138 19.6142 101.248 19.3544C101.358 19.0888 101.439 18.7943 101.502 18.471C101.56 18.1477 101.589 17.784 101.589 17.3913V17.3683C101.589 16.9756 101.56 16.6177 101.502 16.2886C101.444 15.9653 101.358 15.665 101.248 15.4052C101.138 15.1396 101.006 14.9087 100.844 14.7124C100.682 14.5103 100.503 14.3486 100.301 14.2101C100.099 14.0773 99.8855 13.9733 99.6488 13.9041C99.4121 13.8348 99.1581 13.8001 98.8867 13.8001C98.6153 13.8001 98.3613 13.8348 98.1246 13.9041C97.8878 13.9733 97.6742 14.0773 97.4721 14.2101C97.2701 14.3428 97.0911 14.5103 96.9294 14.7124C96.7678 14.9144 96.635 15.1454 96.5253 15.4052C96.4156 15.6708 96.3347 15.9653 96.2712 16.2886C96.2135 16.6119 96.1846 16.9756 96.1846 17.3683V17.3913C96.1846 17.784 96.2135 18.1419 96.2712 18.471C96.329 18.7943 96.4156 19.0946 96.5253 19.3544C96.635 19.62 96.7678 19.8509 96.9294 20.0472C97.0911 20.2493 97.2701 20.411 97.4721 20.5495C97.6742 20.6823 97.8878 20.7863 98.1246 20.8555C98.3613 20.9248 98.6153 20.9595 98.8867 20.9595C99.1581 20.9595 99.4121 20.9248 99.6488 20.8555Z" fill="#06061A"/>
<path d="M62.6523 26.9121H65.5796L72.8371 38.9791H72.8602L72.8371 35.6765V26.9121H74.9965V41.7447H72.0519L64.8117 29.6777H64.7886L64.8117 32.9802V41.7447H62.6523V26.9121Z" fill="#3E3EFF"/>
<path d="M81.7444 41.8368C81.2421 41.704 80.7802 41.5134 80.3702 41.2652C79.9603 41.0169 79.5966 40.7167 79.279 40.3702C78.9615 40.0238 78.6901 39.6312 78.4765 39.204C78.2571 38.7709 78.0954 38.309 77.9799 37.8067C77.8702 37.3044 77.8125 36.779 77.8125 36.2247V36.2017C77.8125 35.3414 77.9511 34.5562 78.2282 33.8575C78.5053 33.1589 78.8864 32.5527 79.3829 32.0562C79.8737 31.5538 80.4568 31.167 81.1266 30.8956C81.7963 30.6243 82.5296 30.4857 83.3148 30.4857C83.898 30.4857 84.4407 30.555 84.943 30.6993C85.4453 30.8437 85.8956 31.0515 86.3056 31.3229C86.7097 31.5943 87.0735 31.9176 87.3853 32.2986C87.697 32.6797 87.9568 33.1012 88.1647 33.5746C88.3725 34.0481 88.5227 34.5619 88.615 35.122C88.7074 35.682 88.7478 36.2652 88.7247 36.8829V36.8945H79.3714L79.3483 35.1566H86.4499V35.1451C86.4268 34.8622 86.3806 34.5966 86.3056 34.3368C86.2305 34.0769 86.1324 33.8402 85.9996 33.6208C85.8725 33.4014 85.7167 33.2051 85.5377 33.0319C85.3587 32.8587 85.1566 32.7086 84.9257 32.5816C84.7005 32.4545 84.4465 32.3564 84.1809 32.2929C83.9095 32.2236 83.6208 32.1947 83.3033 32.1947C82.8125 32.1947 82.3679 32.2756 81.9638 32.4372C81.5596 32.5989 81.219 32.8471 80.9303 33.1762C80.6474 33.5111 80.428 33.9268 80.2779 34.4291C80.1277 34.9314 80.0527 35.5261 80.0642 36.2132V36.2363C80.0642 36.6347 80.0989 37.0157 80.1624 37.3737C80.2317 37.7317 80.3298 38.0608 80.4626 38.3552C80.5954 38.6555 80.7571 38.9211 80.9534 39.1578C81.1439 39.3945 81.3691 39.6023 81.6231 39.7698C81.8772 39.9372 82.1543 40.0642 82.4603 40.1566C82.7663 40.2432 83.0954 40.2894 83.4418 40.2894C83.846 40.2894 84.2097 40.2548 84.5331 40.1797C84.8506 40.1047 85.1335 39.995 85.3702 39.8564C85.607 39.712 85.809 39.5388 85.9765 39.331C86.1439 39.1231 86.2767 38.8922 86.3806 38.6324H88.5689C88.4187 39.1289 88.2051 39.5908 87.9107 40.0123C87.622 40.4338 87.2582 40.7975 86.8194 41.1035C86.3864 41.4095 85.8841 41.6462 85.3125 41.8137C84.7409 41.9811 84.1 42.0677 83.3841 42.0677C82.7894 42.0388 82.2467 41.9696 81.7444 41.8368Z" fill="#3E3EFF"/>
<path d="M93.4027 41.7963C92.8196 41.6347 92.3173 41.398 91.8958 41.092C91.4743 40.7859 91.1394 40.4049 90.8854 39.9488C90.6313 39.4926 90.4697 38.9788 90.4004 38.3956H92.5482C92.6059 38.7536 92.7099 39.0596 92.8715 39.3137C93.0274 39.5677 93.2295 39.7756 93.4778 39.9372C93.726 40.0989 94.0089 40.2144 94.3323 40.2894C94.6556 40.3645 95.0193 40.3991 95.4235 40.3991C95.6487 40.3991 95.8623 40.3876 96.0701 40.3645C96.278 40.3414 96.4685 40.301 96.636 40.2432C96.8092 40.1855 96.9651 40.122 97.1036 40.0411C97.2422 39.9661 97.3634 39.8679 97.4558 39.7582C97.5482 39.6485 97.6233 39.5215 97.6752 39.3829C97.7272 39.2444 97.7561 39.0943 97.7561 38.9268V38.9037C97.7561 38.6324 97.6983 38.4014 97.5886 38.2224C97.4789 38.0377 97.323 37.8876 97.1209 37.7605C96.9189 37.6335 96.6821 37.5296 96.405 37.443C96.1279 37.3564 95.8219 37.2813 95.4928 37.212L93.8819 36.8656C93.4316 36.7675 93.0159 36.6347 92.6233 36.4615C92.2364 36.2883 91.8958 36.0746 91.6129 35.8206C91.33 35.5665 91.1048 35.2605 90.9431 34.9026C90.7815 34.5446 90.7006 34.1347 90.7006 33.6728V33.6497C90.7006 33.182 90.8103 32.749 91.0355 32.3622C91.2607 31.9753 91.5667 31.6404 91.9593 31.3633C92.3519 31.0862 92.8138 30.8726 93.3507 30.7167C93.8819 30.5608 94.4593 30.4857 95.0771 30.4857C95.6891 30.4857 96.2491 30.5492 96.763 30.6705C97.2768 30.7917 97.733 30.9823 98.1198 31.2421C98.5066 31.5019 98.8242 31.8368 99.0725 32.2467C99.3207 32.6566 99.4766 33.1474 99.5574 33.7132H97.4096C97.375 33.5053 97.3173 33.3206 97.2422 33.1589C97.1671 33.003 97.069 32.8645 96.9593 32.7432C96.8496 32.622 96.7226 32.5238 96.5782 32.443C96.4397 32.3622 96.2838 32.2987 96.1163 32.2467C95.9489 32.2005 95.7699 32.1601 95.5736 32.1428C95.3831 32.1197 95.181 32.1139 94.9674 32.1139C94.6671 32.1139 94.3842 32.1485 94.1186 32.212C93.853 32.2813 93.6279 32.3737 93.4373 32.495C93.2468 32.6162 93.0967 32.7663 92.9928 32.9395C92.8831 33.1127 92.8311 33.3148 92.8311 33.54V33.5631C92.8311 33.7709 92.8715 33.9615 92.9466 34.1231C93.0216 34.2848 93.1313 34.4234 93.2757 34.5446C93.42 34.6659 93.599 34.764 93.8069 34.8506C94.0147 34.9372 94.2572 35.0065 94.5228 35.0585L96.1221 35.4049C96.6475 35.5146 97.1383 35.6532 97.6002 35.809C98.0621 35.9649 98.4604 36.167 98.8011 36.4153C99.1417 36.6635 99.4073 36.9638 99.5979 37.3217C99.7884 37.6797 99.8865 38.1185 99.8865 38.6381V38.6612C99.8865 39.0192 99.8346 39.3541 99.7307 39.6601C99.6267 39.9661 99.4766 40.249 99.2861 40.503C99.0955 40.7571 98.8588 40.9765 98.5875 41.1728C98.3161 41.3633 98.0101 41.525 97.6694 41.6578C97.3346 41.7848 96.9708 41.8829 96.5724 41.9522C96.1798 42.0215 95.7699 42.0504 95.3427 42.0504C94.6383 42.0388 93.9858 41.958 93.4027 41.7963Z" fill="#3E3EFF"/>
<path d="M104.487 41.5769C104.089 41.4672 103.777 41.2882 103.546 41.04C103.315 40.7917 103.153 40.4626 103.061 40.0527C102.968 39.6427 102.922 39.1404 102.922 38.5457V32.6104H101.236V30.7802H102.922V27.3102H105.07V30.7802H107.414V32.6104H105.07V38.4996C105.07 38.7594 105.082 38.9788 105.11 39.1635C105.139 39.3483 105.197 39.4926 105.289 39.6023C105.382 39.712 105.515 39.7929 105.682 39.839C105.855 39.891 106.08 39.9141 106.363 39.9141H107.333V41.7444H106.005C105.388 41.7444 104.88 41.6866 104.487 41.5769Z" fill="#3E3EFF"/>
<path d="M114.865 26.9121H120.264C121.239 26.9121 122.082 27.0218 122.798 27.2354C123.514 27.4548 124.109 27.7608 124.577 28.1592C125.044 28.5576 125.396 29.0426 125.627 29.6084C125.858 30.1742 125.974 30.8151 125.974 31.5253V31.5484C125.974 32.247 125.858 32.8821 125.627 33.4537C125.396 34.0195 125.044 34.5045 124.577 34.9029C124.109 35.3013 123.514 35.6073 122.798 35.8209C122.082 36.0345 121.239 36.1442 120.264 36.1442H117.094V41.7389H114.865V26.9121ZM120.189 34.2216C120.777 34.2216 121.286 34.1638 121.713 34.0541C122.14 33.9444 122.492 33.777 122.775 33.5518C123.058 33.3324 123.266 33.0495 123.399 32.7146C123.537 32.3798 123.607 31.9872 123.607 31.5484V31.5253C123.607 31.0749 123.537 30.6823 123.399 30.3474C123.26 30.0126 123.052 29.7297 122.775 29.5045C122.492 29.2793 122.14 29.1119 121.713 29.0022C121.286 28.8925 120.777 28.8347 120.189 28.8347H117.094V34.2216H120.189Z" fill="#3E3EFF"/>
<path d="M128.279 30.7805H130.427V32.7263C130.589 32.4087 130.779 32.1258 131.004 31.866C131.23 31.612 131.489 31.3926 131.784 31.2136C132.078 31.0346 132.407 30.896 132.771 30.8036C133.135 30.7113 133.533 30.6593 133.961 30.6593H134.163V32.7551H133.585C133.089 32.7551 132.644 32.8129 132.257 32.9341C131.871 33.0554 131.536 33.2401 131.27 33.4999C130.999 33.7598 130.791 34.0946 130.647 34.5103C130.502 34.926 130.433 35.4284 130.433 36.0173V41.739H128.285V30.7805H128.279Z" fill="#3E3EFF"/>
<path d="M138.725 41.6004C138.044 41.3117 137.461 40.9076 136.982 40.3937C136.503 39.8798 136.133 39.2736 135.879 38.5634C135.625 37.8533 135.492 37.0854 135.492 36.2597V36.2366C135.492 35.3995 135.619 34.6316 135.879 33.933C136.133 33.2343 136.503 32.6223 136.982 32.1085C137.461 31.5946 138.044 31.1905 138.725 30.9018C139.407 30.6131 140.18 30.4688 141.035 30.4688C141.889 30.4688 142.663 30.6131 143.35 30.9018C144.037 31.1905 144.62 31.5888 145.094 32.1085C145.573 32.6223 145.937 33.2343 146.191 33.933C146.445 34.6316 146.578 35.3995 146.578 36.2366V36.2597C146.578 37.0854 146.451 37.8533 146.191 38.5634C145.937 39.2736 145.567 39.8798 145.094 40.3937C144.615 40.9076 144.037 41.3059 143.35 41.6004C142.663 41.8891 141.889 42.0392 141.035 42.0392C140.175 42.0392 139.407 41.8948 138.725 41.6004ZM142.461 39.9664C142.871 39.7701 143.212 39.493 143.489 39.1408C143.76 38.7886 143.968 38.3671 144.107 37.8764C144.245 37.3914 144.314 36.8487 144.314 36.2597V36.2366C144.314 35.6477 144.245 35.1108 144.107 34.62C143.968 34.135 143.766 33.7136 143.489 33.3614C143.217 33.0092 142.871 32.7378 142.461 32.5415C142.051 32.3452 141.578 32.247 141.035 32.247C140.492 32.247 140.019 32.3452 139.609 32.5415C139.199 32.7378 138.858 33.0092 138.581 33.3614C138.31 33.7136 138.102 34.1293 137.963 34.62C137.825 35.105 137.755 35.6477 137.755 36.2366V36.2597C137.755 36.8487 137.825 37.3856 137.963 37.8764C138.102 38.3614 138.304 38.7828 138.581 39.1408C138.852 39.493 139.199 39.7701 139.609 39.9664C140.019 40.1627 140.492 40.2609 141.035 40.2609C141.572 40.2609 142.045 40.1627 142.461 39.9664Z" fill="#3E3EFF"/>
<path d="M152.218 41.8663C151.785 41.7508 151.375 41.5833 150.999 41.3582C150.618 41.133 150.272 40.8559 149.96 40.5268C149.643 40.1977 149.377 39.8166 149.158 39.3893C148.938 38.9621 148.765 38.4887 148.644 37.9633C148.522 37.4436 148.459 36.8778 148.459 36.2773V36.2542C148.459 35.342 148.592 34.5279 148.863 33.8178C149.135 33.1076 149.498 32.5014 149.96 32.0106C150.422 31.5141 150.965 31.1388 151.588 30.879C152.212 30.6191 152.876 30.4921 153.574 30.4921C153.967 30.4921 154.337 30.5325 154.683 30.6191C155.029 30.7057 155.353 30.8212 155.647 30.9771C155.942 31.133 156.207 31.3178 156.444 31.5314C156.681 31.745 156.883 31.9759 157.044 32.23V26.9182H159.192V41.7508H157.044V40.3074C156.883 40.5614 156.681 40.7923 156.444 41.006C156.207 41.2196 155.942 41.4044 155.647 41.5602C155.353 41.7161 155.029 41.8316 154.683 41.9182C154.337 42.0048 153.967 42.0452 153.574 42.0452C153.101 42.0395 152.651 41.9817 152.218 41.8663ZM154.793 40.1399C155.064 40.0649 155.324 39.9552 155.561 39.8108C155.797 39.6607 156.017 39.4817 156.207 39.2565C156.398 39.0372 156.565 38.7773 156.698 38.4829C156.831 38.1884 156.935 37.8593 157.01 37.4898C157.085 37.1203 157.119 36.7161 157.119 36.2773V36.2542C157.119 35.8097 157.085 35.4055 157.01 35.0418C156.935 34.6723 156.831 34.3432 156.698 34.0487C156.565 33.7542 156.404 33.4944 156.207 33.275C156.017 33.0556 155.797 32.8709 155.561 32.7208C155.324 32.5706 155.064 32.4609 154.793 32.3917C154.521 32.3166 154.227 32.282 153.921 32.282C153.615 32.282 153.32 32.3166 153.043 32.3917C152.766 32.4667 152.512 32.5764 152.275 32.7208C152.039 32.8709 151.825 33.0499 151.635 33.275C151.444 33.4944 151.277 33.7542 151.144 34.0487C151.011 34.3432 150.907 34.6723 150.832 35.0418C150.757 35.4113 150.722 35.8154 150.722 36.2542V36.2773C150.722 36.7219 150.757 37.1261 150.832 37.4898C150.907 37.8535 151.011 38.1884 151.144 38.4829C151.277 38.7773 151.438 39.0372 151.635 39.2565C151.825 39.4759 152.039 39.6607 152.275 39.8108C152.512 39.9609 152.766 40.0706 153.043 40.1399C153.32 40.215 153.615 40.2496 153.921 40.2496C154.227 40.2496 154.521 40.215 154.793 40.1399Z" fill="#3E3EFF"/>
<path d="M164.683 41.71C164.187 41.4906 163.771 41.1788 163.436 40.7746C163.101 40.3705 162.853 39.8739 162.686 39.2908C162.518 38.7076 162.432 38.0552 162.432 37.322V30.7804H164.579V36.8716C164.579 37.4143 164.631 37.8878 164.741 38.3093C164.851 38.725 165.012 39.0772 165.226 39.3601C165.44 39.643 165.711 39.8566 166.034 40.001C166.358 40.1453 166.739 40.2146 167.178 40.2146C167.611 40.2146 167.992 40.1453 168.321 40.001C168.644 39.8566 168.915 39.643 169.129 39.3601C169.343 39.0772 169.504 38.725 169.608 38.3093C169.712 37.8936 169.764 37.4143 169.764 36.8716V30.7804H171.912V41.7446H169.764V40.4282C169.579 40.6649 169.383 40.8843 169.164 41.0864C168.944 41.2885 168.702 41.4559 168.43 41.5945C168.159 41.7331 167.859 41.8428 167.53 41.9178C167.201 41.9929 166.831 42.0333 166.427 42.0333C165.763 42.0391 165.18 41.9294 164.683 41.71Z" fill="#3E3EFF"/>
<path d="M178.427 41.8422C177.942 41.7152 177.503 41.5305 177.099 41.288C176.7 41.0512 176.337 40.7568 176.019 40.4161C175.702 40.0697 175.43 39.6887 175.217 39.2614C174.997 38.8342 174.83 38.3665 174.714 37.8642C174.599 37.3619 174.541 36.8249 174.541 36.2649V36.2418C174.541 35.3988 174.668 34.6251 174.928 33.915C175.182 33.2048 175.551 32.5986 176.025 32.0905C176.498 31.5824 177.07 31.184 177.74 30.9011C178.409 30.6182 179.16 30.4739 179.986 30.4739C180.696 30.4739 181.342 30.5663 181.926 30.7568C182.509 30.9473 183.023 31.2129 183.461 31.5536C183.9 31.8942 184.264 32.3041 184.558 32.7776C184.847 33.2568 185.055 33.7822 185.176 34.3538H182.988C182.896 34.0189 182.763 33.7187 182.584 33.4531C182.405 33.1875 182.185 32.9681 181.931 32.7891C181.677 32.6101 181.389 32.4773 181.065 32.385C180.742 32.2926 180.39 32.2464 180.014 32.2464C179.553 32.2464 179.125 32.333 178.738 32.512C178.352 32.691 178.011 32.9508 177.728 33.2914C177.445 33.6321 177.226 34.0478 177.064 34.5443C176.908 35.0409 176.827 35.6009 176.827 36.2302V36.2533C176.827 36.6748 176.862 37.0674 176.937 37.4254C177.012 37.7891 177.116 38.1182 177.249 38.4127C177.382 38.7129 177.543 38.9727 177.734 39.2037C177.924 39.4288 178.138 39.6251 178.369 39.7753C178.606 39.9312 178.86 40.0466 179.137 40.1275C179.414 40.2083 179.708 40.2487 180.014 40.2487C180.396 40.2487 180.742 40.2025 181.065 40.1044C181.389 40.012 181.677 39.8734 181.931 39.6944C182.185 39.5154 182.405 39.296 182.584 39.0305C182.763 38.7649 182.896 38.4704 182.988 38.1298H185.176C185.055 38.7071 184.853 39.2325 184.558 39.706C184.27 40.1852 183.9 40.5951 183.461 40.9358C183.023 41.2822 182.509 41.5478 181.926 41.7325C181.342 41.9231 180.696 42.0154 179.986 42.0154C179.431 42.0385 178.912 41.9693 178.427 41.8422Z" fill="#3E3EFF"/>
<path d="M189.696 41.5769C189.298 41.4672 188.986 41.2882 188.755 41.04C188.524 40.7917 188.362 40.4626 188.27 40.0527C188.177 39.6427 188.131 39.1404 188.131 38.5457V32.6104H186.445V30.7802H188.131V27.3102H190.279V30.7802H192.623V32.6104H190.279V38.4996C190.279 38.7594 190.291 38.9788 190.319 39.1635C190.348 39.3483 190.406 39.4926 190.498 39.6023C190.591 39.712 190.724 39.7929 190.891 39.839C191.064 39.891 191.289 39.9141 191.572 39.9141H192.542V41.7444H191.214C190.602 41.7444 190.094 41.6866 189.696 41.5769Z" fill="#3E3EFF"/>
<path d="M195.209 26.9121H197.357V29.3544H195.209V26.9121ZM195.209 30.7805H197.357V41.7447H195.209V30.7805Z" fill="#3E3EFF"/>
<path d="M203.227 41.6004C202.546 41.3117 201.963 40.9076 201.484 40.3937C201.005 39.8798 200.635 39.2736 200.381 38.5634C200.127 37.8533 199.994 37.0854 199.994 36.2597V36.2366C199.994 35.3995 200.121 34.6316 200.381 33.933C200.635 33.2343 201.005 32.6223 201.484 32.1085C201.963 31.5946 202.546 31.1905 203.227 30.9018C203.909 30.6131 204.682 30.4688 205.537 30.4688C206.391 30.4688 207.165 30.6131 207.852 30.9018C208.539 31.1905 209.122 31.5888 209.596 32.1085C210.075 32.6223 210.439 33.2343 210.693 33.933C210.947 34.6316 211.08 35.3995 211.08 36.2366V36.2597C211.08 37.0854 210.953 37.8533 210.693 38.5634C210.439 39.2736 210.069 39.8798 209.596 40.3937C209.117 40.9076 208.539 41.3059 207.852 41.6004C207.165 41.8891 206.391 42.0392 205.537 42.0392C204.677 42.0392 203.909 41.8948 203.227 41.6004ZM206.957 39.9664C207.367 39.7701 207.708 39.493 207.985 39.1408C208.256 38.7886 208.464 38.3671 208.603 37.8764C208.741 37.3914 208.811 36.8487 208.811 36.2597V36.2366C208.811 35.6477 208.741 35.1108 208.603 34.62C208.464 34.135 208.262 33.7136 207.985 33.3614C207.714 33.0092 207.367 32.7378 206.957 32.5415C206.547 32.3452 206.074 32.247 205.531 32.247C204.988 32.247 204.515 32.3452 204.105 32.5415C203.695 32.7378 203.354 33.0092 203.077 33.3614C202.806 33.7136 202.598 34.1293 202.46 34.62C202.321 35.105 202.252 35.6477 202.252 36.2366V36.2597C202.252 36.8487 202.321 37.3856 202.46 37.8764C202.598 38.3614 202.8 38.7828 203.077 39.1408C203.349 39.493 203.695 39.7701 204.105 39.9664C204.515 40.1627 204.988 40.2609 205.531 40.2609C206.074 40.2609 206.547 40.1627 206.957 39.9664Z" fill="#3E3EFF"/>
<path d="M213.717 30.7805H215.865V32.0969C216.049 31.8486 216.246 31.6292 216.465 31.4329C216.684 31.2366 216.927 31.0692 217.198 30.9306C217.47 30.7921 217.77 30.6824 218.099 30.6073C218.428 30.5322 218.798 30.4918 219.202 30.4918C219.866 30.4918 220.449 30.6015 220.945 30.8151C221.442 31.0345 221.858 31.3463 222.193 31.7505C222.527 32.1546 222.776 32.6512 222.943 33.2343C223.111 33.8175 223.197 34.4699 223.197 35.2031V41.7447H221.049V35.6535C221.049 35.1108 220.997 34.6373 220.893 34.2158C220.79 33.8001 220.628 33.4479 220.408 33.165C220.189 32.8821 219.918 32.6685 219.594 32.5242C219.271 32.3798 218.89 32.3105 218.451 32.3105C218.018 32.3105 217.637 32.3798 217.308 32.5242C216.985 32.6685 216.713 32.8821 216.5 33.165C216.286 33.4479 216.124 33.8001 216.021 34.2158C215.917 34.6315 215.865 35.1108 215.865 35.6535V41.7447H213.717V30.7805Z" fill="#3E3EFF"/>
<path d="M28.2852 31.6223H49.9942V49.9999H28.2852V31.6223Z" fill="#181863"/>
<path d="M49.9942 0H28.2852V30.6005H49.9942V0Z" fill="#9999FF"/>
<path d="M27.2633 0H0V50H27.2633V0Z" fill="#3E3EFF"/>
</svg>
