<svg width="66" height="36" viewBox="0 0 66 36" fill="none" xmlns="http://www.w3.org/2000/svg">
<path d="M39.541 7.42218H41.4381V16.6702H39.541V7.42218Z" fill="#06061A"/>
<path d="M45.5283 16.7495C45.2151 16.6703 44.9272 16.5551 44.6644 16.4039C44.4052 16.2527 44.1712 16.0691 43.966 15.8567C43.7608 15.6407 43.588 15.3995 43.4476 15.1331C43.3072 14.8632 43.1992 14.5716 43.1272 14.2548C43.0516 13.938 43.0156 13.5996 43.0156 13.2396V13.2252C43.0156 12.6924 43.0984 12.2029 43.2604 11.7601C43.426 11.3173 43.66 10.9357 43.966 10.6153C44.272 10.2949 44.6428 10.0465 45.0783 9.87015C45.5139 9.69376 45.9999 9.60376 46.5363 9.60376C47.0187 9.60376 47.4507 9.66856 47.843 9.79455C48.2318 9.92055 48.5702 10.0969 48.8546 10.3237C49.139 10.5505 49.373 10.8169 49.5566 11.1301C49.7402 11.4433 49.8698 11.7889 49.9454 12.1633H48.1202C48.0734 11.9653 48.0014 11.7961 47.9114 11.6485C47.8178 11.5009 47.7098 11.3821 47.5767 11.2849C47.4471 11.1877 47.2959 11.1157 47.1231 11.0689C46.9539 11.0221 46.7703 10.9969 46.5723 10.9969C46.3239 10.9969 46.0971 11.0473 45.8955 11.1481C45.6939 11.2489 45.5211 11.3929 45.3735 11.5837C45.2259 11.7745 45.1143 12.0085 45.0351 12.2857C44.9559 12.5628 44.9164 12.876 44.9164 13.2252V13.2396C44.9164 13.4772 44.9344 13.6968 44.9704 13.8984C45.0064 14.1 45.0603 14.2872 45.1287 14.4528C45.1971 14.6184 45.2799 14.766 45.3735 14.892C45.4707 15.018 45.5787 15.1259 45.7011 15.2123C45.8235 15.2987 45.9567 15.3671 46.1007 15.4103C46.2447 15.4535 46.3995 15.4751 46.5651 15.4751C46.7631 15.4751 46.9467 15.4499 47.1159 15.4031C47.2851 15.3563 47.4363 15.2807 47.5694 15.1835C47.699 15.0863 47.8106 14.964 47.9042 14.8164C47.9978 14.6688 48.0662 14.4996 48.113 14.3088H49.9382C49.8626 14.6796 49.7366 15.0252 49.5494 15.3383C49.3622 15.6515 49.1318 15.9251 48.8474 16.1519C48.563 16.3787 48.2282 16.5551 47.8358 16.6811C47.4471 16.8071 47.0115 16.8683 46.5291 16.8683C46.1763 16.8683 45.8415 16.8287 45.5283 16.7495Z" fill="#06061A"/>
<path d="M52.39 16.7242C52.0769 16.627 51.8033 16.4902 51.5729 16.3066C51.3425 16.1266 51.1661 15.9071 51.0365 15.6479C50.9105 15.3887 50.8457 15.1007 50.8457 14.7767V14.7695C50.8457 14.5211 50.8781 14.2979 50.9429 14.0963C51.0077 13.8983 51.1049 13.7219 51.2345 13.5635C51.3641 13.4087 51.5225 13.272 51.7169 13.1532C51.9077 13.0344 52.1309 12.93 52.3864 12.84C52.6384 12.75 52.9228 12.6744 53.2324 12.606C53.542 12.5412 53.8804 12.4836 54.2476 12.4368C54.5248 12.4008 54.7444 12.3648 54.9063 12.3288C55.0719 12.2928 55.1979 12.246 55.2879 12.192C55.3779 12.138 55.4355 12.0732 55.4643 11.9976C55.4931 11.922 55.5075 11.8284 55.5075 11.7168V11.706C55.5075 11.5512 55.4787 11.4216 55.4211 11.3136C55.3635 11.2056 55.2807 11.112 55.1727 11.04C55.0647 10.968 54.9315 10.914 54.784 10.878C54.6328 10.842 54.4636 10.824 54.2764 10.824C54.0712 10.824 53.884 10.8456 53.7148 10.8888C53.5456 10.932 53.4016 11.0004 53.2828 11.0904C53.164 11.184 53.0668 11.2992 53.002 11.4396C52.9336 11.58 52.8976 11.7456 52.8868 11.9364H51.1517C51.1589 11.5476 51.2453 11.2056 51.4037 10.914C51.5621 10.6225 51.7817 10.3777 52.0553 10.1797C52.3288 9.98168 52.66 9.83408 53.0416 9.73329C53.4232 9.63249 53.8408 9.58209 54.2908 9.58209C54.7552 9.58209 55.1691 9.62169 55.5399 9.69729C55.9107 9.77289 56.2203 9.90248 56.4795 10.0861C56.7351 10.2697 56.9295 10.5145 57.0663 10.8204C57.2031 11.1264 57.2679 11.508 57.2679 11.9688L57.2499 14.5067C57.2499 14.7371 57.2535 14.9531 57.2607 15.1511C57.2679 15.3491 57.2787 15.5327 57.2931 15.7091C57.3075 15.8855 57.3291 16.051 57.3579 16.2058C57.3867 16.3642 57.419 16.5154 57.4586 16.6666H55.6731C55.6659 16.6126 55.6551 16.5622 55.6515 16.5154C55.6443 16.4686 55.6371 16.4182 55.6335 16.3714C55.6263 16.3246 55.6227 16.2706 55.6155 16.2166C55.6119 16.1626 55.6083 16.1014 55.6083 16.0366C55.4931 16.1662 55.3671 16.285 55.2195 16.3858C55.0755 16.4902 54.9135 16.5766 54.7336 16.645C54.5536 16.7134 54.3556 16.7674 54.136 16.807C53.9164 16.843 53.6752 16.861 53.416 16.861C53.0488 16.8682 52.7068 16.8178 52.39 16.7242ZM54.3736 15.5651C54.5104 15.5399 54.6328 15.5075 54.748 15.4607C54.8632 15.4139 54.9639 15.3563 55.0575 15.2879C55.1511 15.2195 55.2267 15.1331 55.2915 15.0395C55.3563 14.9423 55.4067 14.8343 55.4427 14.7155C55.4787 14.5967 55.4967 14.4635 55.4967 14.3195V13.2036C55.3779 13.2468 55.2663 13.2864 55.1619 13.3187C55.0575 13.3511 54.9567 13.3835 54.856 13.4123C54.7588 13.4411 54.6616 13.4663 54.5716 13.4915C54.478 13.5167 54.3916 13.5383 54.3088 13.5599C54.1108 13.6139 53.938 13.6607 53.7832 13.7075C53.6284 13.7543 53.4952 13.8011 53.38 13.8479C53.2648 13.8947 53.164 13.9487 53.0848 14.0027C53.0056 14.0567 52.9372 14.1179 52.8868 14.1827C52.8364 14.2475 52.8004 14.3195 52.7752 14.3987C52.75 14.4779 52.7392 14.5679 52.7392 14.6687V14.6759C52.7392 14.8235 52.768 14.9567 52.8256 15.0719C52.8832 15.1871 52.9624 15.2843 53.0668 15.3635C53.1712 15.4427 53.2972 15.5039 53.4484 15.5435C53.5996 15.5867 53.7688 15.6047 53.956 15.6047C54.0964 15.6011 54.2368 15.5903 54.3736 15.5651Z" fill="#06061A"/>
<path d="M60.9566 16.7638C60.6902 16.6954 60.4454 16.5874 60.2114 16.4506C59.981 16.3102 59.7686 16.1374 59.5778 15.9359C59.387 15.7343 59.225 15.4967 59.0846 15.2267C58.9478 14.9567 58.8398 14.6579 58.7678 14.3303C58.6922 14.0027 58.6562 13.6463 58.6562 13.2612V13.2468C58.6562 12.6708 58.739 12.156 58.9046 11.7096C59.0702 11.2596 59.2934 10.8852 59.5778 10.5793C59.8586 10.2733 60.1898 10.0393 60.5714 9.88089C60.953 9.72249 61.3525 9.6397 61.7773 9.6397C62.0221 9.6397 62.2525 9.6649 62.4649 9.71529C62.6809 9.76569 62.8753 9.83769 63.0553 9.92768C63.2353 10.0213 63.3937 10.1293 63.5377 10.2553C63.6781 10.3813 63.7969 10.5217 63.8868 10.6693V7.42218H65.7156V16.6702H63.8868V15.8387C63.7933 15.9863 63.6781 16.1266 63.5377 16.2526C63.3973 16.3786 63.2353 16.4902 63.0553 16.5802C62.8753 16.6738 62.6809 16.7422 62.4649 16.7926C62.2489 16.843 62.0221 16.8682 61.7773 16.8682C61.4965 16.8682 61.223 16.8322 60.9566 16.7638ZM62.7421 15.4175C62.8897 15.3743 63.0229 15.3095 63.1489 15.2267C63.2749 15.1439 63.3865 15.0395 63.4873 14.9135C63.5881 14.7875 63.6709 14.6435 63.7393 14.4815C63.8077 14.3159 63.858 14.1323 63.8976 13.9307C63.9336 13.7291 63.9516 13.5023 63.9516 13.2576V13.2432C63.9516 12.9984 63.9336 12.7752 63.8976 12.57C63.8616 12.3684 63.8077 12.1812 63.7393 12.0192C63.6709 11.8536 63.5881 11.7096 63.4873 11.5872C63.3865 11.4612 63.2749 11.3604 63.1489 11.274C63.0229 11.1912 62.8897 11.1264 62.7421 11.0832C62.5945 11.04 62.4361 11.0184 62.2669 11.0184C62.0977 11.0184 61.9393 11.04 61.7917 11.0832C61.6441 11.1264 61.5109 11.1912 61.3849 11.274C61.2589 11.3568 61.1474 11.4612 61.0466 11.5872C60.9458 11.7132 60.863 11.8572 60.7946 12.0192C60.7262 12.1848 60.6758 12.3684 60.6362 12.57C60.6002 12.7716 60.5822 12.9984 60.5822 13.2432V13.2576C60.5822 13.5023 60.6002 13.7255 60.6362 13.9307C60.6722 14.1323 60.7262 14.3195 60.7946 14.4815C60.863 14.6471 60.9458 14.7911 61.0466 14.9135C61.1474 15.0395 61.2589 15.1403 61.3849 15.2267C61.5109 15.3095 61.6441 15.3743 61.7917 15.4175C61.9393 15.4607 62.0977 15.4823 62.2669 15.4823C62.4361 15.4823 62.5945 15.4607 62.7421 15.4175Z" fill="#06061A"/>
<path d="M39.6641 19.1935H41.0536V27.2284H45.5714V28.4416H39.6641V19.1935Z" fill="#3E3EFF"/>
<path d="M47.8375 28.4854C47.5279 28.3918 47.2615 28.255 47.0383 28.0786C46.8115 27.9022 46.6387 27.6862 46.5092 27.4307C46.3832 27.1751 46.3184 26.8871 46.3184 26.5667V26.5523C46.3184 26.3111 46.3508 26.0951 46.412 25.9007C46.4768 25.7063 46.5704 25.5335 46.6927 25.3787C46.8187 25.2239 46.9735 25.0907 47.1607 24.9755C47.3479 24.8603 47.5675 24.756 47.8159 24.666C48.0643 24.576 48.3451 24.5004 48.6547 24.432C48.9643 24.3672 49.3062 24.3096 49.677 24.2628C49.9614 24.2232 50.1846 24.1836 50.3538 24.144C50.5194 24.1044 50.649 24.054 50.739 23.9964C50.829 23.9388 50.8866 23.8668 50.9118 23.784C50.937 23.7012 50.9514 23.5968 50.9514 23.4708V23.4564C50.9514 23.2872 50.919 23.1396 50.8542 23.0136C50.7894 22.8876 50.6958 22.7832 50.5734 22.7004C50.451 22.614 50.3034 22.5528 50.127 22.5096C49.9506 22.4664 49.7562 22.4484 49.5366 22.4484C49.3098 22.4484 49.1011 22.4736 48.9103 22.5204C48.7195 22.5672 48.5575 22.6428 48.4171 22.7472C48.2803 22.8516 48.1723 22.9776 48.0931 23.136C48.0139 23.2908 47.9707 23.478 47.9635 23.6976H46.6243C46.6243 23.3052 46.7035 22.9632 46.8619 22.6788C47.0203 22.3908 47.2327 22.1569 47.4991 21.9697C47.7655 21.7825 48.0751 21.6457 48.4315 21.5521C48.7843 21.4585 49.1587 21.4153 49.5474 21.4153C49.9722 21.4153 50.3538 21.4549 50.6922 21.5305C51.0306 21.6061 51.3186 21.7321 51.5526 21.9085C51.7866 22.0849 51.9665 22.3152 52.0889 22.6032C52.2149 22.8912 52.2761 23.2476 52.2761 23.6652L52.2617 26.1779C52.2617 26.4263 52.2653 26.6531 52.2689 26.8583C52.2725 27.0635 52.2833 27.2579 52.2977 27.4379C52.3121 27.6178 52.3337 27.7906 52.3625 27.9562C52.3913 28.1218 52.4237 28.2838 52.4633 28.4458H51.1314C51.1242 28.3882 51.1134 28.3342 51.1062 28.2838C51.099 28.2334 51.0882 28.183 51.081 28.129C51.0738 28.075 51.0666 28.021 51.063 27.9634C51.0594 27.9058 51.0558 27.8446 51.0486 27.7726C50.9406 27.895 50.8146 28.0102 50.6778 28.1146C50.541 28.219 50.3826 28.309 50.2062 28.3846C50.0298 28.4602 49.8282 28.5178 49.6014 28.561C49.3746 28.6042 49.1227 28.6258 48.8383 28.6258C48.4783 28.6258 48.1471 28.579 47.8375 28.4854ZM49.6482 27.5314C49.8066 27.5026 49.9542 27.463 50.0874 27.4055C50.2206 27.3515 50.343 27.2831 50.451 27.2039C50.559 27.1247 50.6526 27.0275 50.7282 26.9195C50.8038 26.8115 50.8614 26.6891 50.901 26.5523C50.9442 26.4155 50.9622 26.2679 50.9622 26.1059V24.8675C50.8326 24.9107 50.7066 24.9503 50.5842 24.9899C50.4654 25.0259 50.3502 25.0619 50.2386 25.0907C50.1306 25.1231 50.0226 25.1483 49.9218 25.1771C49.8174 25.2023 49.7166 25.2311 49.6158 25.2563C49.3746 25.3139 49.1623 25.3679 48.9751 25.4219C48.7879 25.4759 48.6259 25.5299 48.4855 25.5875C48.3451 25.6415 48.2263 25.6991 48.1327 25.7567C48.0355 25.8143 47.9599 25.8827 47.8987 25.9583C47.8411 26.0339 47.7979 26.1131 47.7691 26.1995C47.7439 26.2859 47.7295 26.3867 47.7295 26.5019V26.5091C47.7295 26.6783 47.7619 26.8331 47.8231 26.9663C47.8879 27.0995 47.9779 27.2111 48.1003 27.3047C48.2191 27.3983 48.3667 27.4667 48.5431 27.5098C48.7195 27.5566 48.9175 27.5782 49.1407 27.5782C49.3206 27.5746 49.4862 27.5602 49.6482 27.5314Z" fill="#3E3EFF"/>
<path d="M55.6063 28.4737C55.2427 28.3729 54.9295 28.2253 54.6667 28.0345C54.404 27.8437 54.1952 27.6061 54.0368 27.3217C53.8784 27.0374 53.7776 26.717 53.7344 26.3534H55.0735C55.1095 26.5766 55.1743 26.7674 55.2751 26.9258C55.3759 27.0842 55.4983 27.2137 55.6531 27.3145C55.8079 27.4153 55.9843 27.4873 56.1859 27.5341C56.3875 27.5809 56.6143 27.6025 56.8663 27.6025C57.0066 27.6025 57.1398 27.5953 57.2694 27.5809C57.399 27.5665 57.5178 27.5413 57.6222 27.5053C57.7302 27.4693 57.8274 27.4297 57.9138 27.3793C58.0002 27.3325 58.0758 27.2713 58.1334 27.2029C58.191 27.1346 58.2378 27.0554 58.2702 26.969C58.3026 26.8826 58.3206 26.789 58.3206 26.6846V26.6702C58.3206 26.501 58.2846 26.357 58.2162 26.2454C58.1478 26.1302 58.0506 26.0366 57.9246 25.9574C57.7986 25.8782 57.651 25.8134 57.4782 25.7594C57.3054 25.7054 57.1146 25.6586 56.9095 25.6154L55.9051 25.3994C55.6243 25.3382 55.3651 25.2554 55.1203 25.1474C54.8791 25.0394 54.6667 24.9062 54.4903 24.7478C54.314 24.5894 54.1736 24.3987 54.0728 24.1755C53.972 23.9523 53.9216 23.6967 53.9216 23.4087V23.3943C53.9216 23.1027 53.99 22.8327 54.1304 22.5915C54.2708 22.3503 54.4615 22.1415 54.7063 21.9687C54.9511 21.796 55.2391 21.6628 55.5739 21.5656C55.9051 21.4684 56.2651 21.4216 56.6503 21.4216C57.0318 21.4216 57.381 21.4612 57.7014 21.5368C58.0218 21.6124 58.3062 21.7312 58.5474 21.8932C58.7886 22.0551 58.9866 22.2639 59.1414 22.5195C59.2962 22.7751 59.3934 23.0811 59.4438 23.4339H58.1046C58.083 23.3043 58.047 23.1891 58.0002 23.0883C57.9534 22.9911 57.8922 22.9047 57.8238 22.8291C57.7554 22.7535 57.6762 22.6923 57.5862 22.6419C57.4998 22.5915 57.4026 22.5519 57.2982 22.5195C57.1938 22.4907 57.0823 22.4655 56.9599 22.4547C56.8411 22.4403 56.7151 22.4367 56.5819 22.4367C56.3947 22.4367 56.2183 22.4583 56.0527 22.4979C55.8871 22.5411 55.7467 22.5987 55.6279 22.6743C55.5091 22.7499 55.4155 22.8435 55.3507 22.9515C55.2823 23.0595 55.2499 23.1855 55.2499 23.3259V23.3403C55.2499 23.4699 55.2751 23.5887 55.3219 23.6895C55.3687 23.7903 55.4371 23.8767 55.5271 23.9523C55.6171 24.0279 55.7287 24.0891 55.8583 24.1431C55.9879 24.1971 56.1391 24.2403 56.3047 24.2727L57.3018 24.4887C57.6294 24.557 57.9354 24.6434 58.2234 24.7406C58.5114 24.8378 58.7598 24.9638 58.9722 25.1186C59.1846 25.2734 59.3502 25.4606 59.469 25.6838C59.5878 25.907 59.649 26.1806 59.649 26.5046V26.519C59.649 26.7422 59.6166 26.951 59.5518 27.1417C59.487 27.3325 59.3934 27.5089 59.2746 27.6673C59.1558 27.8257 59.0082 27.9625 58.839 28.0849C58.6698 28.2037 58.479 28.3045 58.2666 28.3873C58.0578 28.4665 57.831 28.5277 57.5862 28.5709C57.3414 28.6141 57.0858 28.6321 56.8195 28.6321C56.3767 28.6249 55.9699 28.5745 55.6063 28.4737Z" fill="#3E3EFF"/>
<path d="M62.513 28.3374C62.2647 28.269 62.0703 28.1574 61.9263 28.0026C61.7823 27.8478 61.6815 27.6426 61.6239 27.387C61.5663 27.1314 61.5375 26.8183 61.5375 26.4475V22.7468H60.4863V21.6057H61.5375V19.4421H62.8766V21.6057H64.3382V22.7468H62.8766V26.4187C62.8766 26.5807 62.8838 26.7175 62.9018 26.8327C62.9198 26.9479 62.9558 27.0378 63.0134 27.1062C63.071 27.1746 63.1538 27.225 63.2582 27.2538C63.3662 27.2862 63.5066 27.3006 63.683 27.3006H64.2878V28.4418H63.4598C63.0746 28.4418 62.7578 28.4058 62.513 28.3374Z" fill="#3E3EFF"/>
<path d="M21.8945 6.67957V36.0004L31.697 30.2695V12.4105L21.8945 6.67957Z" fill="#D8D8FF"/>
<path d="M10.4684 17.8589V0L0.666016 5.73098V23.5899L10.4684 17.8589Z" fill="#9999FF"/>
<path d="M10.4684 17.8588L31.6968 30.2675L21.8944 35.9985L0.666016 23.5897L10.4684 17.8588Z" fill="#181863"/>
<path d="M10.4684 0L31.6968 12.4087L21.8944 18.1397L0.666016 5.73098L10.4684 0Z" fill="#3E3EFF"/>
</svg>
