<svg width="28" height="29" viewBox="0 0 28 29" fill="none" xmlns="http://www.w3.org/2000/svg">
<g clip-path="url(#clip0_2130_1801)">
<path d="M22.697 12.02V22.9032H20.5231V15.9467H19.2188V24.2075H24.0014V12.8013L22.697 12.02Z" fill="#0C2340"/>
<path d="M4 10.7295V24.2077H9.21738V10.7295H4ZM7.91305 22.9034H5.30434V12.0338H7.91305V22.9034Z" fill="#0C2340"/>
<path d="M7.9134 4.20752H5.30469V5.51186H7.9134V4.20752Z" fill="#0C2340"/>
<path d="M7.9134 8.12061H5.30469V9.42494H7.9134V8.12061Z" fill="#0C2340"/>
<path d="M5.30434 5.51172H4V8.12043H5.30434V5.51172Z" fill="#0C2340"/>
<path d="M9.2184 5.51172H7.91406V8.12043H9.2184V5.51172Z" fill="#0C2340"/>
<path d="M19.2165 14.6421H15.7383V15.9464H19.2165V14.6421Z" fill="#0C2340"/>
<path fill-rule="evenodd" clip-rule="evenodd" d="M14.4297 10.7295H10.957V24.2077H15.7396V15.9469H14.4353V22.9034H12.2614V12.0338H14.4297V10.7295ZM14.4353 12.0353V13.3382H15.7396V12.0353H14.4353ZM15.7578 12.0338V10.7295H22.7114V12.0338H15.7578Z" fill="#0C2340"/>
</g>
<defs>
<clipPath id="clip0_2130_1801">
<rect width="20" height="20" fill="white" transform="translate(4 4.20752)"/>
</clipPath>
</defs>
</svg>
