<svg width="120" height="62" viewBox="0 0 120 62" fill="none" xmlns="http://www.w3.org/2000/svg">
<path d="M0 0.00146484H5.6184V27.413H0V0.00146484Z" fill="#0C2340"/>
<path d="M17.0512 27.6463C16.1185 27.4131 15.2651 27.0721 14.4942 26.6263C13.7233 26.179 13.0333 25.6381 12.4242 25.0036C11.8151 24.3692 11.3027 23.6522 10.8887 22.8559C10.4731 22.058 10.1559 21.1904 9.9354 20.2513C9.71492 19.3123 9.60547 18.3114 9.60547 17.247V17.2074C9.60547 15.6259 9.84816 14.1777 10.3351 12.8627C10.8205 11.5477 11.5185 10.4167 12.4258 9.46977C13.3331 8.52438 14.4308 7.78837 15.7204 7.26333C17.01 6.73829 18.4518 6.47656 20.046 6.47656C21.472 6.47656 22.7616 6.66532 23.9148 7.03967C25.068 7.41561 26.0657 7.93748 26.908 8.60527C27.7503 9.27307 28.4434 10.0694 28.9875 10.9973C29.5316 11.9237 29.9139 12.9452 30.1344 14.0587H24.7301C24.5873 13.475 24.3795 12.9674 24.1083 12.5328C23.8355 12.0981 23.5055 11.7396 23.1169 11.4541C22.7283 11.1686 22.281 10.9561 21.775 10.8133C21.269 10.6705 20.7249 10.5992 20.1412 10.5992C19.402 10.5992 18.7342 10.7483 18.1393 11.0465C17.5429 11.3447 17.0274 11.7761 16.5944 12.3392C16.1597 12.9024 15.8266 13.5971 15.5935 14.4188C15.3603 15.242 15.2429 16.1716 15.2429 17.2089V17.2486C15.2429 17.9481 15.2984 18.6001 15.4079 19.2028C15.5173 19.8056 15.6728 20.3528 15.8742 20.8462C16.0757 21.3395 16.3184 21.7725 16.6039 22.1484C16.8894 22.5244 17.213 22.8416 17.5762 23.1002C17.9395 23.3603 18.3345 23.5538 18.7627 23.6839C19.191 23.814 19.651 23.879 20.1427 23.879C20.7265 23.879 21.2705 23.8076 21.7766 23.6649C22.2826 23.5221 22.7299 23.3048 23.1185 23.0129C23.5071 22.7211 23.8371 22.3594 24.1099 21.9248C24.3827 21.4902 24.5889 20.9889 24.7317 20.4179H30.1359C29.9155 21.5203 29.5332 22.5371 28.9891 23.4698C28.445 24.4025 27.7519 25.2067 26.9096 25.8808C26.0673 26.555 25.0696 27.0768 23.9164 27.4464C22.7632 27.816 21.4736 28 20.0476 28C18.9848 28 17.9871 27.8826 17.0544 27.6495L17.0512 27.6463Z" fill="#0C2340"/>
<path d="M36.8535 27.5687C35.9208 27.2831 35.1134 26.8723 34.4329 26.3346C33.7524 25.7969 33.2242 25.1449 32.8483 24.3804C32.4723 23.6158 32.2852 22.7545 32.2852 21.7948V21.7758C32.2852 21.0366 32.3819 20.3736 32.577 19.7835C32.7721 19.1934 33.0592 18.6684 33.4415 18.2084C33.8238 17.7484 34.2997 17.3439 34.8707 16.9933C35.4402 16.6428 36.1016 16.335 36.8535 16.0701C37.6053 15.8052 38.4413 15.5752 39.3613 15.3801C40.2813 15.185 41.2854 15.0169 42.3751 14.8741C43.192 14.771 43.8424 14.6632 44.3293 14.5537C44.8147 14.4443 45.1907 14.3078 45.4571 14.146C45.722 13.9843 45.8981 13.7923 45.9822 13.5718C46.0663 13.3513 46.1091 13.0738 46.1091 12.7359V12.6962C46.1091 12.2426 46.025 11.854 45.8569 11.5304C45.6887 11.2068 45.4413 10.9371 45.1177 10.723C44.7941 10.5088 44.4087 10.3502 43.9613 10.2471C43.514 10.144 43.0112 10.0917 42.4544 10.0917C41.8453 10.0917 41.2917 10.1567 40.7921 10.2868C40.2924 10.4168 39.8657 10.6167 39.5088 10.8895C39.1519 11.1624 38.8743 11.505 38.6729 11.9206C38.4714 12.3362 38.3588 12.8279 38.3334 13.3973H33.1814C33.2068 12.2442 33.4558 11.2337 33.9301 10.3645C34.4028 9.49683 35.0484 8.77034 35.8637 8.18661C36.6806 7.60288 37.6545 7.16349 38.7903 6.86528C39.9244 6.56707 41.1585 6.41797 42.4941 6.41797C43.8297 6.41797 45.1018 6.53218 46.1979 6.75742C47.2924 6.98425 48.2203 7.3697 48.9786 7.91378C49.7368 8.45785 50.3173 9.18434 50.7186 10.0917C51.12 10.999 51.3214 12.1331 51.3214 13.4941L51.2627 21.0176C51.2627 21.7044 51.2722 22.3389 51.2913 22.9226C51.3103 23.5063 51.3436 24.0568 51.388 24.5755C51.434 25.0942 51.4975 25.5859 51.5831 26.0538C51.6672 26.5202 51.7671 26.9738 51.8845 27.4148H46.5961C46.5691 27.2593 46.5469 27.1102 46.5278 26.9675C46.5088 26.8247 46.4882 26.682 46.4692 26.5392C46.4501 26.3964 46.4327 26.2442 46.42 26.0824C46.4073 25.9206 46.4009 25.7429 46.4009 25.5478C46.0631 25.9364 45.6808 26.2838 45.2541 26.5884C44.8258 26.8929 44.3468 27.1499 43.8154 27.3561C43.284 27.5639 42.6939 27.7225 42.0468 27.832C41.398 27.9414 40.6858 27.9969 39.9085 27.9969C38.8061 27.9969 37.7893 27.8542 36.8566 27.5687H36.8535ZM42.7241 24.1377C43.1254 24.0663 43.495 23.9632 43.8329 23.8268C44.1691 23.6903 44.4737 23.519 44.7465 23.3112C45.0193 23.1034 45.2494 22.8576 45.4365 22.5721C45.6237 22.2865 45.7728 21.9661 45.8838 21.6092C45.9933 21.2523 46.0488 20.8605 46.0488 20.4322V17.1266C45.6982 17.2566 45.3683 17.3692 45.0574 17.4676C44.7465 17.5644 44.4451 17.6548 44.1533 17.7404C43.8614 17.8245 43.5791 17.9022 43.3078 17.9736C43.035 18.045 42.7764 18.1132 42.5306 18.1782C41.9468 18.3337 41.4281 18.4796 40.9761 18.616C40.5224 18.7524 40.1243 18.892 39.7801 19.0332C39.4358 19.176 39.1456 19.3282 38.9045 19.49C38.6649 19.6518 38.4698 19.8295 38.3207 20.0246C38.1716 20.2197 38.0606 20.4322 37.9908 20.6654C37.9194 20.8986 37.8845 21.1651 37.8845 21.4617V21.4807C37.8845 21.9217 37.9686 22.3135 38.1367 22.6561C38.3049 23.0003 38.5412 23.2874 38.8458 23.5206C39.1503 23.7538 39.5263 23.9314 39.9736 24.0552C40.4209 24.1789 40.9221 24.2392 41.4805 24.2392C41.9088 24.2392 42.3228 24.2043 42.7241 24.1329V24.1377Z" fill="#0C2340"/>
<path d="M61.264 27.6843C60.4788 27.4765 59.7444 27.1656 59.0576 26.7516C58.3707 26.3376 57.7458 25.8285 57.1811 25.2257C56.618 24.6229 56.131 23.9234 55.7233 23.1255C55.3157 22.3277 55 21.4441 54.7811 20.4718C54.5606 19.4994 54.4512 18.443 54.4512 17.3025V17.2629C54.4512 15.5513 54.697 14.0333 55.1904 12.7041C55.6821 11.3748 56.3467 10.2581 57.1826 9.35078C58.0186 8.44346 59.0005 7.75345 60.1283 7.28076C61.2561 6.80807 62.4473 6.57172 63.7052 6.57172C64.4317 6.57172 65.1106 6.64627 65.7467 6.79538C66.3812 6.94448 66.9649 7.15545 67.4963 7.42669C68.0276 7.69952 68.5035 8.02311 68.9255 8.39905C69.3458 8.77498 69.6932 9.18264 69.966 9.62361V0H75.3893V27.4115H69.966V24.9418C69.6932 25.3827 69.3474 25.7904 68.9255 26.1663C68.5035 26.5423 68.0276 26.8658 67.4963 27.1387C66.9649 27.4115 66.3812 27.6209 65.7467 27.77C65.1122 27.9191 64.4317 27.9937 63.7052 27.9937C62.8629 27.9937 62.0492 27.889 61.2656 27.6828L61.264 27.6843ZM66.5525 23.6997C66.9871 23.5697 67.3884 23.3825 67.758 23.1366C68.1276 22.8908 68.4607 22.583 68.7589 22.2135C69.0571 21.8439 69.3061 21.4156 69.5076 20.9302C69.709 20.4448 69.8645 19.8992 69.9739 19.298C70.0834 18.6952 70.1389 18.0306 70.1389 17.3057V17.266C70.1389 16.5395 70.0834 15.8765 69.9739 15.2737C69.8645 14.671 69.709 14.1269 69.5076 13.6415C69.3061 13.1561 69.0571 12.7278 68.7589 12.3583C68.4607 11.9887 68.1276 11.6809 67.758 11.4351C67.3884 11.1892 66.9871 11.0005 66.5525 10.872C66.1178 10.7419 65.6483 10.6769 65.1423 10.6769C64.6363 10.6769 64.1668 10.7419 63.7322 10.872C63.2975 11.002 62.8962 11.1892 62.5266 11.4351C62.157 11.6809 61.8239 11.9887 61.5257 12.3583C61.2275 12.7278 60.9785 13.1545 60.777 13.6415C60.5756 14.1269 60.4201 14.6726 60.3107 15.2737C60.1996 15.8765 60.1457 16.5411 60.1457 17.266V17.3057C60.1457 18.0322 60.2012 18.6952 60.3107 19.298C60.4201 19.9007 60.5756 20.4448 60.777 20.9302C60.9785 21.4156 61.2275 21.8439 61.5257 22.2135C61.8239 22.583 62.157 22.8908 62.5266 23.1366C62.8962 23.3825 63.2975 23.5713 63.7322 23.6997C64.1668 23.8298 64.6363 23.8949 65.1423 23.8949C65.6483 23.8949 66.1178 23.8298 66.5525 23.6997Z" fill="#0C2340"/>
<path fill-rule="evenodd" clip-rule="evenodd" d="M0.694122 40H7.03802V41.2139H2.08556V43.9556H6.5404V45.1696H2.08556V49.2504H0.694122V40ZM9.62442 49.1616C9.19811 48.9794 8.8352 48.729 8.53567 48.4104C8.23615 48.0919 8.00635 47.71 7.84629 47.2694C7.68623 46.8272 7.60699 46.3486 7.60699 45.832V45.8193C7.60699 45.2995 7.68623 44.8193 7.84629 44.3819C8.00635 43.9445 8.23615 43.5657 8.53567 43.244C8.8352 42.9223 9.19811 42.6719 9.62442 42.4928C10.0507 42.3138 10.5309 42.2234 11.065 42.2234C11.5991 42.2234 12.0793 42.3138 12.5087 42.4928C12.9366 42.6719 13.2995 42.9223 13.5975 43.244C13.8954 43.5657 14.1236 43.9445 14.2837 44.3819C14.4438 44.8193 14.523 45.2979 14.523 45.8193V45.832C14.523 46.3486 14.4438 46.8272 14.2837 47.2694C14.1236 47.7115 13.8954 48.0919 13.5975 48.4104C13.2995 48.729 12.9366 48.9794 12.5087 49.1616C12.0793 49.3423 11.5991 49.4342 11.065 49.4342C10.5309 49.4342 10.0507 49.3439 9.62442 49.1616ZM11.9541 48.141C12.2092 48.019 12.4232 47.8462 12.5943 47.626C12.7655 47.4057 12.8922 47.1426 12.9778 46.8383C13.0634 46.534 13.1062 46.1981 13.1062 45.832V45.8193C13.1062 45.4516 13.0634 45.1157 12.9778 44.813C12.8922 44.5087 12.7639 44.2472 12.5943 44.0285C12.4232 43.8098 12.2108 43.6386 11.9541 43.5166C11.6973 43.3946 11.4025 43.3328 11.065 43.3328C10.7274 43.3328 10.4311 43.3946 10.1759 43.5166C9.92077 43.6386 9.70683 43.8098 9.53567 44.0285C9.36452 44.2472 9.23773 44.5087 9.15215 44.813C9.06657 45.1172 9.02379 45.4532 9.02379 45.8193V45.832C9.02379 46.1997 9.06657 46.5356 9.15215 46.8383C9.23773 47.141 9.3661 47.4041 9.53567 47.626C9.70683 47.8462 9.91919 48.019 10.1759 48.141C10.4327 48.263 10.7274 48.3249 11.065 48.3249C11.4025 48.3249 11.6973 48.263 11.9541 48.141ZM16.3613 48.4104C16.6609 48.729 17.0238 48.9794 17.4501 49.1616C17.8764 49.3439 18.3566 49.4342 18.8907 49.4342C19.4247 49.4342 19.9049 49.3423 20.3344 49.1616C20.7623 48.9794 21.1252 48.729 21.4231 48.4104C21.7211 48.0919 21.9493 47.7115 22.1094 47.2694C22.2694 46.8272 22.3487 46.3486 22.3487 45.832V45.8193C22.3487 45.2979 22.2694 44.8193 22.1094 44.3819C21.9493 43.9445 21.7211 43.5657 21.4231 43.244C21.1252 42.9223 20.7623 42.6719 20.3344 42.4928C19.9049 42.3138 19.4247 42.2234 18.8907 42.2234C18.3566 42.2234 17.8764 42.3138 17.4501 42.4928C17.0238 42.6719 16.6609 42.9223 16.3613 43.244C16.0618 43.5657 15.832 43.9445 15.672 44.3819C15.5119 44.8193 15.4327 45.2995 15.4327 45.8193V45.832C15.4327 46.3486 15.5119 46.8272 15.672 47.2694C15.832 47.71 16.0618 48.0919 16.3613 48.4104ZM20.42 47.626C20.2488 47.8462 20.0349 48.019 19.7797 48.141C19.523 48.263 19.2282 48.3249 18.8907 48.3249C18.5531 48.3249 18.2583 48.263 18.0016 48.141C17.7449 48.019 17.5325 47.8462 17.3613 47.626C17.1918 47.4041 17.0634 47.141 16.9778 46.8383C16.8922 46.5356 16.8495 46.1997 16.8495 45.832V45.8193C16.8495 45.4532 16.8922 45.1172 16.9778 44.813C17.0634 44.5087 17.1902 44.2472 17.3613 44.0285C17.5325 43.8098 17.7464 43.6386 18.0016 43.5166C18.2567 43.3946 18.5531 43.3328 18.8907 43.3328C19.2282 43.3328 19.523 43.3946 19.7797 43.5166C20.0365 43.6386 20.2488 43.8098 20.42 44.0285C20.5895 44.2472 20.7179 44.5087 20.8035 44.813C20.8891 45.1157 20.9319 45.4516 20.9319 45.8193V45.832C20.9319 46.1981 20.8891 46.534 20.8035 46.8383C20.7179 47.1426 20.5911 47.4057 20.42 47.626ZM24.8669 49.149C24.6197 49.0808 24.4247 48.9699 24.2805 48.8146C24.1363 48.6593 24.0349 48.4533 23.9794 48.1981C23.9224 47.943 23.8938 47.6292 23.8938 47.2568V43.5563H22.8447V42.4152H23.8938V40.2504H25.2314V42.4152H26.6941V43.5563H25.2314V47.2298C25.2314 47.3915 25.2393 47.5293 25.2583 47.6434C25.2758 47.7575 25.3122 47.8479 25.3693 47.916C25.4263 47.9842 25.5087 48.0333 25.6149 48.0634C25.7227 48.0935 25.8637 48.1094 26.038 48.1094H26.6418V49.2504H25.8146C25.4295 49.2504 25.1141 49.2171 24.8669 49.149ZM28.8415 42.4135H27.4564H27.4548L29.5547 49.2503H31.0697L32.7156 43.8442L34.4612 49.2503H35.9635L38.0697 42.4135H36.7908L35.1793 47.8235L33.4786 42.4135H32.0491L30.4191 47.8192L28.8415 42.4135ZM40.0349 48.951C40.2884 49.1053 40.5716 49.2252 40.8846 49.3076H40.8827C41.1981 49.3916 41.5372 49.4328 41.9001 49.4328C42.3471 49.4328 42.748 49.3805 43.1046 49.2759C43.4612 49.1713 43.7734 49.0239 44.0459 48.8337C44.3185 48.6436 44.5436 48.4185 44.7258 48.1554C44.9081 47.8939 45.0444 47.6071 45.1363 47.2965H43.7718C43.7068 47.4581 43.6228 47.6039 43.5198 47.7323C43.4168 47.8623 43.2916 47.97 43.1426 48.0604C42.9936 48.1491 42.8193 48.2172 42.6212 48.2632C42.4231 48.3092 42.1965 48.3313 41.9429 48.3313C41.7242 48.3313 41.5198 48.3044 41.3296 48.2489C41.1395 48.1951 40.9651 48.1142 40.8082 48.0096C40.6497 47.905 40.5119 47.7783 40.3914 47.6293C40.2726 47.4803 40.1696 47.3123 40.0872 47.1269C40.0047 46.9415 39.9414 46.7371 39.9002 46.5136C39.8825 46.4177 39.8686 46.3194 39.8585 46.2188H45.2393V46.2125C45.2536 45.829 45.2298 45.4613 45.1711 45.1142C45.1125 44.7672 45.0174 44.4455 44.8891 44.1507C44.7607 43.8559 44.599 43.5897 44.4041 43.3535C44.2092 43.1174 43.9857 42.9146 43.7322 42.7466C43.4786 42.5786 43.1949 42.4502 42.8827 42.3599C42.5689 42.2695 42.2314 42.2252 41.8685 42.2252C41.3787 42.2252 40.9239 42.3107 40.504 42.4803C40.084 42.6499 39.7211 42.8924 39.4152 43.2046C39.1093 43.5168 38.87 43.8924 38.6973 44.3298C38.523 44.7672 38.4374 45.2553 38.4374 45.7925V45.8052C38.4374 46.1507 38.4723 46.4803 38.542 46.7925C38.6133 47.1063 38.7147 47.3979 38.851 47.6657C38.9873 47.9336 39.1537 48.176 39.3534 48.3932C39.5515 48.6103 39.7797 48.7957 40.0349 48.951ZM39.973 44.68C39.931 44.8203 39.8986 44.9724 39.8761 45.1364H43.8225V45.1301C43.8098 44.9558 43.7797 44.7862 43.7337 44.6245C43.6878 44.4629 43.6244 44.3139 43.5436 44.1776C43.4627 44.0429 43.3661 43.9193 43.2551 43.81C43.1442 43.7006 43.0174 43.6071 42.8748 43.5279C42.7322 43.4486 42.5769 43.3884 42.4089 43.3472C42.2409 43.306 42.0586 43.2854 41.8605 43.2854C41.5547 43.2854 41.2757 43.3361 41.0238 43.4359C40.7718 43.5374 40.5578 43.6911 40.3803 43.8987C40.2028 44.1063 40.0681 44.3662 39.973 44.68ZM46.7987 48.8858C47.0238 49.0633 47.29 49.1996 47.599 49.2931V49.2883C47.9065 49.3818 48.2409 49.4293 48.599 49.4293C48.8827 49.4293 49.1379 49.4087 49.3629 49.3644C49.588 49.32 49.7892 49.2614 49.9667 49.1869C50.1442 49.1124 50.3011 49.0221 50.439 48.9175C50.5769 48.8129 50.7005 48.6988 50.8098 48.5767C50.813 48.6465 50.8177 48.7099 50.8225 48.7669C50.8257 48.824 50.832 48.8794 50.8415 48.9317C50.8458 48.9555 50.8498 48.9789 50.8538 49.0021C50.8585 49.0301 50.8633 49.0578 50.8685 49.0855C50.8749 49.1188 50.8806 49.1543 50.8866 49.1915L50.8867 49.1919L50.8867 49.1922L50.8868 49.1924L50.8868 49.1928L50.8954 49.2455H52.2266C52.187 49.0839 52.1537 48.9222 52.1252 48.7574C52.0967 48.5942 52.0761 48.4214 52.0602 48.2392C52.0444 48.0585 52.0349 47.8652 52.0301 47.6591C52.0254 47.4547 52.0238 47.2265 52.0238 46.9777L52.0364 44.4658C52.0364 44.0458 51.9746 43.6908 51.8494 43.4024C51.7258 43.114 51.5467 42.881 51.3122 42.7067C51.0792 42.5324 50.7924 42.4056 50.4532 42.3295C50.1141 42.2534 49.7338 42.2154 49.309 42.2154C48.9192 42.2154 48.5483 42.2614 48.1933 42.3533C47.8383 42.4452 47.5277 42.5847 47.2615 42.7701C46.9952 42.9555 46.7829 43.1916 46.626 43.4785C46.4691 43.7653 46.3899 44.1061 46.3899 44.4991H47.729C47.7385 44.2804 47.7813 44.0934 47.8605 43.9381C47.9398 43.7828 48.0475 43.6544 48.1854 43.5514C48.3217 43.4484 48.4865 43.3723 48.6767 43.3248C48.8669 43.2756 49.084 43.2519 49.3027 43.2519C49.5214 43.2519 49.7195 43.2725 49.8938 43.3137C50.0681 43.3549 50.2171 43.4183 50.3391 43.5038C50.4612 43.5894 50.5563 43.694 50.6212 43.8192C50.6862 43.9428 50.7195 44.0902 50.7195 44.2614V44.274C50.7195 44.4008 50.7068 44.507 50.6799 44.5894C50.6529 44.6734 50.5959 44.7447 50.5055 44.8034C50.4168 44.862 50.2884 44.9111 50.122 44.9507C49.9556 44.9904 49.7306 45.03 49.4469 45.0696C49.0745 45.1187 48.7338 45.1758 48.4231 45.2408C48.1125 45.3057 47.832 45.3834 47.5832 45.4737C47.3344 45.5641 47.1157 45.6655 46.9271 45.7828C46.7385 45.9 46.5832 46.0332 46.458 46.1869C46.3328 46.339 46.2393 46.5133 46.1759 46.7083C46.1125 46.9032 46.0808 47.1203 46.0808 47.3612V47.3739C46.0808 47.6924 46.1442 47.9793 46.271 48.236C46.3978 48.4927 46.5737 48.7083 46.7987 48.8858ZM49.8494 48.2154C49.7163 48.2709 49.5705 48.3121 49.4105 48.3406C49.2504 48.3691 49.0824 48.3834 48.9081 48.3834C48.6846 48.3834 48.4849 48.3612 48.3106 48.3152C48.1363 48.2693 47.9889 48.2011 47.8685 48.1092C47.748 48.0173 47.6561 47.9048 47.5927 47.7717C47.5293 47.6385 47.4976 47.4864 47.4976 47.3152V47.3089C47.4976 47.1964 47.5103 47.095 47.5372 47.0078C47.5642 46.9206 47.607 46.8398 47.6656 46.7653C47.7242 46.6908 47.8019 46.6243 47.8986 46.5656C47.9952 46.5054 48.1141 46.4499 48.2536 46.3945C48.393 46.339 48.5563 46.2851 48.7417 46.2297C48.9287 46.1742 49.141 46.1187 49.3819 46.0617C49.4447 46.0447 49.5081 46.0284 49.5721 46.012L49.5729 46.0118L49.5744 46.0114C49.6114 46.0018 49.6487 45.9922 49.6862 45.9824C49.7892 45.9555 49.8954 45.927 50.0047 45.8969C50.1141 45.8668 50.2282 45.8335 50.3486 45.7954C50.4691 45.7574 50.5943 45.7178 50.7258 45.6734V46.9127C50.7258 47.0759 50.7052 47.2233 50.664 47.3596C50.6212 47.4959 50.5642 47.6179 50.4897 47.7273C50.4152 47.8366 50.3233 47.9317 50.2139 48.0125C50.1046 48.0934 49.9826 48.1615 49.8494 48.2154ZM53.7116 42.4135H55.0507V43.6275C55.1506 43.4309 55.271 43.2519 55.4121 43.0934C55.5515 42.9333 55.7132 42.7986 55.897 42.6861C56.0808 42.5752 56.2869 42.4896 56.5135 42.4294C56.7401 42.3707 56.9873 42.3406 57.2552 42.3406H57.3804V43.6465H57.019C56.7084 43.6465 56.4311 43.6829 56.1886 43.7574C55.9461 43.8319 55.7401 43.9492 55.5721 44.1124C55.4041 44.274 55.2742 44.4848 55.1854 44.7416C55.0951 44.9999 55.0507 45.3121 55.0507 45.6798V49.2487H53.7116V42.4135ZM62.9414 42.4135H61.6022V49.2487H62.9414V45.6798C62.9414 45.3121 62.9857 44.9999 63.0761 44.7416C63.1648 44.4848 63.2948 44.274 63.4628 44.1124C63.6307 43.9492 63.8368 43.8319 64.0792 43.7574C64.3217 43.6829 64.599 43.6465 64.9097 43.6465H65.271V42.3406H65.1458C64.878 42.3406 64.6307 42.3707 64.4041 42.4294C64.1775 42.4896 63.9715 42.5752 63.7876 42.6861C63.6038 42.7986 63.4422 42.9333 63.3027 43.0934C63.1617 43.2519 63.0412 43.4309 62.9414 43.6275V42.4135ZM67.3661 48.951C67.6196 49.1053 67.9029 49.2252 68.2158 49.3076H68.214C68.5293 49.3916 68.8685 49.4328 69.2314 49.4328C69.6783 49.4328 70.0792 49.3805 70.4358 49.2759C70.7924 49.1713 71.1046 49.0239 71.3772 48.8337C71.6498 48.6436 71.8748 48.4185 72.0571 48.1554C72.2393 47.8939 72.3756 47.6071 72.4675 47.2965H71.103C71.038 47.4581 70.954 47.6039 70.851 47.7323C70.748 47.8623 70.6228 47.97 70.4739 48.0604C70.3249 48.1491 70.1506 48.2172 69.9525 48.2632C69.7544 48.3092 69.5277 48.3313 69.2742 48.3313C69.0555 48.3313 68.851 48.3044 68.6609 48.2489C68.4707 48.1951 68.2964 48.1142 68.1395 48.0096C67.981 47.905 67.8431 47.7783 67.7227 47.6293C67.6038 47.4803 67.5008 47.3123 67.4184 47.1269C67.336 46.9415 67.2726 46.7371 67.2314 46.5136C67.2137 46.4177 67.1998 46.3194 67.1897 46.2188H72.5705V46.2125C72.5848 45.829 72.561 45.4613 72.5024 45.1142C72.4437 44.7672 72.3487 44.4455 72.2203 44.1507C72.0919 43.8559 71.9303 43.5897 71.7353 43.3535C71.5404 43.1174 71.317 42.9146 71.0634 42.7466C70.8098 42.5786 70.5262 42.4502 70.214 42.3599C69.9002 42.2695 69.5626 42.2252 69.1997 42.2252C68.71 42.2252 68.2552 42.3107 67.8352 42.4803C67.4152 42.6499 67.0523 42.8924 66.7464 43.2046C66.4406 43.5168 66.2013 43.8924 66.0285 44.3298C65.8542 44.7672 65.7686 45.2553 65.7686 45.7925V45.8052C65.7686 46.1507 65.8035 46.4803 65.8732 46.7925C65.9445 47.1063 66.046 47.3979 66.1823 47.6657C66.3186 47.9336 66.4849 48.176 66.6846 48.3932C66.8827 48.6103 67.1109 48.7957 67.3661 48.951ZM67.3043 44.68C67.2623 44.8203 67.2299 44.9724 67.2073 45.1364H71.1537V45.1301C71.1411 44.9558 71.1109 44.7862 71.065 44.6245C71.019 44.4629 70.9556 44.3139 70.8748 44.1776C70.794 44.0429 70.6973 43.9193 70.5864 43.81C70.4754 43.7006 70.3487 43.6071 70.206 43.5279C70.0634 43.4486 69.9081 43.3884 69.7401 43.3472C69.5721 43.306 69.3899 43.2854 69.1918 43.2854C68.8859 43.2854 68.607 43.3361 68.355 43.4359C68.103 43.5374 67.8891 43.6911 67.7116 43.8987C67.5341 44.1063 67.3994 44.3662 67.3043 44.68ZM74.2488 42.4135H72.7924L75.5214 49.2503H77.0301L79.7528 42.4135H78.4342L76.3135 47.8981L74.2488 42.4135ZM82.0111 49.1616C81.5848 48.9794 81.2219 48.729 80.9223 48.4104C80.6228 48.0919 80.393 47.71 80.2329 47.2694C80.0729 46.8272 79.9936 46.3486 79.9936 45.832V45.8193C79.9936 45.2995 80.0729 44.8193 80.2329 44.3819C80.393 43.9445 80.6228 43.5657 80.9223 43.244C81.2219 42.9223 81.5848 42.6719 82.0111 42.4928C82.4374 42.3138 82.9176 42.2234 83.4516 42.2234C83.9857 42.2234 84.4659 42.3138 84.8954 42.4928C85.3233 42.6719 85.6862 42.9223 85.9841 43.244C86.2821 43.5657 86.5103 43.9445 86.6703 44.3819C86.8304 44.8193 86.9096 45.2979 86.9096 45.8193V45.832C86.9096 46.3486 86.8304 46.8272 86.6703 47.2694C86.5103 47.7115 86.2821 48.0919 85.9841 48.4104C85.6862 48.729 85.3233 48.9794 84.8954 49.1616C84.4659 49.3423 83.9857 49.4342 83.4516 49.4342C82.9176 49.4342 82.4374 49.3439 82.0111 49.1616ZM84.3407 48.141C84.5959 48.019 84.8098 47.8462 84.981 47.626C85.1521 47.4057 85.2789 47.1426 85.3645 46.8383C85.4501 46.534 85.4928 46.1981 85.4928 45.832V45.8193C85.4928 45.4516 85.4501 45.1157 85.3645 44.813C85.2789 44.5087 85.1505 44.2472 84.981 44.0285C84.8098 43.8098 84.5975 43.6386 84.3407 43.5166C84.084 43.3946 83.7892 43.3328 83.4516 43.3328C83.1141 43.3328 82.8177 43.3946 82.5626 43.5166C82.3074 43.6386 82.0935 43.8098 81.9223 44.0285C81.7512 44.2472 81.6244 44.5087 81.5388 44.813C81.4532 45.1172 81.4104 45.4532 81.4104 45.8193V45.832C81.4104 46.1997 81.4532 46.5356 81.5388 46.8383C81.6244 47.141 81.7528 47.4041 81.9223 47.626C82.0935 47.8462 82.3058 48.019 82.5626 48.141C82.8193 48.263 83.1141 48.3249 83.4516 48.3249C83.7892 48.3249 84.084 48.263 84.3407 48.141ZM89.5658 40H88.2266V49.2504H89.5658V40ZM92.6434 49.2297C92.3328 49.0934 92.0729 48.9 91.8653 48.6465C91.6577 48.3929 91.5008 48.0839 91.3962 47.721C91.2916 47.358 91.2393 46.9492 91.2393 46.4943V42.4135H92.5784V46.2122C92.5784 46.5498 92.6117 46.8477 92.6799 47.1076C92.748 47.3675 92.8479 47.5862 92.981 47.7637C93.1141 47.9412 93.2821 48.0744 93.4865 48.1631C93.6894 48.2534 93.9271 48.2978 94.1981 48.2978C94.4691 48.2978 94.7068 48.2534 94.9097 48.1631C95.1125 48.0728 95.2805 47.9397 95.4152 47.7637C95.5483 47.5862 95.6482 47.3675 95.7131 47.1076C95.7781 46.8477 95.8114 46.5482 95.8114 46.2122V42.4135H97.1505V49.2503H95.8114V48.4309C95.6973 48.5799 95.5737 48.7162 95.4374 48.8414C95.3011 48.9666 95.149 49.0728 94.981 49.1599C94.813 49.2471 94.626 49.3152 94.42 49.3628C94.2139 49.4103 93.9842 49.4357 93.7306 49.4357C93.3154 49.4357 92.9524 49.3675 92.6418 49.2328V49.2297H92.6434ZM99.6054 48.8146C99.7496 48.9699 99.9445 49.0808 100.192 49.149C100.439 49.2171 100.754 49.2504 101.139 49.2504H101.967V48.1094H101.363C101.189 48.1094 101.048 48.0935 100.94 48.0634C100.834 48.0333 100.751 47.9842 100.694 47.916C100.637 47.8479 100.601 47.7575 100.583 47.6434C100.564 47.5293 100.556 47.3915 100.556 47.2298V43.5563H102.019V42.4152H100.556V40.2504H99.2187V42.4152H98.1696V43.5563H99.2187V47.2568C99.2187 47.6292 99.2472 47.943 99.3043 48.1981C99.3598 48.4533 99.4612 48.6593 99.6054 48.8146ZM103.192 40H104.531V41.5214H103.192V40ZM103.192 42.4136H104.531V49.2504H103.192V42.4136ZM106.799 48.4104C107.098 48.729 107.461 48.9794 107.887 49.1616C108.314 49.3439 108.794 49.4342 109.328 49.4342C109.862 49.4342 110.342 49.3423 110.772 49.1616C111.2 48.9794 111.563 48.729 111.861 48.4104C112.158 48.0919 112.387 47.7115 112.547 47.2694C112.707 46.8272 112.786 46.3486 112.786 45.832V45.8193C112.786 45.2979 112.707 44.8193 112.547 44.3819C112.387 43.9445 112.158 43.5657 111.861 43.244C111.563 42.9223 111.2 42.6719 110.772 42.4928C110.342 42.3138 109.862 42.2234 109.328 42.2234C108.794 42.2234 108.314 42.3138 107.887 42.4928C107.461 42.6719 107.098 42.9223 106.799 43.244C106.499 43.5657 106.269 43.9445 106.109 44.3819C105.949 44.8193 105.87 45.2995 105.87 45.8193V45.832C105.87 46.3486 105.949 46.8272 106.109 47.2694C106.269 47.71 106.499 48.0919 106.799 48.4104ZM110.857 47.626C110.686 47.8462 110.472 48.019 110.217 48.141C109.96 48.263 109.666 48.3249 109.328 48.3249C108.991 48.3249 108.696 48.263 108.439 48.141C108.182 48.019 107.97 47.8462 107.799 47.626C107.629 47.4041 107.501 47.141 107.415 46.8383C107.33 46.5356 107.287 46.1997 107.287 45.832V45.8193C107.287 45.4532 107.33 45.1172 107.415 44.813C107.501 44.5087 107.628 44.2472 107.799 44.0285C107.97 43.8098 108.184 43.6386 108.439 43.5166C108.694 43.3946 108.991 43.3328 109.328 43.3328C109.666 43.3328 109.96 43.3946 110.217 43.5166C110.474 43.6386 110.686 43.8098 110.857 44.0285C111.027 44.2472 111.155 44.5087 111.241 44.813C111.326 45.1157 111.369 45.4516 111.369 45.8193V45.832C111.369 46.1981 111.326 46.534 111.241 46.8383C111.155 47.1426 111.029 47.4057 110.857 47.626ZM114.089 42.4137H115.426V43.2331C115.54 43.0793 115.664 42.943 115.8 42.8194C115.937 42.6958 116.087 42.5928 116.257 42.5041C116.425 42.4169 116.612 42.3488 116.818 42.3012C117.024 42.2537 117.254 42.2283 117.507 42.2283C117.922 42.2283 118.285 42.2965 118.596 42.4312C118.907 42.5675 119.165 42.7608 119.374 43.0144C119.582 43.2679 119.739 43.577 119.843 43.9399C119.948 44.3028 120 44.7117 120 45.1665V49.2473H118.661V45.4486C118.661 45.1126 118.628 44.8131 118.563 44.5532C118.498 44.2933 118.396 44.0746 118.262 43.8971C118.125 43.7196 117.957 43.5865 117.753 43.4961C117.55 43.4058 117.312 43.3614 117.041 43.3614C116.77 43.3614 116.533 43.4058 116.33 43.4961C116.127 43.5865 115.957 43.7196 115.824 43.8971C115.691 44.0746 115.591 44.2933 115.526 44.5532C115.461 44.8131 115.428 45.1126 115.428 45.4486V49.2473H114.089V42.4137ZM0.930269 60.6162C1.19334 60.808 1.50555 60.9554 1.86846 61.0552H1.87005V61.052C2.23296 61.1519 2.64025 61.2026 3.09033 61.2026C3.35658 61.2026 3.61173 61.182 3.85737 61.1408C4.10301 61.0996 4.32964 61.0378 4.54041 60.957C4.7496 60.8761 4.94136 60.7763 5.11093 60.6559C5.28051 60.5354 5.42631 60.396 5.54675 60.2391C5.66719 60.0822 5.7607 59.9062 5.82567 59.7145C5.89065 59.5227 5.92393 59.3151 5.92393 59.0917V59.079C5.92393 58.7557 5.86371 58.4831 5.74326 58.2597C5.62282 58.0362 5.45642 57.8492 5.24406 57.6955C5.0317 57.5433 4.78288 57.4165 4.49604 57.3183C4.20919 57.22 3.90174 57.136 3.57369 57.0663L2.57686 56.8492C2.41204 56.8143 2.26308 56.77 2.13154 56.7177C2 56.6654 1.89065 56.602 1.80032 56.5275C1.71157 56.453 1.64184 56.3658 1.5943 56.2644C1.54517 56.1646 1.52139 56.0489 1.52139 55.9173V55.9047C1.52139 55.7652 1.55467 55.64 1.62282 55.5307C1.69097 55.4213 1.78288 55.3278 1.90174 55.2517C2.0206 55.1741 2.16165 55.1154 2.32488 55.0742C2.48812 55.033 2.66402 55.0124 2.85261 55.0124C2.98415 55.0124 3.10935 55.0188 3.22979 55.0314C3.35024 55.0441 3.46276 55.0663 3.56735 55.0964C3.67195 55.1281 3.76862 55.1677 3.85578 55.2185C3.94295 55.2692 4.02219 55.331 4.09192 55.4055C4.16165 55.4799 4.22187 55.5671 4.26941 55.6654C4.31696 55.7636 4.35182 55.8777 4.37401 56.0093H5.71315C5.66561 55.6559 5.56577 55.35 5.41204 55.0948C5.25832 54.8397 5.06022 54.6305 4.81775 54.4689C4.57528 54.3072 4.29319 54.1868 3.97147 54.1107C3.65135 54.0346 3.30428 53.9966 2.91918 53.9966C2.53407 53.9966 2.17591 54.0441 1.84311 54.1408C1.51189 54.2375 1.22187 54.3722 0.977813 54.5449C0.733756 54.7177 0.540412 54.9253 0.400951 55.1677C0.259905 55.4102 0.190174 55.678 0.190174 55.9712V55.9839C0.190174 56.2723 0.240888 56.5275 0.340729 56.7509C0.442156 56.9744 0.580032 57.1646 0.757528 57.3246C0.933439 57.4847 1.14422 57.6178 1.38669 57.7256C1.62916 57.8318 1.89065 57.9158 2.17116 57.9776L3.17432 58.1947C3.38035 58.2391 3.56894 58.2866 3.74168 58.3389C3.91442 58.3912 4.06339 58.4562 4.18859 58.5354C4.3122 58.6131 4.41046 58.7097 4.48019 58.8238C4.54992 58.9379 4.58479 59.079 4.58479 59.2501V59.2628C4.58479 59.3674 4.56894 59.4625 4.53566 59.5481C4.50238 59.6337 4.45642 59.7113 4.39778 59.7811C4.33756 59.8508 4.26466 59.9094 4.1775 59.9585C4.09033 60.0077 3.99366 60.0489 3.88589 60.0837C3.77813 60.1202 3.65927 60.144 3.5309 60.1598C3.40095 60.1741 3.26624 60.182 3.12678 60.182C2.87797 60.182 2.65135 60.1598 2.4485 60.1139C2.24564 60.0679 2.06814 59.995 1.91442 59.8936C1.7607 59.7937 1.6355 59.6638 1.53724 59.5069C1.43899 59.35 1.37242 59.1598 1.33756 58.9364H0C0.0427892 59.2993 0.144216 59.6226 0.30111 59.9047C0.458003 60.1868 0.667194 60.4245 0.930269 60.6162ZM8.53248 60.9208C8.28526 60.8526 8.09032 60.7417 7.94611 60.5864C7.80189 60.4311 7.70047 60.225 7.645 59.9699C7.58795 59.7131 7.55942 59.4009 7.55942 59.0285V55.328H6.51029V54.187H7.55942V52.0222H8.89698V54.187H10.3597V55.328H8.89698V59.0016C8.89698 59.1632 8.90491 59.3011 8.92392 59.4152C8.94136 59.5293 8.97781 59.6196 9.03486 59.6878C9.09191 59.7559 9.17432 59.8051 9.2805 59.8352C9.38827 59.8653 9.52931 59.8811 9.70364 59.8811H10.3074V61.0222H9.48018C9.09508 61.0222 8.77971 60.9889 8.53248 60.9208ZM11.8922 60.6579C12.1173 60.8354 12.3835 60.9717 12.6926 61.0652V61.0636C13 61.1571 13.3344 61.2046 13.6926 61.2046C13.9762 61.2046 14.2314 61.184 14.4564 61.1397C14.6815 61.0953 14.8827 61.0366 15.0602 60.9622C15.2377 60.8877 15.3946 60.7973 15.5325 60.6927C15.6704 60.5881 15.794 60.474 15.9033 60.352C15.9052 60.3931 15.9082 60.4326 15.911 60.4694L15.911 60.4695C15.9129 60.4951 15.9147 60.5195 15.916 60.5422C15.9192 60.5977 15.9255 60.6531 15.935 60.7054C15.9393 60.7291 15.9433 60.7525 15.9473 60.7757C15.9521 60.8037 15.9568 60.8314 15.962 60.8591C15.9685 60.8928 15.9743 60.9288 15.9803 60.9665L15.9889 61.0192H17.3201C17.2805 60.8576 17.2472 60.6959 17.2187 60.5311C17.1902 60.3679 17.1696 60.1951 17.1537 60.0129C17.1379 59.8322 17.13 59.6389 17.1236 59.4328C17.1173 59.2269 17.1173 58.9987 17.1173 58.75V58.7498L17.13 56.2379C17.13 55.8179 17.0682 55.4629 16.943 55.1745C16.8193 54.8861 16.6403 54.6531 16.4057 54.4788C16.1728 54.3045 15.8859 54.1777 15.5468 54.1016C15.2076 54.0255 14.8273 53.9875 14.4025 53.9875C14.0127 53.9875 13.6419 54.0335 13.2869 54.1254C12.9319 54.2173 12.6212 54.3568 12.355 54.5422C12.0888 54.7276 11.8764 54.9637 11.7195 55.2506C11.5626 55.5374 11.4834 55.8782 11.4834 56.2712H12.8225C12.832 56.0525 12.8748 55.8655 12.9541 55.7102C13.0333 55.5549 13.1426 55.4265 13.2789 55.3235C13.4152 55.2205 13.58 55.1444 13.7702 55.0969C13.9604 55.0477 14.1775 55.024 14.3962 55.024C14.6149 55.024 14.813 55.0446 14.9873 55.0858C15.1617 55.127 15.3106 55.1904 15.4327 55.2759C15.5547 55.3615 15.6498 55.4661 15.7147 55.5913C15.7797 55.7149 15.813 55.8623 15.813 56.0335V56.0461C15.813 56.1729 15.8003 56.2791 15.7734 56.3615C15.7464 56.4455 15.6878 56.5168 15.5991 56.5755C15.5103 56.6341 15.3819 56.6832 15.2155 56.7229C15.0491 56.7625 14.8241 56.8021 14.5404 56.8417C14.168 56.8908 13.8273 56.9479 13.5167 57.0129C13.206 57.0778 12.9255 57.1555 12.6767 57.2458C12.4279 57.3362 12.2092 57.4392 12.0206 57.5549C11.832 57.6721 11.6767 57.8053 11.5515 57.959C11.4263 58.1127 11.3328 58.2855 11.2694 58.4804C11.206 58.6753 11.1743 58.8924 11.1743 59.1333V59.146C11.1743 59.4645 11.2377 59.7514 11.3645 60.0081C11.4913 60.2649 11.6672 60.4804 11.8922 60.6579ZM14.9414 59.9875C14.8083 60.043 14.6625 60.0842 14.5024 60.1127V60.1111C14.3423 60.1397 14.1743 60.1539 14 60.1539C13.7766 60.1539 13.5769 60.1317 13.4025 60.0858C13.2282 60.0398 13.0808 59.9717 12.9604 59.8797C12.8399 59.7878 12.748 59.6753 12.6846 59.5422C12.6212 59.4091 12.5896 59.2569 12.5896 59.0858V59.0794C12.5896 58.9669 12.6022 58.8655 12.6292 58.7783C12.6561 58.6912 12.6989 58.6103 12.7575 58.5359C12.8162 58.4614 12.8938 58.3948 12.9905 58.3362C13.0872 58.2759 13.206 58.2205 13.3455 58.165C13.485 58.1111 13.6466 58.0572 13.8336 58.0018C14.0206 57.9463 14.233 57.8908 14.4739 57.8338C14.5362 57.817 14.5991 57.8008 14.6627 57.7844L14.6627 57.7844L14.6628 57.7844L14.6629 57.7844L14.6634 57.7842L14.6638 57.7841L14.664 57.7841C14.7019 57.7743 14.7399 57.7646 14.7781 57.7545C14.8812 57.7276 14.9873 57.6991 15.0967 57.669C15.1959 57.6417 15.299 57.6104 15.4072 57.5776L15.4406 57.5675C15.561 57.5295 15.6862 57.4899 15.8178 57.4455V58.6848C15.8178 58.8481 15.7972 58.9954 15.756 59.1317C15.7132 59.268 15.6561 59.39 15.5816 59.4994C15.5071 59.6087 15.4152 59.7038 15.3059 59.7847C15.1965 59.8655 15.0745 59.932 14.9414 59.9875ZM18.8035 54.1854H20.1426V55.3994C20.2425 55.2029 20.3629 55.0238 20.504 54.8653C20.6434 54.7052 20.8051 54.5705 20.9889 54.458C21.1727 54.3455 21.3788 54.2615 21.6054 54.2029C21.832 54.1442 22.0792 54.1141 22.3471 54.1141H22.4723V55.42H22.1109C21.8003 55.42 21.523 55.458 21.2805 55.5309C21.038 55.6054 20.832 55.7227 20.664 55.8859C20.496 56.0476 20.3661 56.2583 20.2773 56.5151C20.187 56.7734 20.1426 57.0856 20.1426 57.4533V61.0222H18.8035V54.187V54.1854ZM24.0047 60.6162C24.2678 60.808 24.58 60.9554 24.9429 61.0552H24.9445V61.052C25.3074 61.1519 25.7147 61.2026 26.1648 61.2026C26.431 61.2026 26.6862 61.182 26.9318 61.1408C27.1775 61.0996 27.4041 61.0378 27.6149 60.957C27.8241 60.8761 28.0158 60.7763 28.1854 60.6559C28.355 60.5354 28.5008 60.396 28.6212 60.2391C28.7417 60.0822 28.8352 59.9062 28.9001 59.7145C28.9651 59.5227 28.9984 59.3151 28.9984 59.0917V59.079C28.9984 58.7557 28.9382 58.4831 28.8177 58.2597C28.6973 58.0362 28.5309 57.8492 28.3185 57.6955C28.1062 57.5433 27.8574 57.4165 27.5705 57.3183C27.2837 57.22 26.9762 57.136 26.6482 57.0663L25.6513 56.8492C25.4865 56.8143 25.3375 56.77 25.206 56.7177C25.0745 56.6654 24.9651 56.602 24.8748 56.5275C24.786 56.453 24.7163 56.3658 24.6688 56.2644C24.6196 56.1646 24.5959 56.0489 24.5959 55.9173V55.9047C24.5959 55.7652 24.6291 55.64 24.6973 55.5307C24.7654 55.4213 24.8574 55.3278 24.9762 55.2517C25.0951 55.1741 25.2361 55.1154 25.3994 55.0742C25.5626 55.033 25.7385 55.0124 25.9271 55.0124C26.0586 55.0124 26.1838 55.0188 26.3043 55.0314C26.4247 55.0441 26.5372 55.0663 26.6418 55.0964C26.7464 55.1281 26.8431 55.1677 26.9303 55.2185C27.0174 55.2692 27.0967 55.331 27.1664 55.4055C27.2361 55.4799 27.2963 55.5671 27.3439 55.6654C27.3914 55.7636 27.4263 55.8777 27.4485 56.0093H28.7876C28.7401 55.6559 28.6402 55.35 28.4865 55.0948C28.3328 54.8397 28.1347 54.6305 27.8922 54.4689C27.6497 54.3072 27.3677 54.1868 27.0459 54.1107C26.7258 54.0346 26.3788 53.9966 25.9937 53.9966C25.6085 53.9966 25.2504 54.0441 24.9176 54.1408C24.5864 54.2375 24.2963 54.3722 24.0523 54.5449C23.8082 54.7177 23.6149 54.9253 23.4754 55.1677C23.3344 55.4102 23.2646 55.678 23.2646 55.9712V55.9839C23.2646 56.2723 23.3154 56.5275 23.4152 56.7509C23.5166 56.9744 23.6545 57.1646 23.832 57.3246C24.0079 57.4847 24.2187 57.6178 24.4612 57.7256C24.7036 57.8318 24.9651 57.9158 25.2456 57.9776L26.2488 58.1947C26.4548 58.2391 26.6434 58.2866 26.8162 58.3389C26.9889 58.3912 27.1379 58.4562 27.2631 58.5354C27.3867 58.6131 27.4849 58.7097 27.5547 58.8238C27.6244 58.9379 27.6593 59.079 27.6593 59.2501V59.2628C27.6593 59.3674 27.6434 59.4625 27.6101 59.5481C27.5768 59.6337 27.5309 59.7113 27.4723 59.7811C27.412 59.8508 27.3391 59.9094 27.252 59.9585C27.1648 60.0077 27.0681 60.0489 26.9604 60.0837C26.8526 60.1202 26.7337 60.144 26.6054 60.1598C26.4754 60.1741 26.3407 60.182 26.2013 60.182C25.9524 60.182 25.7258 60.1598 25.523 60.1139C25.3201 60.0679 25.1426 59.995 24.9889 59.8936C24.8352 59.7937 24.71 59.6638 24.6117 59.5069C24.5135 59.35 24.4469 59.1598 24.412 58.9364H23.0745C23.1173 59.2993 23.2187 59.6226 23.3756 59.9047C23.5325 60.1868 23.7417 60.4245 24.0047 60.6162ZM33.4833 51.7716H33.4849V61.0204H34.8241V57.2217C34.8241 56.8857 34.8574 56.5862 34.9223 56.3263C34.9873 56.0664 35.0871 55.8477 35.2203 55.6702C35.3534 55.4927 35.523 55.3596 35.7258 55.2692C35.9287 55.1789 36.1664 55.1345 36.4374 55.1345C36.7084 55.1345 36.9461 55.1805 37.149 55.2692C37.3534 55.3596 37.5214 55.4927 37.6577 55.6702C37.7924 55.8477 37.8938 56.0664 37.9588 56.3263C38.0238 56.5862 38.057 56.8857 38.057 57.2217V61.0204H39.3962V56.9396C39.3962 56.4848 39.3439 56.0759 39.2393 55.713C39.1347 55.35 38.9794 55.041 38.7702 54.7874C38.561 54.5339 38.3027 54.3405 37.9921 54.2042C37.6814 54.0695 37.3185 54.0014 36.9033 54.0014C36.6497 54.0014 36.42 54.0268 36.2139 54.0743C36.0079 54.1218 35.8209 54.19 35.6529 54.2771C35.4833 54.3659 35.3328 54.4705 35.1965 54.5925C35.0602 54.7146 34.9366 54.8524 34.8225 55.0062V51.7716H33.4849V51.77H33.4833V51.7716ZM42.2472 60.7224C42.5024 60.8777 42.7876 60.9982 43.103 61.0806V61.0822H43.0951C43.4105 61.1662 43.7496 61.2074 44.1125 61.2074C44.5594 61.2074 44.9604 61.1551 45.317 61.0505C45.6735 60.9459 45.9873 60.7985 46.2583 60.6083C46.5309 60.4166 46.7559 60.1915 46.9382 59.9284C47.1204 59.6669 47.2567 59.3801 47.3487 59.0695H45.9842C45.9192 59.2311 45.8352 59.3769 45.7322 59.5053C45.6292 59.6337 45.504 59.7446 45.355 59.8333C45.206 59.9221 45.0333 59.9902 44.8336 60.0362C44.6355 60.0806 44.4089 60.1043 44.1553 60.1043C43.9366 60.1043 43.7322 60.0758 43.542 60.0219C43.3518 59.9681 43.1775 59.8872 43.0206 59.7826C42.8621 59.678 42.7243 59.5513 42.6038 59.4023C42.4849 59.2533 42.3819 59.0853 42.2995 58.8999C42.2171 58.7145 42.1537 58.5101 42.1125 58.2866C42.0947 58.1902 42.0808 58.0914 42.0707 57.9902H47.4517V57.9839C47.4659 57.6004 47.4422 57.2327 47.3835 56.8856C47.3249 56.5386 47.2298 56.2169 47.1014 55.9221C46.9731 55.6273 46.8114 55.3611 46.6165 55.1249C46.4216 54.8888 46.1981 54.686 45.9445 54.518C45.691 54.35 45.4073 54.2216 45.0951 54.1313C44.7813 54.041 44.4437 53.9966 44.0808 53.9966C43.5911 53.9966 43.1363 54.0822 42.7163 54.2517C42.2964 54.4213 41.9334 54.6638 41.6276 54.976C41.3217 55.2882 41.0824 55.6638 40.9097 56.1012C40.7353 56.5386 40.6498 57.0267 40.6498 57.5639V57.5766C40.6498 57.9221 40.6846 58.2517 40.7544 58.5639C40.8257 58.8777 40.9271 59.1693 41.0634 59.4372C41.1997 59.705 41.3661 59.9475 41.5658 60.1646C41.7639 60.3817 41.9921 60.5671 42.2472 60.7224ZM42.0887 56.9078C42.1112 56.7445 42.1435 56.5928 42.1854 56.453C42.2805 56.1392 42.4152 55.8793 42.5927 55.6717C42.7702 55.4641 42.9842 55.3088 43.2361 55.2089C43.4881 55.1091 43.767 55.0584 44.0729 55.0584C44.271 55.0584 44.4532 55.079 44.6212 55.1202C44.7892 55.1614 44.9445 55.2216 45.0872 55.3009C45.2298 55.3801 45.3566 55.4736 45.4675 55.583C45.5784 55.6923 45.6751 55.8159 45.7559 55.9506C45.8368 56.0853 45.9002 56.2343 45.9461 56.396C45.9921 56.5576 46.0222 56.7272 46.0349 56.9015V56.9078H42.0887ZM48.7544 54.1854H50.0935V55.3994C50.1933 55.2029 50.3138 55.0238 50.4548 54.8653C50.5943 54.7052 50.7559 54.5705 50.9398 54.458C51.1236 54.3455 51.3296 54.2615 51.5563 54.2029C51.7829 54.1442 52.0301 54.1141 52.2979 54.1141H52.4231V55.42H52.0618C51.7512 55.42 51.4739 55.458 51.2314 55.5309C50.9889 55.6054 50.7829 55.7227 50.6149 55.8859C50.4469 56.0476 50.317 56.2583 50.2282 56.5151C50.1379 56.7734 50.0935 57.0856 50.0935 57.4533V61.0222H48.7544V54.187V54.1854ZM54.5182 60.7224C54.7734 60.8777 55.0586 60.9982 55.374 61.0806V61.0822H55.3661C55.6814 61.1662 56.0206 61.2074 56.3835 61.2074C56.8304 61.2074 57.2314 61.1551 57.5879 61.0505C57.9445 60.9459 58.2583 60.7985 58.5293 60.6083C58.8019 60.4166 59.0269 60.1915 59.2092 59.9284C59.3914 59.6669 59.5277 59.3801 59.6196 59.0695H58.2551C58.1902 59.2311 58.1062 59.3769 58.0032 59.5053C57.9002 59.6337 57.775 59.7446 57.626 59.8333C57.477 59.9221 57.3043 59.9902 57.1046 60.0362C56.9065 60.0806 56.6799 60.1043 56.4263 60.1043C56.2076 60.1043 56.0032 60.0758 55.813 60.0219C55.6228 59.9681 55.4485 59.8872 55.2916 59.7826C55.1331 59.678 54.9952 59.5513 54.8748 59.4023C54.7559 59.2533 54.6529 59.0853 54.5705 58.8999C54.4881 58.7145 54.4247 58.5101 54.3835 58.2866C54.3657 58.1902 54.3518 58.0914 54.3417 57.9902H59.7227V57.9839C59.7369 57.6004 59.7131 57.2327 59.6545 56.8856C59.5959 56.5386 59.5008 56.2169 59.3724 55.9221C59.244 55.6273 59.0824 55.3611 58.8875 55.1249C58.6925 54.8888 58.4691 54.686 58.2155 54.518C57.962 54.35 57.6783 54.2216 57.3661 54.1313C57.0523 54.041 56.7147 53.9966 56.3518 53.9966C55.8621 53.9966 55.4073 54.0822 54.9873 54.2517C54.5673 54.4213 54.2044 54.6638 53.8986 54.976C53.5927 55.2882 53.3534 55.6638 53.1807 56.1012C53.0063 56.5386 52.9207 57.0267 52.9207 57.5639V57.5766C52.9207 57.9221 52.9556 58.2517 53.0253 58.5639C53.0967 58.8777 53.1981 59.1693 53.3344 59.4372C53.4707 59.705 53.6371 59.9475 53.8368 60.1646C54.0349 60.3817 54.2631 60.5671 54.5182 60.7224ZM54.3597 56.9078C54.3822 56.7445 54.4145 56.5928 54.4564 56.453C54.5515 56.1392 54.6862 55.8793 54.8637 55.6717C55.0412 55.4641 55.2551 55.3088 55.5071 55.2089C55.7591 55.1091 56.038 55.0584 56.3439 55.0584C56.542 55.0584 56.7242 55.079 56.8922 55.1202C57.0602 55.1614 57.2155 55.2216 57.3582 55.3009C57.5008 55.3801 57.6276 55.4736 57.7385 55.583C57.8494 55.6923 57.9461 55.8159 58.0269 55.9506C58.1078 56.0853 58.1712 56.2343 58.2171 56.396C58.2631 56.5576 58.2932 56.7272 58.3059 56.9015V56.9078H54.3597Z" fill="#0C2340"/>
</svg>
