<svg width="208" height="28" viewBox="0 0 208 28" fill="none" xmlns="http://www.w3.org/2000/svg">
<path fill-rule="evenodd" clip-rule="evenodd" d="M59.3486 26.7516C60.0354 27.1656 60.7698 27.4765 61.555 27.6843L61.5566 27.6828C62.3402 27.889 63.1539 27.9937 63.9962 27.9937C64.7227 27.9937 65.4032 27.9191 66.0377 27.77C66.6722 27.6209 67.2559 27.4115 67.7873 27.1387C68.3187 26.8658 68.7945 26.5423 69.2165 26.1663C69.6384 25.7904 69.9842 25.3827 70.257 24.9418V27.4115H75.6803V0H70.257V9.62361C69.9842 9.18264 69.6368 8.77498 69.2165 8.39905C68.7945 8.02311 68.3187 7.69952 67.7873 7.42669C67.2559 7.15545 66.6722 6.94448 66.0377 6.79538C65.4016 6.64627 64.7227 6.57172 63.9962 6.57172C62.7383 6.57172 61.5471 6.80807 60.4193 7.28076C59.2915 7.75345 58.3096 8.44346 57.4737 9.35078C56.6377 10.2581 55.9731 11.3748 55.4814 12.7041C54.9881 14.0333 54.7422 15.5513 54.7422 17.2629V17.3025C54.7422 18.443 54.8516 19.4994 55.0721 20.4718C55.291 21.4441 55.6067 22.3277 56.0143 23.1255C56.422 23.9234 56.909 24.6229 57.4721 25.2257C58.0368 25.8285 58.6617 26.3376 59.3486 26.7516ZM68.049 23.1366C67.6794 23.3825 67.2781 23.5697 66.8435 23.6997C66.4089 23.8298 65.9393 23.8949 65.4333 23.8949C64.9273 23.8949 64.4578 23.8298 64.0232 23.6997C63.5886 23.5713 63.1872 23.3825 62.8176 23.1366C62.4481 22.8908 62.1149 22.583 61.8167 22.2135C61.5185 21.8439 61.2695 21.4156 61.068 20.9302C60.8666 20.4448 60.7111 19.9007 60.6017 19.298C60.4922 18.6952 60.4367 18.0322 60.4367 17.3057V17.266C60.4367 16.5411 60.4907 15.8765 60.6017 15.2737C60.7111 14.6726 60.8666 14.1269 61.068 13.6415C61.2695 13.1545 61.5185 12.7278 61.8167 12.3583C62.1149 11.9887 62.4481 11.6809 62.8176 11.4351C63.1872 11.1892 63.5886 11.002 64.0232 10.872C64.4578 10.7419 64.9273 10.6769 65.4333 10.6769C65.9393 10.6769 66.4089 10.7419 66.8435 10.872C67.2781 11.0005 67.6794 11.1892 68.049 11.4351C68.4186 11.6809 68.7517 11.9887 69.0499 12.3583C69.3481 12.7278 69.5972 13.1561 69.7986 13.6415C70.0001 14.1269 70.1555 14.671 70.265 15.2737C70.3744 15.8765 70.4299 16.5395 70.4299 17.266V17.3057C70.4299 18.0306 70.3744 18.6952 70.265 19.298C70.1555 19.8992 70.0001 20.4448 69.7986 20.9302C69.5972 21.4156 69.3481 21.8439 69.0499 22.2135C68.7517 22.583 68.4186 22.8908 68.049 23.1366ZM5.91137 0.00134277H0.292969V27.4129H5.91137V0.00134277ZM14.7872 26.6263C15.5581 27.0721 16.4115 27.4131 17.3442 27.6463L17.3473 27.6495C18.28 27.8826 19.2778 28 20.3405 28C21.7666 28 23.0562 27.816 24.2093 27.4464C25.3625 27.0768 26.3603 26.555 27.2025 25.8808C28.0448 25.2067 28.738 24.4025 29.2821 23.4698C29.8262 22.5371 30.2084 21.5203 30.4289 20.4179H25.0247C24.8819 20.9889 24.6757 21.4902 24.4029 21.9248C24.13 22.3594 23.8001 22.7211 23.4115 23.0129C23.0228 23.3048 22.5755 23.5221 22.0695 23.6649C21.5635 23.8076 21.0194 23.879 20.4357 23.879C19.944 23.879 19.484 23.814 19.0557 23.6839C18.6274 23.5538 18.2325 23.3603 17.8692 23.1002C17.506 22.8416 17.1824 22.5244 16.8969 22.1484C16.6113 21.7725 16.3686 21.3395 16.1672 20.8462C15.9657 20.3528 15.8103 19.8056 15.7008 19.2028C15.5914 18.6001 15.5359 17.9481 15.5359 17.2486V17.2089C15.5359 16.1716 15.6533 15.242 15.8864 14.4188C16.1196 13.5971 16.4527 12.9024 16.8873 12.3392C17.3204 11.7761 17.8359 11.3447 18.4323 11.0465C19.0271 10.7483 19.6949 10.5992 20.4341 10.5992C21.0179 10.5992 21.5619 10.6705 22.0679 10.8133C22.5739 10.9561 23.0213 11.1686 23.4099 11.4541C23.7985 11.7396 24.1284 12.0981 24.4013 12.5328C24.6725 12.9674 24.8803 13.475 25.0231 14.0587H30.4273C30.2068 12.9452 29.8246 11.9236 29.2805 10.9973C28.7364 10.0694 28.0432 9.27308 27.201 8.60528C26.3587 7.93748 25.3609 7.41561 24.2077 7.03967C23.0546 6.66532 21.765 6.47656 20.339 6.47656C18.7448 6.47656 17.3029 6.73829 16.0133 7.26333C14.7237 7.78837 13.6261 8.52438 12.7187 9.46977C11.8114 10.4167 11.1135 11.5477 10.6281 12.8627C10.1411 14.1777 9.89844 15.6259 9.89844 17.2074V17.247C9.89844 18.3114 10.0079 19.3123 10.2284 20.2513C10.4489 21.1904 10.7661 22.058 11.1817 22.8559C11.5957 23.6522 12.108 24.3692 12.7172 25.0036C13.3263 25.6381 14.0163 26.179 14.7872 26.6263ZM37.1464 27.5685C36.2137 27.283 35.4064 26.8722 34.7259 26.3345C34.0454 25.7967 33.5172 25.1448 33.1412 24.3802C32.7653 23.6157 32.5781 22.7544 32.5781 21.7947V21.7757C32.5781 21.0365 32.6749 20.3734 32.87 19.7834C33.0651 19.1933 33.3522 18.6682 33.7345 18.2082C34.1168 17.7482 34.5926 17.3437 35.1637 16.9932C35.7331 16.6426 36.3946 16.3349 37.1464 16.07C37.8983 15.8051 38.7342 15.5751 39.6543 15.38C40.5743 15.1849 41.5783 15.0168 42.6681 14.874C43.485 14.7709 44.1353 14.663 44.6223 14.5536C45.1077 14.4441 45.4836 14.3077 45.7501 14.1459C46.015 13.9841 46.1911 13.7922 46.2752 13.5717C46.3592 13.3512 46.4021 13.0736 46.4021 12.7358V12.6961C46.4021 12.2425 46.318 11.8538 46.1498 11.5302C45.9817 11.2067 45.7342 10.937 45.4107 10.7229C45.0871 10.5087 44.7016 10.3501 44.2543 10.247C43.807 10.1439 43.3042 10.0915 42.7474 10.0915C42.1383 10.0915 41.5847 10.1566 41.085 10.2866C40.5854 10.4167 40.1587 10.6166 39.8018 10.8894C39.4449 11.1622 39.1673 11.5049 38.9658 11.9205C38.7644 12.336 38.6518 12.8278 38.6264 13.3972H33.4743C33.4997 12.244 33.7488 11.2336 34.223 10.3644C34.6957 9.49671 35.3413 8.77022 36.1566 8.18649C36.9735 7.60276 37.9475 7.16337 39.0832 6.86516C40.2174 6.56695 41.4515 6.41785 42.787 6.41785C44.1226 6.41785 45.3948 6.53205 46.4909 6.7573C47.5854 6.98413 48.5133 7.36958 49.2715 7.91366C50.0297 8.45773 50.6103 9.18422 51.0116 10.0915C51.4129 10.9989 51.6144 12.133 51.6144 13.494L51.5557 21.0174C51.5557 21.7043 51.5652 22.3388 51.5842 22.9225C51.6033 23.5062 51.6366 24.0566 51.681 24.5753C51.727 25.094 51.7904 25.5858 51.8761 26.0537C51.9602 26.52 52.0601 26.9737 52.1775 27.4147H46.889C46.8621 27.2592 46.8398 27.1101 46.8208 26.9674C46.8113 26.8961 46.8014 26.8248 46.7915 26.7535C46.7816 26.682 46.7716 26.6105 46.7621 26.5391C46.7431 26.3963 46.7256 26.244 46.7129 26.0822C46.7003 25.9205 46.6939 25.7428 46.6939 25.5477C46.356 25.9363 45.9738 26.2837 45.5471 26.5882C45.1188 26.8928 44.6398 27.1498 44.1084 27.356C43.577 27.5638 42.9869 27.7224 42.3397 27.8319C41.691 27.9413 40.9788 27.9968 40.2015 27.9968C39.0991 27.9968 38.0823 27.8541 37.1496 27.5685H37.1464ZM43.0171 24.1375C43.4184 24.0662 43.788 23.9631 44.1258 23.8266C44.4621 23.6902 44.7667 23.5189 45.0395 23.3111C45.3123 23.1033 45.5423 22.8575 45.7295 22.5719C45.9167 22.2864 46.0658 21.966 46.1768 21.6091C46.2863 21.2522 46.3418 20.8604 46.3418 20.4321V17.1264C45.9912 17.2565 45.6613 17.3691 45.3504 17.4675C45.0395 17.5642 44.7381 17.6546 44.4462 17.7403C44.1544 17.8244 43.872 17.9021 43.6008 17.9735C43.3279 18.0449 43.0694 18.1131 42.8235 18.1781C42.2398 18.3335 41.7211 18.4795 41.269 18.6159C40.8154 18.7523 40.4172 18.8919 40.073 19.0331C39.7288 19.1758 39.4385 19.3281 39.1974 19.4899C38.9579 19.6517 38.7628 19.8294 38.6137 20.0245C38.4646 20.2196 38.3536 20.4321 38.2838 20.6653C38.2124 20.8985 38.1775 21.165 38.1775 21.4616V21.4806C38.1775 21.9216 38.2616 22.3134 38.4297 22.656C38.5978 23.0002 38.8342 23.2873 39.1387 23.5205C39.4433 23.7537 39.8192 23.9313 40.2665 24.0551C40.7139 24.1788 41.2151 24.2391 41.7735 24.2391C42.2017 24.2391 42.6157 24.2042 43.0171 24.1328V24.1375Z" fill="#0C2340"/>
<path fill-rule="evenodd" clip-rule="evenodd" d="M94.7257 3.38559H88.375V12.6459H89.7679V8.56073H94.2276V7.34547H89.7679V4.60084H94.7257V3.38559ZM96.2227 11.8051C96.5225 12.124 96.8858 12.3762 97.3126 12.5571C97.7393 12.7395 98.22 12.83 98.7547 12.83C99.2893 12.83 99.77 12.7395 100.2 12.5571C100.628 12.3746 100.992 12.124 101.29 11.8051C101.588 11.4862 101.817 11.1054 101.977 10.6628C102.137 10.2202 102.216 9.74106 102.216 9.22386V9.21117C102.216 8.68921 102.137 8.21009 101.977 7.77222C101.817 7.33435 101.588 6.95518 101.29 6.63312C100.992 6.31106 100.628 6.0604 100.2 5.88112C99.77 5.70185 99.2893 5.61142 98.7547 5.61142C98.22 5.61142 97.7393 5.70185 97.3126 5.88112C96.8858 6.0604 96.5225 6.31106 96.2227 6.63312C95.9228 6.95518 95.6928 7.33435 95.5325 7.77222C95.3723 8.21009 95.293 8.6908 95.293 9.21117V9.22386C95.293 9.74106 95.3723 10.2202 95.5325 10.6628C95.6928 11.1039 95.9228 11.4862 96.2227 11.8051ZM100.286 11.0198C100.114 11.2403 99.9001 11.4132 99.6447 11.5354C99.3877 11.6575 99.0926 11.7194 98.7547 11.7194C98.4168 11.7194 98.1201 11.6575 97.8647 11.5354C97.6077 11.4132 97.3951 11.2403 97.2237 11.0198C97.054 10.7977 96.9255 10.5359 96.8398 10.2313C96.7541 9.92826 96.7113 9.59193 96.7113 9.22386V9.21117C96.7113 8.84469 96.7541 8.50835 96.8398 8.20375C96.9255 7.89914 97.0524 7.63737 97.2237 7.41843C97.3951 7.1995 97.6093 7.02816 97.8647 6.906C98.1201 6.78384 98.4168 6.72196 98.7547 6.72196C99.0926 6.72196 99.3877 6.78384 99.6447 6.906C99.9017 7.02816 100.114 7.1995 100.286 7.41843C100.455 7.63737 100.584 7.89914 100.67 8.20375C100.755 8.50677 100.798 8.8431 100.798 9.21117V9.22386C100.798 9.59034 100.755 9.92668 100.67 10.2313C100.584 10.5359 100.457 10.7992 100.286 11.0198ZM105.149 12.5571C104.722 12.3762 104.358 12.124 104.059 11.8051C103.759 11.4862 103.529 11.1039 103.368 10.6628C103.208 10.2202 103.129 9.74106 103.129 9.22386V9.21117C103.129 8.6908 103.208 8.21009 103.368 7.77222C103.529 7.33435 103.759 6.95518 104.059 6.63312C104.358 6.31106 104.722 6.0604 105.149 5.88112C105.575 5.70185 106.056 5.61142 106.591 5.61142C107.125 5.61142 107.606 5.70185 108.036 5.88112C108.464 6.0604 108.828 6.31106 109.126 6.63312C109.424 6.95518 109.653 7.33435 109.813 7.77222C109.973 8.21009 110.052 8.68921 110.052 9.21117V9.22386C110.052 9.74106 109.973 10.2202 109.813 10.6628C109.653 11.1054 109.424 11.4862 109.126 11.8051C108.828 12.124 108.464 12.3746 108.036 12.5571C107.606 12.7395 107.125 12.83 106.591 12.83C106.056 12.83 105.575 12.7395 105.149 12.5571ZM107.479 11.5354C107.734 11.4132 107.949 11.2403 108.12 11.0198C108.291 10.7992 108.418 10.5359 108.504 10.2313C108.59 9.92668 108.632 9.59034 108.632 9.22386V9.21117C108.632 8.8431 108.59 8.50677 108.504 8.20375C108.418 7.89914 108.29 7.63737 108.12 7.41843C107.949 7.1995 107.736 7.02816 107.479 6.906C107.222 6.78384 106.927 6.72196 106.589 6.72196C106.251 6.72196 105.954 6.78384 105.699 6.906C105.444 7.02816 105.229 7.1995 105.058 7.41843C104.887 7.63737 104.76 7.89914 104.674 8.20375C104.588 8.50835 104.546 8.84469 104.546 9.21117V9.22386C104.546 9.59193 104.588 9.92826 104.674 10.2313C104.76 10.5359 104.888 10.7977 105.058 11.0198C105.229 11.2403 105.442 11.4132 105.699 11.5354C105.954 11.6575 106.251 11.7194 106.589 11.7194C106.927 11.7194 107.222 11.6575 107.479 11.5354ZM111.988 12.2097C112.133 12.3651 112.328 12.4762 112.575 12.5444C112.823 12.6126 113.138 12.6459 113.524 12.6459H114.352V11.5037H113.748C113.573 11.5037 113.432 11.4878 113.324 11.4577C113.218 11.4275 113.135 11.3783 113.078 11.3101C113.021 11.2419 112.984 11.1515 112.967 11.0372C112.948 10.923 112.94 10.785 112.94 10.6232V6.94568H114.404V5.80341H112.94V3.63626H111.601V5.80341H110.551V6.94568H111.601V10.6501C111.601 11.023 111.63 11.3371 111.687 11.5925C111.742 11.8479 111.844 12.0542 111.988 12.2097ZM115.166 5.80179H116.552L118.132 11.2133L119.763 5.80179H121.194L122.897 11.2176L124.51 5.80179H125.79L123.682 12.6459H122.178L120.43 7.23404L118.783 12.6459H117.266L115.164 5.80179H115.166ZM127.759 12.3461C128.015 12.5016 128.3 12.6221 128.616 12.7046L128.608 12.7062C128.924 12.7903 129.263 12.8315 129.627 12.8315C130.074 12.8315 130.475 12.7792 130.832 12.6745C131.189 12.5698 131.503 12.4222 131.775 12.2319C132.048 12.0415 132.273 11.8162 132.455 11.5528C132.638 11.2911 132.774 11.0039 132.866 10.693H131.5C131.435 10.8548 131.351 11.0007 131.248 11.1292C131.145 11.2577 131.02 11.3672 130.87 11.4576C130.721 11.5465 130.547 11.6147 130.348 11.6607C130.15 11.7067 129.923 11.7289 129.669 11.7289C129.451 11.7289 129.246 11.702 129.056 11.6464C128.865 11.5925 128.691 11.5116 128.534 11.4069C128.375 11.3022 128.237 11.1752 128.116 11.0261C127.997 10.877 127.894 10.7088 127.812 10.5232C127.729 10.3376 127.666 10.1329 127.624 9.90923C127.607 9.8127 127.593 9.71381 127.583 9.61255H132.969V9.60621C132.984 9.22228 132.96 8.85421 132.901 8.50677C132.842 8.15774 132.747 7.83568 132.619 7.5406C132.49 7.24551 132.328 6.97898 132.133 6.74259C131.938 6.5062 131.714 6.30313 131.461 6.13496C131.207 5.96679 130.923 5.83829 130.61 5.74786C130.296 5.65743 129.958 5.61301 129.595 5.61301C129.105 5.61301 128.649 5.69709 128.229 5.86843C127.809 6.03819 127.445 6.28092 127.139 6.59346C126.833 6.906 126.593 7.282 126.42 7.71987C126.246 8.15774 126.16 8.64638 126.16 9.1842V9.19689C126.16 9.54275 126.195 9.87274 126.265 10.1853C126.336 10.4994 126.438 10.7913 126.574 11.0594C126.711 11.3276 126.877 11.5703 127.077 11.7876C127.275 12.005 127.504 12.1906 127.759 12.3461ZM127.601 8.52898C127.623 8.36543 127.656 8.21365 127.697 8.07366C127.793 7.75953 127.928 7.49935 128.105 7.29152C128.283 7.08369 128.497 6.9298 128.749 6.82826C129.002 6.72831 129.281 6.67754 129.587 6.67754C129.785 6.67754 129.968 6.69817 130.136 6.73942C130.304 6.78067 130.46 6.84095 130.602 6.92028C130.745 6.9996 130.872 7.0932 130.983 7.20267C131.094 7.31214 131.191 7.4343 131.272 7.57074C131.353 7.70559 131.416 7.85472 131.462 8.01654C131.508 8.17836 131.538 8.34812 131.551 8.52263V8.52898H127.601ZM135.328 12.6888C135.019 12.5952 134.753 12.4587 134.527 12.281C134.302 12.1033 134.126 11.8876 133.999 11.6306C133.872 11.3751 133.809 11.0864 133.809 10.7675V10.7548C133.809 10.5137 133.84 10.2963 133.904 10.1012C133.967 9.90605 134.061 9.73312 134.186 9.57923C134.312 9.42534 134.467 9.29208 134.656 9.17468C134.845 9.05887 135.064 8.95574 135.313 8.86531C135.562 8.77488 135.842 8.69714 136.153 8.6321C136.464 8.56705 136.805 8.50994 137.178 8.46076C137.462 8.4211 137.688 8.38143 137.854 8.34177C138.021 8.30211 138.149 8.25293 138.238 8.19423C138.327 8.13553 138.386 8.06413 138.413 7.98005C138.44 7.89755 138.452 7.79126 138.452 7.66434V7.65165C138.452 7.4803 138.419 7.33276 138.354 7.20902C138.289 7.08368 138.194 6.97897 138.071 6.8933C137.949 6.80763 137.8 6.74417 137.626 6.70292C137.451 6.66168 137.253 6.64105 137.034 6.64105C136.815 6.64105 136.598 6.66485 136.407 6.71403C136.217 6.76162 136.052 6.83778 135.915 6.9409C135.777 7.04402 135.67 7.17253 135.59 7.328C135.511 7.48348 135.468 7.67068 135.459 7.88962H134.118C134.118 7.49617 134.197 7.15507 134.354 6.86792C134.511 6.58076 134.724 6.34438 134.991 6.15876C135.257 5.97314 135.568 5.83353 135.923 5.74151C136.279 5.64949 136.65 5.60349 137.04 5.60349C137.465 5.60349 137.846 5.64156 138.186 5.71771C138.525 5.79386 138.812 5.92078 139.046 6.0953C139.28 6.26981 139.46 6.50303 139.583 6.79177C139.709 7.08051 139.771 7.43588 139.771 7.8563L139.758 10.3709C139.758 10.62 139.76 10.8484 139.764 11.0547C139.769 11.2609 139.779 11.4545 139.794 11.6353C139.81 11.8178 139.831 11.9907 139.859 12.1541C139.888 12.3175 139.921 12.4809 139.961 12.6428H138.628L138.62 12.5899C138.614 12.5522 138.608 12.5162 138.601 12.4825C138.596 12.4549 138.592 12.4273 138.587 12.3995L138.587 12.3991L138.587 12.3989L138.586 12.398C138.583 12.3751 138.579 12.352 138.574 12.3286C138.565 12.2763 138.559 12.2207 138.555 12.1652C138.551 12.1081 138.546 12.0446 138.543 11.9748C138.433 12.097 138.309 12.2112 138.171 12.3159C138.033 12.4206 137.876 12.5111 137.699 12.5856C137.521 12.6602 137.32 12.7189 137.094 12.7633C136.869 12.8077 136.614 12.8284 136.33 12.8284C135.971 12.8284 135.636 12.7808 135.328 12.6872V12.6888ZM137.142 11.7353C137.302 11.7067 137.448 11.6655 137.581 11.6099C137.715 11.556 137.837 11.4878 137.946 11.4069C138.056 11.326 138.148 11.2308 138.222 11.1213C138.297 11.0118 138.354 10.8897 138.397 10.7532C138.438 10.6184 138.459 10.4693 138.459 10.3074V9.0668C138.327 9.11122 138.202 9.15088 138.081 9.18896L138.048 9.199L138.048 9.19904L138.047 9.19912C137.939 9.23191 137.836 9.26316 137.737 9.29049C137.627 9.32064 137.521 9.34919 137.418 9.37616L137.366 9.38955L137.304 9.40573L137.303 9.4058C137.239 9.42226 137.176 9.43856 137.113 9.45549C136.872 9.5126 136.66 9.56813 136.472 9.62366C136.287 9.67918 136.123 9.73312 135.984 9.78707C135.844 9.84259 135.725 9.89812 135.628 9.95841C135.532 10.0171 135.454 10.0837 135.395 10.1583C135.336 10.2329 135.294 10.3138 135.267 10.401C135.24 10.4883 135.227 10.5898 135.227 10.7025V10.7088C135.227 10.8802 135.259 11.0325 135.322 11.1657C135.386 11.299 135.478 11.4116 135.598 11.5036C135.719 11.5957 135.866 11.6639 136.041 11.7099C136.215 11.7559 136.415 11.7781 136.639 11.7781C136.813 11.7781 136.982 11.7638 137.142 11.7353ZM142.79 5.80183H141.449V12.646H142.79V9.07318C142.79 8.70511 142.834 8.39257 142.925 8.13397C143.013 7.87696 143.144 7.66596 143.312 7.50414C143.48 7.34073 143.686 7.22333 143.929 7.14876C144.172 7.0742 144.449 7.03771 144.76 7.03771H145.122V5.73044H144.997C144.728 5.73044 144.481 5.76058 144.254 5.81928C144.027 5.87798 143.821 5.96365 143.637 6.07471C143.453 6.18735 143.291 6.3222 143.152 6.48244C143.01 6.64108 142.89 6.82036 142.79 7.01708V5.80183ZM149.348 5.80183H150.688V7.01708C150.788 6.82036 150.909 6.64108 151.05 6.48244C151.19 6.3222 151.351 6.18735 151.535 6.07471C151.719 5.96365 151.926 5.87798 152.153 5.81928C152.379 5.76058 152.627 5.73044 152.895 5.73044H153.02V7.03771H152.659C152.348 7.03771 152.07 7.0742 151.827 7.14876C151.585 7.22333 151.378 7.34073 151.21 7.50414C151.042 7.66596 150.912 7.87696 150.823 8.13397C150.733 8.39257 150.688 8.70511 150.688 9.07318V12.646H149.348V5.80183ZM155.119 12.3461C155.374 12.5016 155.66 12.6221 155.975 12.7046L155.967 12.7062C156.283 12.7903 156.623 12.8315 156.986 12.8315C157.433 12.8315 157.835 12.7792 158.192 12.6745C158.549 12.5698 158.863 12.4222 159.134 12.2319C159.407 12.0415 159.632 11.8162 159.815 11.5528C159.997 11.2911 160.134 11.0039 160.226 10.693H158.86C158.795 10.8548 158.711 11.0007 158.607 11.1292C158.504 11.2577 158.379 11.3672 158.23 11.4576C158.081 11.5465 157.906 11.6147 157.708 11.6607C157.51 11.7067 157.283 11.7289 157.029 11.7289C156.81 11.7289 156.605 11.702 156.415 11.6464C156.225 11.5925 156.05 11.5116 155.893 11.4069C155.734 11.3022 155.596 11.1752 155.476 11.0261C155.357 10.877 155.254 10.7088 155.171 10.5232C155.089 10.3376 155.025 10.1329 154.984 9.90923C154.966 9.8127 154.952 9.71381 154.942 9.61255H160.329V9.60621C160.343 9.22228 160.319 8.85421 160.261 8.50677C160.202 8.15774 160.107 7.83568 159.978 7.5406C159.85 7.24551 159.688 6.97898 159.493 6.74259C159.298 6.5062 159.074 6.30313 158.82 6.13496C158.566 5.96679 158.282 5.83829 157.97 5.74786C157.656 5.65743 157.318 5.61301 156.954 5.61301C156.464 5.61301 156.009 5.69709 155.588 5.86843C155.168 6.03819 154.805 6.28092 154.498 6.59346C154.192 6.906 153.953 7.282 153.78 7.71987C153.605 8.15774 153.52 8.64638 153.52 9.1842V9.19689C153.52 9.54275 153.554 9.87274 153.624 10.1853C153.696 10.4994 153.797 10.7913 153.934 11.0594C154.07 11.3276 154.237 11.5703 154.437 11.7876C154.635 12.005 154.863 12.1906 155.119 12.3461ZM154.96 8.52898C154.983 8.36543 155.015 8.21365 155.057 8.07366C155.152 7.75953 155.287 7.49935 155.465 7.29152C155.642 7.08369 155.856 6.9298 156.109 6.82826C156.361 6.72831 156.64 6.67754 156.946 6.67754C157.145 6.67754 157.327 6.69817 157.495 6.73942C157.663 6.78067 157.819 6.84095 157.962 6.92028C158.104 6.9996 158.231 7.0932 158.342 7.20267C158.454 7.31214 158.55 7.4343 158.631 7.57074C158.712 7.70559 158.776 7.85472 158.822 8.01654C158.868 8.17836 158.898 8.34812 158.91 8.52263V8.52898H154.96ZM160.551 5.80179H162.009L164.076 11.2922L166.199 5.80179H167.519L164.793 12.6459H163.283L160.551 5.80179ZM168.687 11.8051C168.987 12.124 169.351 12.3762 169.777 12.5571C170.204 12.7395 170.685 12.83 171.22 12.83C171.754 12.83 172.235 12.7395 172.665 12.5571C173.093 12.3746 173.456 12.124 173.755 11.8051C174.053 11.4862 174.281 11.1054 174.442 10.6628C174.602 10.2202 174.681 9.74106 174.681 9.22386V9.21117C174.681 8.68921 174.602 8.21009 174.442 7.77222C174.281 7.33435 174.053 6.95518 173.755 6.63312C173.456 6.31106 173.093 6.0604 172.665 5.88112C172.235 5.70185 171.754 5.61142 171.22 5.61142C170.685 5.61142 170.204 5.70185 169.777 5.88112C169.351 6.0604 168.987 6.31106 168.687 6.63312C168.388 6.95518 168.158 7.33435 167.997 7.77222C167.837 8.21009 167.758 8.6908 167.758 9.21117V9.22386C167.758 9.74106 167.837 10.2202 167.997 10.6628C168.158 11.1039 168.388 11.4862 168.687 11.8051ZM172.75 11.0198C172.579 11.2403 172.365 11.4132 172.11 11.5354C171.853 11.6575 171.557 11.7194 171.22 11.7194C170.882 11.7194 170.585 11.6575 170.33 11.5354C170.072 11.4132 169.86 11.2403 169.689 11.0198C169.519 10.7977 169.39 10.5359 169.305 10.2313C169.219 9.92826 169.176 9.59193 169.176 9.22386V9.21117C169.176 8.84469 169.219 8.50835 169.305 8.20375C169.39 7.89914 169.517 7.63737 169.689 7.41843C169.86 7.1995 170.074 7.02816 170.33 6.906C170.585 6.78384 170.882 6.72196 171.22 6.72196C171.557 6.72196 171.853 6.78384 172.11 6.906C172.367 7.02816 172.579 7.1995 172.75 7.41843C172.92 7.63737 173.049 7.89914 173.134 8.20375C173.22 8.50677 173.263 8.8431 173.263 9.21117V9.22386C173.263 9.59034 173.22 9.92668 173.134 10.2313C173.049 10.5359 172.922 10.7992 172.75 11.0198ZM176 3.38559H177.341V12.6459H176V3.38559ZM179.642 12.0415C179.85 12.2953 180.11 12.4889 180.421 12.6253L180.42 12.6285C180.731 12.7633 181.094 12.8315 181.51 12.8315C181.763 12.8315 181.993 12.8062 182.2 12.7586C182.406 12.711 182.593 12.6427 182.761 12.5555C182.929 12.4682 183.082 12.3619 183.218 12.2366C183.355 12.1113 183.478 11.9748 183.593 11.8257V12.6459H184.933V5.80179H183.593V9.60461C183.593 9.94095 183.559 10.2408 183.494 10.501C183.429 10.7612 183.329 10.9801 183.196 11.1578C183.061 11.3355 182.893 11.4687 182.69 11.5592C182.487 11.6496 182.249 11.694 181.978 11.694C181.706 11.694 181.468 11.6496 181.265 11.5592C181.061 11.4687 180.892 11.3355 180.759 11.1578C180.626 10.9801 180.526 10.7612 180.458 10.501C180.39 10.2408 180.356 9.94253 180.356 9.60461V5.80179H179.016V9.88701C179.016 10.3423 179.068 10.7516 179.173 11.1149C179.277 11.4783 179.434 11.7876 179.642 12.0415ZM187.977 12.5444C187.73 12.4762 187.535 12.3651 187.39 12.2097C187.246 12.0542 187.145 11.8479 187.089 11.5925C187.032 11.3371 187.003 11.023 187.003 10.6501V6.94568H185.953V5.80341H187.003V3.63626H188.342V5.80341H189.807V6.94568H188.342V10.6232C188.342 10.785 188.35 10.923 188.369 11.0372C188.387 11.1515 188.423 11.2419 188.48 11.3101C188.538 11.3783 188.62 11.4275 188.726 11.4577C188.834 11.4878 188.975 11.5037 189.15 11.5037H189.754V12.6459H188.926C188.541 12.6459 188.225 12.6126 187.977 12.5444ZM192.321 3.38559H190.98V4.90862H192.321V3.38559ZM192.321 5.80182H190.98V12.6459H192.321V5.80182ZM195.684 12.5571C195.257 12.3762 194.894 12.124 194.594 11.8051C194.294 11.4862 194.064 11.1039 193.904 10.6628C193.743 10.2202 193.664 9.74106 193.664 9.22386V9.21117C193.664 8.6908 193.743 8.21009 193.904 7.77222C194.064 7.33435 194.294 6.95518 194.594 6.63312C194.894 6.31106 195.257 6.0604 195.684 5.88112C196.11 5.70185 196.591 5.61142 197.126 5.61142C197.66 5.61142 198.141 5.70185 198.571 5.88112C198.999 6.0604 199.363 6.31106 199.661 6.63312C199.959 6.95518 200.188 7.33435 200.348 7.77222C200.508 8.21009 200.588 8.68921 200.588 9.21117V9.22386C200.588 9.74106 200.508 10.2202 200.348 10.6628C200.188 11.1054 199.959 11.4862 199.661 11.8051C199.363 12.124 198.999 12.3746 198.571 12.5571C198.141 12.7395 197.66 12.83 197.126 12.83C196.591 12.83 196.11 12.7395 195.684 12.5571ZM198.016 11.5354C198.271 11.4132 198.485 11.2403 198.657 11.0198C198.828 10.7992 198.955 10.5359 199.041 10.2313C199.126 9.92668 199.169 9.59034 199.169 9.22386V9.21117C199.169 8.8431 199.126 8.50677 199.041 8.20375C198.955 7.89914 198.827 7.63737 198.657 7.41843C198.485 7.1995 198.273 7.02816 198.016 6.906C197.759 6.78384 197.464 6.72196 197.126 6.72196C196.788 6.72196 196.491 6.78384 196.236 6.906C195.98 7.02816 195.766 7.1995 195.595 7.41843C195.423 7.63737 195.297 7.89914 195.211 8.20375C195.125 8.50835 195.082 8.84469 195.082 9.21117V9.22386C195.082 9.59193 195.125 9.92826 195.211 10.2313C195.297 10.5359 195.425 10.7977 195.595 11.0198C195.766 11.2403 195.979 11.4132 196.236 11.5354C196.491 11.6575 196.788 11.7194 197.126 11.7194C197.464 11.7194 197.759 11.6575 198.016 11.5354ZM201.888 5.8018H201.887L201.888 5.79863V5.8018ZM201.888 5.8018H203.227V6.62202C203.342 6.46813 203.465 6.3301 203.602 6.20794C203.738 6.08578 203.889 5.98107 204.059 5.89223C204.227 5.80497 204.414 5.73675 204.62 5.68916C204.826 5.64156 205.057 5.61618 205.31 5.61618C205.726 5.61618 206.089 5.6844 206.4 5.81925C206.711 5.95569 206.97 6.14924 207.179 6.40308C207.387 6.65692 207.544 6.96628 207.649 7.32959C207.754 7.6929 207.806 8.10221 207.806 8.55754V12.6428H206.465V8.83993C206.465 8.5036 206.432 8.20375 206.367 7.94356C206.302 7.68338 206.2 7.46444 206.066 7.28676C205.929 7.10907 205.761 6.9758 205.556 6.88537C205.353 6.79494 205.115 6.75052 204.844 6.75052C204.573 6.75052 204.335 6.79494 204.132 6.88537C203.929 6.9758 203.759 7.10907 203.626 7.28676C203.492 7.46444 203.392 7.68338 203.327 7.94356C203.262 8.20375 203.229 8.5036 203.229 8.83993V12.6428H201.888V5.8018ZM89.5502 24.4637C89.1869 24.3638 88.8743 24.2162 88.611 24.0243C88.3476 23.8323 88.1382 23.5943 87.9811 23.3119C87.8241 23.0295 87.7225 22.7075 87.6797 22.3426H89.0187C89.0536 22.5663 89.1202 22.7567 89.2186 22.9137C89.3169 23.0708 89.4423 23.2009 89.5962 23.3008C89.7501 23.4024 89.9277 23.4753 90.1308 23.5214C90.3339 23.5674 90.5608 23.5896 90.8098 23.5896C90.9495 23.5896 91.0843 23.5816 91.2144 23.5658C91.3429 23.5499 91.4619 23.5261 91.5698 23.4896C91.6777 23.4547 91.7744 23.4135 91.8617 23.3643C91.9489 23.3167 92.0219 23.2564 92.0822 23.1866C92.1409 23.1168 92.1869 23.0391 92.2202 22.9534C92.2535 22.8677 92.2694 22.7725 92.2694 22.6678V22.6551C92.2694 22.4838 92.2345 22.3426 92.1647 22.2284C92.0949 22.1141 91.9965 22.0189 91.8728 21.9396C91.7475 21.8603 91.5983 21.7952 91.4254 21.7429C91.2525 21.6905 91.0637 21.6429 90.8574 21.5985L89.8532 21.3812C89.5724 21.3193 89.3106 21.2352 89.0679 21.1289C88.8251 21.021 88.6141 20.8878 88.438 20.7275C88.2603 20.5673 88.1223 20.3769 88.0208 20.1532C87.9208 19.9295 87.8701 19.6741 87.8701 19.3854V19.3727C87.8701 19.0792 87.9399 18.8111 88.0811 18.5683C88.2207 18.3256 88.4142 18.1178 88.6586 17.9448C88.9029 17.7719 89.1932 17.6371 89.5248 17.5403C89.8579 17.4435 90.2165 17.3959 90.602 17.3959C90.9875 17.3959 91.335 17.434 91.6554 17.5101C91.9775 17.5863 92.2599 17.7069 92.5026 17.8687C92.7454 18.0305 92.9437 18.2399 93.0976 18.4953C93.2515 18.7508 93.3514 19.057 93.399 19.4108H92.0584C92.0362 19.2791 92.0013 19.1648 91.9537 19.0665C91.9061 18.9681 91.8458 18.8809 91.776 18.8063C91.7062 18.7317 91.6269 18.6699 91.5396 18.6191C91.4524 18.5683 91.3556 18.5287 91.2509 18.4969C91.1462 18.4668 91.0335 18.4446 90.913 18.4319C90.7924 18.4192 90.6671 18.4128 90.5354 18.4128C90.3466 18.4128 90.1705 18.4335 90.0071 18.4747C89.8421 18.516 89.7025 18.5763 89.5835 18.6524C89.4645 18.7286 89.3725 18.8222 89.3043 18.9316C89.236 19.0411 89.2027 19.1664 89.2027 19.306V19.3187C89.2027 19.4504 89.2265 19.5662 89.2757 19.6662C89.3233 19.7677 89.3931 19.855 89.4819 19.9295C89.5724 20.0041 89.6818 20.0676 89.8135 20.1199C89.9452 20.1723 90.0943 20.2167 90.2593 20.2516L91.2572 20.4689C91.5856 20.5387 91.8934 20.6228 92.1806 20.7212C92.4677 20.8196 92.7168 20.9449 92.9294 21.0988C93.142 21.2527 93.3086 21.4399 93.4291 21.6636C93.5497 21.8873 93.61 22.1601 93.61 22.4838V22.4965C93.61 22.7202 93.5767 22.928 93.5116 23.12C93.4466 23.3119 93.353 23.488 93.2324 23.6451C93.1118 23.8022 92.9659 23.9418 92.7961 24.0623C92.6248 24.1829 92.4344 24.2829 92.225 24.3638C92.014 24.4447 91.7871 24.5066 91.5412 24.5478C91.2953 24.5891 91.0399 24.6097 90.7733 24.6097C90.3228 24.6097 89.9151 24.5589 89.5517 24.459L89.5502 24.4637ZM95.6327 23.9942C95.777 24.1496 95.9722 24.2607 96.2197 24.3289C96.4672 24.3971 96.7829 24.4304 97.1684 24.4304H97.9966V23.2882H97.3921C97.2176 23.2882 97.0764 23.2723 96.9685 23.2422C96.8622 23.212 96.7797 23.1628 96.7226 23.0946C96.6655 23.0264 96.629 22.936 96.6115 22.8217C96.5925 22.7075 96.5846 22.5695 96.5846 22.4077V18.7302H98.0489V17.5879H96.5846V15.4207H95.2456V17.5879H94.1953V18.7302H95.2456V22.4346C95.2456 22.8075 95.2741 23.1216 95.3312 23.377C95.3868 23.6324 95.4883 23.8387 95.6327 23.9942ZM100.383 24.4732C100.074 24.3796 99.8072 24.2432 99.582 24.0655C99.3567 23.8878 99.1806 23.6721 99.0537 23.4151C98.9267 23.158 98.8633 22.8709 98.8633 22.552V22.5393C98.8633 22.2982 98.895 22.0808 98.9585 21.8857C99.0219 21.6905 99.1155 21.5176 99.2409 21.3637C99.3662 21.2098 99.5217 21.0766 99.7105 20.9592C99.8993 20.8433 100.118 20.7402 100.367 20.6498C100.616 20.5594 100.897 20.4816 101.208 20.4166C101.519 20.3515 101.86 20.2944 102.233 20.2452C102.517 20.2056 102.742 20.1659 102.909 20.1263C103.075 20.0866 103.204 20.0374 103.293 19.9787C103.382 19.92 103.44 19.8486 103.467 19.7645C103.494 19.682 103.507 19.5757 103.507 19.4488V19.4361C103.507 19.2648 103.474 19.1172 103.409 18.9935C103.344 18.8698 103.248 18.7635 103.126 18.6778C103.004 18.5921 102.855 18.5287 102.68 18.4874C102.506 18.4462 102.308 18.4255 102.089 18.4255C101.87 18.4255 101.652 18.4493 101.462 18.4985C101.272 18.5461 101.107 18.6223 100.97 18.7254C100.832 18.8285 100.724 18.957 100.645 19.1125C100.566 19.268 100.523 19.4552 100.513 19.6741H99.1726C99.1726 19.2807 99.252 18.9396 99.409 18.6524C99.5661 18.3652 99.7787 18.1289 100.045 17.9432C100.312 17.7576 100.623 17.618 100.978 17.526C101.333 17.434 101.705 17.388 102.095 17.388C102.52 17.388 102.901 17.426 103.24 17.5022C103.58 17.5783 103.867 17.7053 104.1 17.8798C104.335 18.0543 104.514 18.2875 104.638 18.5763C104.763 18.865 104.825 19.2204 104.825 19.6408L104.813 22.1554C104.813 22.4045 104.814 22.6329 104.819 22.8392C104.824 23.0454 104.833 23.239 104.849 23.4198C104.865 23.6023 104.886 23.7752 104.914 23.9386C104.943 24.102 104.976 24.2654 105.016 24.4272H103.683L103.674 24.3744C103.668 24.3367 103.663 24.3007 103.656 24.267C103.651 24.2393 103.646 24.2115 103.641 24.1835C103.637 24.1603 103.633 24.1369 103.629 24.1131C103.62 24.0608 103.613 24.0052 103.61 23.9497C103.605 23.8926 103.601 23.8291 103.597 23.7593C103.488 23.8815 103.364 23.9957 103.226 24.1004C103.088 24.2051 102.931 24.2956 102.753 24.3701C102.576 24.4447 102.374 24.5034 102.149 24.5478C101.924 24.5922 101.668 24.6129 101.384 24.6129C101.026 24.6129 100.691 24.5653 100.383 24.4717V24.4732ZM102.197 23.5213C102.357 23.4928 102.503 23.4515 102.636 23.396C102.769 23.3421 102.891 23.2739 103.001 23.1929C103.11 23.112 103.202 23.0168 103.277 22.9074C103.351 22.7979 103.409 22.6757 103.451 22.5393C103.493 22.4029 103.513 22.2553 103.513 22.0935V20.8529C103.382 20.8973 103.256 20.937 103.136 20.975L103.102 20.9852C102.994 21.018 102.891 21.0492 102.791 21.0766C102.682 21.1067 102.576 21.1353 102.473 21.1622C102.434 21.1722 102.396 21.182 102.358 21.1918C102.294 21.2083 102.231 21.2246 102.168 21.2416C101.927 21.2987 101.714 21.3542 101.527 21.4097C101.341 21.4653 101.178 21.5192 101.038 21.5747C100.899 21.6302 100.78 21.6858 100.683 21.7461C100.586 21.8048 100.508 21.8714 100.45 21.946C100.391 22.0205 100.348 22.1014 100.321 22.1887C100.294 22.276 100.282 22.3775 100.282 22.4901V22.4965C100.282 22.6678 100.313 22.8201 100.377 22.9534C100.44 23.0866 100.532 23.1993 100.653 23.2913C100.773 23.3833 100.921 23.4515 101.095 23.4976C101.27 23.5436 101.47 23.5658 101.694 23.5658C101.868 23.5658 102.036 23.5515 102.197 23.5229V23.5213ZM107.844 17.5863H106.504V24.4304H107.844V20.8576C107.844 20.4895 107.889 20.177 107.979 19.9184C108.068 19.6614 108.198 19.4504 108.366 19.2886C108.535 19.1252 108.741 19.0078 108.984 18.9332C109.226 18.8586 109.504 18.8221 109.815 18.8221H110.177V17.5149H110.051C109.783 17.5149 109.536 17.545 109.309 17.6037C109.082 17.6624 108.876 17.7465 108.692 17.8591C108.508 17.9718 108.346 18.1066 108.206 18.2669C108.065 18.4255 107.944 18.6048 107.844 18.8015V17.5863ZM112.849 24.3289C112.601 24.2607 112.406 24.1496 112.262 23.9942C112.117 23.8387 112.016 23.6324 111.96 23.377C111.903 23.1216 111.874 22.8075 111.874 22.4346V18.7302H110.824V17.5879H111.874V15.4207H113.213V17.5879H114.678V18.7302H113.213V22.4077C113.213 22.5695 113.221 22.7075 113.24 22.8217C113.258 22.936 113.294 23.0264 113.351 23.0946C113.409 23.1628 113.491 23.212 113.597 23.2422C113.705 23.2723 113.846 23.2882 114.021 23.2882H114.625V24.4304H113.797C113.412 24.4304 113.096 24.3971 112.849 24.3289ZM116.33 24.0243C116.593 24.2162 116.906 24.3638 117.269 24.4637L117.27 24.459C117.634 24.5589 118.042 24.6097 118.492 24.6097C118.759 24.6097 119.014 24.5891 119.26 24.5478C119.506 24.5066 119.733 24.4447 119.944 24.3638C120.153 24.2829 120.344 24.1829 120.515 24.0623C120.685 23.9418 120.831 23.8022 120.951 23.6451C121.072 23.488 121.165 23.3119 121.23 23.12C121.295 22.928 121.329 22.7202 121.329 22.4965V22.4838C121.329 22.1601 121.268 21.8873 121.148 21.6636C121.027 21.4399 120.861 21.2527 120.648 21.0988C120.436 20.9449 120.186 20.8196 119.899 20.7212C119.612 20.6228 119.304 20.5387 118.976 20.4689L117.978 20.2516C117.813 20.2167 117.664 20.1723 117.532 20.1199C117.401 20.0676 117.291 20.0041 117.201 19.9295C117.112 19.855 117.042 19.7677 116.994 19.6662C116.945 19.5662 116.921 19.4504 116.921 19.3187V19.306C116.921 19.1664 116.955 19.0411 117.023 18.9316C117.091 18.8222 117.183 18.7286 117.302 18.6524C117.421 18.5763 117.561 18.516 117.726 18.4747C117.889 18.4335 118.065 18.4128 118.254 18.4128C118.386 18.4128 118.511 18.4192 118.632 18.4319C118.752 18.4446 118.865 18.4668 118.97 18.4969C119.074 18.5287 119.171 18.5683 119.258 18.6191C119.346 18.6699 119.425 18.7317 119.495 18.8063C119.565 18.8809 119.625 18.9681 119.672 19.0665C119.72 19.1648 119.755 19.2791 119.777 19.4108H121.118C121.07 19.057 120.97 18.7508 120.816 18.4953C120.662 18.2399 120.464 18.0305 120.221 17.8687C119.979 17.7069 119.696 17.5863 119.374 17.5101C119.054 17.434 118.706 17.3959 118.321 17.3959C117.935 17.3959 117.577 17.4435 117.244 17.5403C116.912 17.6371 116.622 17.7719 116.377 17.9448C116.133 18.1178 115.939 18.3256 115.8 18.5683C115.659 18.8111 115.589 19.0792 115.589 19.3727V19.3854C115.589 19.6741 115.64 19.9295 115.74 20.1532C115.841 20.3769 115.979 20.5673 116.157 20.7275C116.333 20.8878 116.544 21.021 116.787 21.1289C117.029 21.2352 117.291 21.3193 117.572 21.3812L118.576 21.5985C118.782 21.6429 118.971 21.6905 119.144 21.7429C119.317 21.7952 119.466 21.8603 119.592 21.9396C119.715 22.0189 119.814 22.1141 119.883 22.2284C119.953 22.3426 119.988 22.4838 119.988 22.6551V22.6678C119.988 22.7725 119.972 22.8677 119.939 22.9534C119.906 23.0391 119.86 23.1168 119.801 23.1866C119.741 23.2564 119.668 23.3167 119.58 23.3643C119.493 23.4135 119.396 23.4547 119.289 23.4896C119.181 23.5261 119.062 23.5499 118.933 23.5658C118.803 23.5816 118.668 23.5896 118.529 23.5896C118.28 23.5896 118.053 23.5674 117.85 23.5214C117.646 23.4753 117.469 23.4024 117.315 23.3008C117.161 23.2009 117.036 23.0708 116.937 22.9137C116.839 22.7567 116.772 22.5663 116.737 22.3426H115.398C115.441 22.7075 115.543 23.0295 115.7 23.3119C115.857 23.5943 116.066 23.8323 116.33 24.0243ZM125.82 15.1701H125.822V24.4288H127.162V20.626C127.162 20.2897 127.196 19.9898 127.261 19.7297C127.326 19.4695 127.426 19.2505 127.559 19.0728C127.692 18.8952 127.862 18.7619 128.065 18.6715C128.268 18.581 128.506 18.5366 128.778 18.5366C129.049 18.5366 129.287 18.581 129.49 18.6715C129.695 18.7619 129.863 18.8952 129.999 19.0728C130.134 19.2505 130.236 19.4695 130.301 19.7297C130.366 19.9898 130.399 20.2897 130.399 20.626V24.4288H131.74V20.3436C131.74 19.8883 131.687 19.479 131.582 19.1157C131.478 18.7524 131.321 18.443 131.113 18.1892C130.903 17.9353 130.645 17.7418 130.334 17.6053C130.023 17.4705 129.66 17.4023 129.244 17.4023C128.99 17.4023 128.76 17.4277 128.554 17.4752C128.348 17.5228 128.16 17.5911 127.992 17.6783C127.822 17.7672 127.672 17.8719 127.535 17.994C127.399 18.1178 127.275 18.2542 127.161 18.4081V15.1701H125.822V15.1685L125.82 15.1701ZM134.591 24.1306C134.847 24.286 135.132 24.4066 135.448 24.4891H135.44C135.756 24.5732 136.095 24.6144 136.459 24.6144C136.906 24.6144 137.307 24.5621 137.664 24.4574C138.021 24.3527 138.335 24.2051 138.607 24.0147C138.88 23.8244 139.105 23.5991 139.287 23.3357C139.47 23.074 139.606 22.7868 139.698 22.4759H138.332C138.267 22.6377 138.183 22.7836 138.08 22.9121C137.977 23.0406 137.852 23.1501 137.702 23.2405C137.553 23.3294 137.38 23.3976 137.181 23.4436C136.982 23.4896 136.755 23.5118 136.502 23.5118C136.283 23.5118 136.078 23.4849 135.888 23.4293C135.697 23.3754 135.523 23.2945 135.366 23.1898C135.207 23.0851 135.069 22.9581 134.948 22.809C134.829 22.6599 134.726 22.4917 134.644 22.3061C134.561 22.1205 134.498 21.9158 134.457 21.6921C134.439 21.5956 134.425 21.4967 134.415 21.3955H139.801V21.3891C139.816 21.0052 139.792 20.6371 139.733 20.2897C139.674 19.9406 139.579 19.6186 139.451 19.3235C139.322 19.0284 139.16 18.7619 138.965 18.5255C138.77 18.2891 138.547 18.086 138.293 17.9179C138.039 17.7497 137.755 17.6212 137.442 17.5308C137.128 17.4403 136.79 17.3959 136.427 17.3959C135.937 17.3959 135.481 17.4816 135.061 17.6513C134.641 17.8211 134.277 18.0638 133.971 18.3764C133.665 18.6889 133.425 19.0649 133.252 19.5028C133.078 19.9406 132.992 20.4293 132.992 20.9671V20.9798C132.992 21.3256 133.027 21.6556 133.097 21.9682C133.168 22.2823 133.27 22.5726 133.406 22.8423C133.543 23.112 133.709 23.3548 133.909 23.5721C134.107 23.7895 134.336 23.9751 134.591 24.1306ZM134.433 20.3119C134.455 20.1483 134.488 19.9966 134.529 19.8566C134.625 19.5424 134.76 19.2822 134.937 19.0744C135.115 18.8666 135.329 18.7127 135.581 18.6112C135.834 18.5112 136.113 18.4604 136.419 18.4604C136.617 18.4604 136.8 18.4811 136.968 18.5223C137.136 18.5636 137.292 18.6239 137.434 18.7032C137.577 18.7825 137.704 18.8761 137.815 18.9856C137.926 19.095 138.023 19.2172 138.104 19.3536C138.185 19.4885 138.248 19.6376 138.294 19.7994C138.34 19.9613 138.37 20.131 138.383 20.3055V20.3119H134.433ZM141.109 17.5863H142.45V18.8015C142.55 18.6048 142.67 18.4255 142.812 18.2669C142.951 18.1066 143.113 17.9718 143.297 17.8591C143.481 17.7465 143.687 17.6624 143.914 17.6037C144.141 17.545 144.389 17.5149 144.657 17.5149H144.782V18.8221H144.42C144.109 18.8221 143.832 18.8586 143.589 18.9332C143.346 19.0078 143.14 19.1252 142.972 19.2886C142.804 19.4504 142.674 19.6614 142.585 19.9184C142.494 20.177 142.45 20.4895 142.45 20.8576V24.4304H141.109V17.5863ZM146.877 24.1306C147.132 24.286 147.418 24.4066 147.733 24.4891H147.725C148.041 24.5732 148.381 24.6144 148.744 24.6144C149.191 24.6144 149.593 24.5621 149.95 24.4574C150.307 24.3527 150.621 24.2051 150.892 24.0147C151.165 23.8244 151.39 23.5991 151.573 23.3357C151.755 23.074 151.891 22.7868 151.983 22.4759H150.617C150.552 22.6377 150.468 22.7836 150.365 22.9121C150.262 23.0406 150.137 23.1501 149.988 23.2405C149.839 23.3294 149.666 23.3976 149.466 23.4436C149.267 23.4896 149.041 23.5118 148.787 23.5118C148.568 23.5118 148.363 23.4849 148.173 23.4293C147.982 23.3754 147.808 23.2945 147.651 23.1898C147.492 23.0851 147.354 22.9581 147.233 22.809C147.115 22.6599 147.011 22.4917 146.929 22.3061C146.846 22.1205 146.783 21.9158 146.742 21.6921C146.724 21.5956 146.71 21.4967 146.7 21.3955H152.087V21.3891C152.101 21.0052 152.077 20.6371 152.018 20.2897C151.96 19.9406 151.864 19.6186 151.736 19.3235C151.607 19.0284 151.446 18.7619 151.25 18.5255C151.055 18.2891 150.832 18.086 150.578 17.9179C150.324 17.7497 150.04 17.6212 149.727 17.5308C149.413 17.4403 149.075 17.3959 148.712 17.3959C148.222 17.3959 147.767 17.4816 147.346 17.6513C146.926 17.8211 146.562 18.0638 146.256 18.3764C145.95 18.6889 145.71 19.0649 145.538 19.5028C145.363 19.9406 145.277 20.4293 145.277 20.9671V20.9798C145.277 21.3256 145.312 21.6556 145.382 21.9682C145.453 22.2823 145.555 22.5726 145.691 22.8423C145.828 23.112 145.994 23.3548 146.194 23.5721C146.393 23.7895 146.621 23.9751 146.877 24.1306ZM146.718 20.3119C146.74 20.1483 146.773 19.9966 146.815 19.8566C146.91 19.5424 147.045 19.2822 147.222 19.0744C147.4 18.8666 147.614 18.7127 147.867 18.6112C148.119 18.5112 148.398 18.4604 148.704 18.4604C148.902 18.4604 149.085 18.4811 149.253 18.5223C149.421 18.5636 149.577 18.6239 149.72 18.7032C149.862 18.7825 149.989 18.8761 150.1 18.9856C150.211 19.095 150.308 19.2172 150.389 19.3536C150.47 19.4885 150.533 19.6376 150.579 19.7994C150.625 19.9613 150.656 20.131 150.668 20.3055V20.3119H146.718Z" fill="#3E3EFF"/>
</svg>
