<svg width="164" height="50" viewBox="0 0 164 50" fill="none" xmlns="http://www.w3.org/2000/svg">
<path d="M62.5029 8.03113H65.5457V22.8637H62.5029V8.03113Z" fill="#06061A"/>
<path d="M72.0994 22.9909C71.5971 22.8639 71.1352 22.6791 70.7137 22.4366C70.298 22.1941 69.9227 21.8997 69.5936 21.559C69.2645 21.2126 68.9873 20.8258 68.7622 20.3985C68.537 19.9655 68.3638 19.4978 68.2483 18.9897C68.1271 18.4817 68.0693 17.9389 68.0693 17.3616V17.3385C68.0693 16.484 68.2021 15.6987 68.4619 14.9886C68.7275 14.2784 69.1028 13.6664 69.5936 13.1526C70.0843 12.6387 70.679 12.2403 71.3777 11.9574C72.0763 11.6745 72.8557 11.5302 73.716 11.5302C74.4897 11.5302 75.1825 11.6341 75.8118 11.8362C76.4354 12.0382 76.9781 12.3211 77.4342 12.6849C77.8904 13.0486 78.2656 13.4759 78.5601 13.9782C78.8546 14.4805 79.0624 15.0348 79.1837 15.6352H76.2564C76.1813 15.3177 76.0659 15.0463 75.9215 14.8096C75.7714 14.5729 75.5982 14.3823 75.3846 14.2265C75.1767 14.0706 74.9342 13.9551 74.6571 13.88C74.3857 13.805 74.0913 13.7646 73.7737 13.7646C73.3753 13.7646 73.0116 13.8454 72.6883 14.0071C72.3649 14.1687 72.0878 14.3997 71.8511 14.7057C71.6144 15.0117 71.4354 15.387 71.3084 15.8315C71.1813 16.2761 71.1178 16.7784 71.1178 17.3385V17.3616C71.1178 17.7426 71.1467 18.0948 71.2044 18.4181C71.2622 18.7415 71.3488 19.0417 71.4585 19.3073C71.5682 19.5729 71.701 19.8096 71.8511 20.0117C72.007 20.2138 72.1802 20.387 72.3765 20.5255C72.5728 20.6641 72.7864 20.7738 73.0174 20.8431C73.2483 20.9124 73.4966 20.947 73.7622 20.947C74.0797 20.947 74.3742 20.9066 74.6455 20.8315C74.9169 20.7565 75.1594 20.6352 75.373 20.4793C75.5809 20.3235 75.7599 20.1271 75.91 19.8904C76.0601 19.6537 76.1698 19.3823 76.2449 19.0763H79.1721C79.0509 19.671 78.8488 20.2253 78.5485 20.7276C78.2541 21.2299 77.8788 21.6687 77.4227 22.0325C76.9666 22.3962 76.4296 22.6791 75.8003 22.8812C75.1767 23.0833 74.4781 23.1814 73.7044 23.1814C73.1444 23.1814 72.6017 23.1179 72.0994 22.9909Z" fill="#06061A"/>
<path d="M83.1087 22.9502C82.6064 22.7943 82.1676 22.5749 81.7981 22.2805C81.4286 21.9918 81.1457 21.6396 80.9378 21.2239C80.7358 20.8082 80.6318 20.3463 80.6318 19.8266V19.8151C80.6318 19.4167 80.6838 19.0588 80.7877 18.7354C80.8916 18.4179 81.0475 18.135 81.2554 17.8809C81.4632 17.6327 81.7173 17.4133 82.0291 17.2227C82.3351 17.0322 82.693 16.8648 83.103 16.7204C83.5071 16.5761 83.9632 16.4548 84.4598 16.3451C84.9563 16.2412 85.499 16.1488 86.088 16.0738C86.5325 16.016 86.8847 15.9583 87.1445 15.9005C87.4101 15.8428 87.6122 15.7678 87.7565 15.6812C87.9009 15.5945 87.9933 15.4906 88.0395 15.3694C88.0856 15.2481 88.1087 15.098 88.1087 14.919V14.9017C88.1087 14.6534 88.0625 14.4456 87.9702 14.2724C87.8778 14.0992 87.745 13.949 87.5718 13.8336C87.3986 13.7181 87.185 13.6315 86.9482 13.5738C86.7057 13.516 86.4344 13.4872 86.1341 13.4872C85.805 13.4872 85.5048 13.5218 85.2334 13.5911C84.9621 13.6604 84.7311 13.7701 84.5406 13.9144C84.3501 14.0645 84.1942 14.2493 84.0903 14.4745C83.9806 14.6996 83.9228 14.9652 83.9055 15.2712H81.1226C81.1341 14.6477 81.2727 14.0992 81.5268 13.6315C81.7808 13.1638 82.133 12.7712 82.5718 12.4537C83.0164 12.1361 83.5418 11.8994 84.1538 11.7377C84.7658 11.5761 85.4355 11.4952 86.1572 11.4952C86.902 11.4952 87.566 11.5588 88.1607 11.68C88.7554 11.8012 89.2519 12.0091 89.6676 12.3036C90.0776 12.598 90.3893 12.9906 90.6087 13.4814C90.8281 13.9721 90.9321 14.5842 90.9321 15.3232L90.9032 19.3936C90.9032 19.7631 90.909 20.1096 90.9205 20.4271C90.9321 20.7447 90.9494 21.0391 90.9725 21.322C90.9956 21.6049 91.0302 21.8705 91.0764 22.1188C91.1226 22.3728 91.1746 22.6153 91.2381 22.8578H88.3743C88.3628 22.7712 88.3455 22.6904 88.3397 22.6153C88.3281 22.5403 88.3166 22.4594 88.3108 22.3844C88.2993 22.3093 88.2935 22.2227 88.2819 22.1361C88.2762 22.0495 88.2704 21.9514 88.2704 21.8474C88.0856 22.0553 87.8836 22.2458 87.6468 22.4075C87.4159 22.5749 87.1561 22.7135 86.8674 22.8232C86.5787 22.9329 86.2612 23.0195 85.909 23.083C85.5568 23.1407 85.1699 23.1696 84.7542 23.1696C84.1653 23.1812 83.6168 23.1003 83.1087 22.9502ZM86.29 21.0911C86.5094 21.0507 86.7057 20.9987 86.8905 20.9236C87.0753 20.8486 87.2369 20.7562 87.387 20.6465C87.5371 20.5368 87.6584 20.404 87.7623 20.2481C87.8662 20.0922 87.9471 19.919 88.0048 19.7285C88.0625 19.538 88.0914 19.3243 88.0914 19.0934V17.3036C87.9009 17.3728 87.7219 17.4363 87.5545 17.4883C87.387 17.5403 87.2254 17.5922 87.0637 17.6384C86.9078 17.6846 86.7519 17.725 86.6076 17.7654C86.4575 17.8059 86.3189 17.8405 86.1861 17.8751C85.8686 17.9618 85.5914 18.0368 85.3431 18.1119C85.0949 18.1869 84.8813 18.262 84.6965 18.337C84.5117 18.4121 84.3501 18.4987 84.2231 18.5853C84.096 18.6719 83.9863 18.7701 83.9055 18.874C83.8247 18.9779 83.7669 19.0934 83.7265 19.2204C83.6861 19.3474 83.6688 19.4918 83.6688 19.6534V19.665C83.6688 19.9017 83.715 20.1153 83.8074 20.3001C83.8997 20.4848 84.0268 20.6407 84.1942 20.7678C84.3616 20.8948 84.5637 20.9929 84.8062 21.0564C85.0487 21.1257 85.3201 21.1546 85.6203 21.1546C85.8455 21.1488 86.0706 21.1315 86.29 21.0911Z" fill="#06061A"/>
<path d="M96.8388 23.0138C96.4115 22.9041 96.0189 22.7309 95.6436 22.5115C95.2741 22.2863 94.9335 22.0092 94.6275 21.6859C94.3215 21.3625 94.0617 20.9815 93.8365 20.5484C93.6171 20.1154 93.4439 19.6362 93.3284 19.1108C93.2071 18.5854 93.1494 18.0138 93.1494 17.396V17.3729C93.1494 16.4491 93.2822 15.6235 93.5478 14.9076C93.8134 14.1859 94.1714 13.5854 94.6275 13.0946C95.0778 12.6039 95.609 12.2286 96.221 11.9745C96.833 11.7205 97.4739 11.5877 98.1552 11.5877C98.5478 11.5877 98.9173 11.6281 99.258 11.709C99.6044 11.7898 99.9162 11.9053 100.205 12.0496C100.494 12.1997 100.748 12.3729 100.979 12.575C101.204 12.7771 101.394 13.0023 101.539 13.239V8.03113H104.472V22.8637H101.539V21.53C101.388 21.7667 101.204 21.9919 100.979 22.1939C100.753 22.396 100.494 22.575 100.205 22.7194C99.9162 22.8695 99.6044 22.9792 99.258 23.06C98.9115 23.1408 98.5478 23.1812 98.1552 23.1812C97.7048 23.1812 97.266 23.1235 96.8388 23.0138ZM99.7025 20.8545C99.9393 20.7852 100.153 20.6812 100.355 20.5484C100.557 20.4157 100.736 20.2482 100.898 20.0461C101.059 19.8441 101.192 19.6131 101.302 19.3533C101.412 19.0877 101.492 18.7933 101.556 18.4699C101.614 18.1466 101.642 17.7829 101.642 17.3903V17.3672C101.642 16.9745 101.614 16.6166 101.556 16.2875C101.498 15.9642 101.412 15.6639 101.302 15.4041C101.192 15.1385 101.059 14.9076 100.898 14.7113C100.736 14.5092 100.557 14.3475 100.355 14.209C100.153 14.0762 99.9393 13.9722 99.7025 13.903C99.4658 13.8337 99.2118 13.799 98.9404 13.799C98.669 13.799 98.415 13.8337 98.1783 13.903C97.9416 13.9722 97.7279 14.0762 97.5259 14.209C97.3238 14.3418 97.1448 14.5092 96.9831 14.7113C96.8215 14.9133 96.6887 15.1443 96.579 15.4041C96.4693 15.6697 96.3884 15.9642 96.3249 16.2875C96.2672 16.6108 96.2383 16.9745 96.2383 17.3672V17.3903C96.2383 17.7829 96.2672 18.1408 96.3249 18.4699C96.3827 18.7933 96.4693 19.0935 96.579 19.3533C96.6887 19.6189 96.8215 19.8498 96.9831 20.0461C97.1448 20.2482 97.3238 20.4099 97.5259 20.5484C97.7279 20.6812 97.9416 20.7852 98.1783 20.8545C98.415 20.9237 98.669 20.9584 98.9404 20.9584C99.2118 20.9584 99.4658 20.9237 99.7025 20.8545Z" fill="#06061A"/>
<path d="M62.7051 26.911H67.6416C68.4499 26.911 69.2062 26.9745 69.9222 27.1073C70.6381 27.2343 71.2963 27.4364 71.9025 27.702C72.503 27.9676 73.0457 28.3025 73.5192 28.7124C73.9926 29.1166 74.3968 29.5958 74.7259 30.15C75.055 30.6985 75.309 31.3221 75.4822 32.0207C75.6554 32.7193 75.7478 33.493 75.7478 34.3533V34.3764C75.7478 35.2193 75.6612 35.9872 75.4822 36.6801C75.309 37.3729 75.055 37.9965 74.7259 38.545C74.3968 39.0935 73.9926 39.5669 73.5192 39.9711C73.0457 40.3752 72.5088 40.7101 71.9025 40.9699C71.3021 41.2355 70.6439 41.4318 69.9279 41.5588C69.2178 41.6858 68.4557 41.7551 67.6416 41.7551H62.7051V26.911ZM67.6069 39.8152C68.2305 39.8152 68.8079 39.769 69.3333 39.6766C69.8587 39.5842 70.3379 39.4457 70.7651 39.2609C71.1924 39.0761 71.5677 38.8336 71.8968 38.5392C72.2201 38.2447 72.4972 37.8983 72.7166 37.4942C72.936 37.09 73.1035 36.6281 73.2189 36.1085C73.3286 35.5888 73.3864 35.0057 73.3864 34.3648V34.3417C73.3864 33.6951 73.3286 33.1119 73.2189 32.5865C73.1092 32.0611 72.9418 31.5935 72.7166 31.1893C72.4972 30.7851 72.2201 30.433 71.8968 30.1327C71.5734 29.8325 71.1924 29.59 70.7651 29.3937C70.3379 29.2032 69.8587 29.0588 69.3333 28.9664C68.8079 28.8741 68.2305 28.8279 67.6069 28.8279H64.9337V39.8094H67.6069V39.8152Z" fill="#3E3EFF"/>
<path d="M78.501 26.911H80.6488V29.3533H78.501V26.911ZM78.501 30.7794H80.6488V41.7436H78.501V30.7794Z" fill="#3E3EFF"/>
<path d="M86.1351 41.7952C85.552 41.6336 85.0497 41.3969 84.6282 41.0909C84.2067 40.7848 83.8718 40.4038 83.6178 39.9477C83.3638 39.4915 83.2021 38.9777 83.1328 38.3946H85.2806C85.3384 38.7525 85.4423 39.0585 85.6039 39.3126C85.7598 39.5666 85.9619 39.7745 86.2102 39.9361C86.4584 40.0978 86.7414 40.2133 87.0705 40.2883C87.3996 40.3634 87.7575 40.398 88.1617 40.398C88.3869 40.398 88.6005 40.3865 88.8083 40.3634C89.0162 40.3403 89.2067 40.2999 89.3742 40.2421C89.5474 40.1844 89.7033 40.1209 89.8418 40.04C89.9804 39.965 90.1016 39.8668 90.194 39.7571C90.2864 39.6474 90.3615 39.5204 90.4134 39.3818C90.4654 39.2433 90.4942 39.0932 90.4942 38.9257V38.9026C90.4942 38.6313 90.4365 38.4003 90.3268 38.2213C90.2171 38.0366 90.0612 37.8865 89.8591 37.7594C89.6571 37.6324 89.4203 37.5285 89.1432 37.4419C88.8661 37.3553 88.5601 37.2802 88.231 37.2109L86.6201 36.8645C86.1698 36.7664 85.7541 36.6336 85.3615 36.4604C84.9746 36.2872 84.634 36.0735 84.3511 35.8195C84.0682 35.5654 83.843 35.2594 83.6813 34.9015C83.5196 34.5435 83.4388 34.1336 83.4388 33.6717V33.6486C83.4388 33.1809 83.5485 32.7479 83.7737 32.3611C83.9989 31.9742 84.3049 31.6394 84.6975 31.3622C85.0901 31.0851 85.552 30.8715 86.0889 30.7156C86.6201 30.5597 87.1975 30.4846 87.8153 30.4846C88.4273 30.4846 88.9873 30.5481 89.5012 30.6694C90.015 30.7906 90.4712 30.9812 90.858 31.241C91.2448 31.5008 91.5624 31.8357 91.8106 32.2456C92.0589 32.6555 92.2148 33.1463 92.2956 33.7121H90.1478C90.1132 33.5042 90.0554 33.3195 89.9804 33.1578C89.9053 33.0019 89.8072 32.8634 89.6975 32.7421C89.5878 32.6209 89.4608 32.5227 89.3164 32.4419C89.1779 32.3611 89.022 32.2976 88.8545 32.2456C88.6871 32.1994 88.5081 32.159 88.3118 32.1417C88.1213 32.1186 87.9192 32.1128 87.7056 32.1128C87.4053 32.1128 87.1224 32.1474 86.8568 32.2109C86.5912 32.2802 86.3661 32.3726 86.1755 32.4939C85.985 32.6151 85.8349 32.7652 85.731 32.9384C85.6213 33.1116 85.5693 33.3137 85.5693 33.5389V33.562C85.5693 33.7698 85.6097 33.9604 85.6848 34.122C85.7598 34.2837 85.8695 34.4223 86.0139 34.5435C86.1582 34.6648 86.3372 34.7629 86.5451 34.8495C86.7529 34.9361 86.9954 35.0054 87.261 35.0574L88.8603 35.4038C89.3857 35.5135 89.8765 35.6521 90.3384 35.8079C90.8003 35.9638 91.1986 36.1659 91.5393 36.4142C91.8799 36.6624 92.1455 36.9627 92.336 37.3206C92.5266 37.6786 92.6247 38.1174 92.6247 38.637V38.6601C92.6247 39.0181 92.5728 39.353 92.4688 39.659C92.3649 39.965 92.2148 40.2479 92.0243 40.5019C91.8337 40.756 91.597 40.9754 91.3257 41.1717C91.0543 41.3622 90.7483 41.5239 90.4076 41.6567C90.0728 41.7837 89.709 41.8818 89.3164 41.9511C88.9238 42.0204 88.5139 42.0493 88.0866 42.0493C87.3707 42.0377 86.7183 41.9569 86.1351 41.7952Z" fill="#3E3EFF"/>
<path d="M98.2626 41.8421C97.7776 41.7151 97.3388 41.5303 96.9347 41.2878C96.5363 41.0511 96.1726 40.7567 95.855 40.416C95.5375 40.0696 95.2661 39.6885 95.0525 39.2613C94.8331 38.834 94.6656 38.3664 94.5502 37.8641C94.4347 37.3617 94.377 36.8248 94.377 36.2647V36.2417C94.377 35.3987 94.504 34.625 94.7638 33.9149C95.0178 33.2047 95.3874 32.5985 95.855 32.0904C96.3285 31.5823 96.9 31.1839 97.5698 30.901C98.2395 30.6181 98.9901 30.4738 99.8158 30.4738C100.526 30.4738 101.173 30.5661 101.756 30.7567C102.339 30.9472 102.853 31.2128 103.292 31.5534C103.73 31.8941 104.094 32.304 104.383 32.7774C104.671 33.2567 104.879 33.7821 105.001 34.3537H102.812C102.72 34.0188 102.587 33.7186 102.408 33.453C102.229 33.1874 102.01 32.968 101.756 32.789C101.502 32.61 101.213 32.4772 100.89 32.3848C100.566 32.2925 100.214 32.2463 99.8389 32.2463C99.377 32.2463 98.9497 32.3329 98.5629 32.5119C98.176 32.6908 97.8354 32.9507 97.5525 33.2913C97.2696 33.632 97.0502 34.0477 96.8885 34.5442C96.7326 35.0407 96.6518 35.6008 96.6518 36.2301V36.2532C96.6518 36.6747 96.6864 37.0673 96.7615 37.4253C96.8365 37.789 96.9405 38.1181 97.0733 38.4126C97.2061 38.7128 97.3677 38.9726 97.5583 39.2035C97.7488 39.4287 97.9624 39.625 98.1934 39.7751C98.4301 39.931 98.6841 40.0465 98.9612 40.1273C99.2384 40.2082 99.5328 40.2486 99.8389 40.2486C100.22 40.2486 100.566 40.2024 100.89 40.1042C101.213 40.0119 101.502 39.8733 101.756 39.6943C102.01 39.5153 102.229 39.2959 102.408 39.0303C102.587 38.7647 102.72 38.4703 102.812 38.1296H105.001C104.879 38.707 104.677 39.2324 104.383 39.7059C104.094 40.1851 103.725 40.595 103.292 40.9356C102.853 41.2821 102.339 41.5477 101.756 41.7324C101.173 41.9229 100.526 42.0153 99.8158 42.0153C99.2673 42.0384 98.7476 41.9691 98.2626 41.8421Z" fill="#3E3EFF"/>
<path d="M109.95 41.5993C109.269 41.3106 108.686 40.9065 108.206 40.3926C107.727 39.8787 107.358 39.2725 107.104 38.5623C106.85 37.8522 106.717 37.0843 106.717 36.2586V36.2356C106.717 35.3984 106.844 34.6305 107.104 33.9319C107.358 33.2332 107.727 32.6212 108.206 32.1074C108.686 31.5935 109.269 31.1894 109.95 30.9007C110.631 30.612 111.405 30.4677 112.26 30.4677C113.114 30.4677 113.888 30.612 114.575 30.9007C115.262 31.1894 115.845 31.5877 116.318 32.1074C116.798 32.6212 117.161 33.2332 117.415 33.9319C117.669 34.6305 117.802 35.3984 117.802 36.2356V36.2586C117.802 37.0843 117.675 37.8522 117.415 38.5623C117.161 39.2725 116.792 39.8787 116.318 40.3926C115.839 40.9065 115.262 41.3048 114.575 41.5993C113.888 41.888 113.114 42.0381 112.26 42.0381C111.399 42.0381 110.631 41.8938 109.95 41.5993ZM113.68 39.9653C114.09 39.769 114.43 39.4919 114.708 39.1397C114.979 38.7875 115.187 38.366 115.325 37.8753C115.464 37.3903 115.533 36.8476 115.533 36.2586V36.2356C115.533 35.6466 115.464 35.1097 115.325 34.6189C115.187 34.1339 114.985 33.7125 114.708 33.3603C114.436 33.0081 114.09 32.7367 113.68 32.5404C113.27 32.3441 112.796 32.2459 112.254 32.2459C111.711 32.2459 111.238 32.3441 110.828 32.5404C110.418 32.7367 110.077 33.0081 109.8 33.3603C109.529 33.7125 109.321 34.1282 109.182 34.6189C109.044 35.1039 108.974 35.6466 108.974 36.2356V36.2586C108.974 36.8476 109.044 37.3845 109.182 37.8753C109.321 38.3603 109.523 38.7817 109.8 39.1397C110.071 39.4919 110.418 39.769 110.828 39.9653C111.238 40.1616 111.711 40.2598 112.254 40.2598C112.796 40.2598 113.27 40.1616 113.68 39.9653Z" fill="#3E3EFF"/>
<path d="M119.046 30.7799H121.384L124.843 39.9774H124.537L128.093 30.7799H130.206L125.842 41.7441H123.422L119.046 30.7799Z" fill="#3E3EFF"/>
<path d="M135.387 41.8357C134.885 41.7029 134.423 41.5123 134.013 41.2641C133.603 41.0158 133.239 40.7156 132.922 40.3691C132.604 40.0227 132.333 39.6301 132.119 39.2029C131.9 38.7698 131.738 38.3079 131.623 37.8056C131.513 37.3033 131.455 36.7779 131.455 36.2236V36.2006C131.455 35.3403 131.594 34.5551 131.871 33.8564C132.148 33.1578 132.529 32.5516 133.026 32.0551C133.516 31.5527 134.099 31.1659 134.769 30.8945C135.445 30.6232 136.172 30.4846 136.957 30.4846C137.541 30.4846 138.083 30.5539 138.586 30.6982C139.088 30.8426 139.538 31.0504 139.948 31.3218C140.352 31.5932 140.716 31.9165 141.028 32.2976C141.34 32.6786 141.599 33.1001 141.807 33.5735C142.015 34.047 142.165 34.5608 142.258 35.1209C142.35 35.6809 142.39 36.2641 142.367 36.8818V36.8934H133.014L132.991 35.1555H140.092V35.144C140.069 34.8611 140.023 34.5955 139.948 34.3357C139.873 34.0758 139.775 33.8391 139.642 33.6197C139.515 33.4003 139.359 33.204 139.18 33.0308C139.001 32.8576 138.799 32.7075 138.568 32.5805C138.343 32.4534 138.089 32.3553 137.823 32.2918C137.552 32.2225 137.263 32.1936 136.946 32.1936C136.455 32.1936 136.011 32.2745 135.606 32.4361C135.202 32.5978 134.862 32.846 134.573 33.1751C134.29 33.51 134.071 33.9257 133.92 34.428C133.77 34.9303 133.695 35.525 133.707 36.2121V36.2352C133.707 36.6336 133.741 37.0146 133.805 37.3726C133.874 37.7306 133.972 38.0597 134.105 38.3541C134.238 38.6544 134.4 38.92 134.596 39.1567C134.786 39.3934 135.012 39.6012 135.266 39.7687C135.52 39.9361 135.797 40.0631 136.103 40.1555C136.409 40.2421 136.738 40.2883 137.084 40.2883C137.489 40.2883 137.852 40.2537 138.176 40.1786C138.493 40.1036 138.776 39.9939 139.013 39.8553C139.25 39.7109 139.452 39.5377 139.619 39.3299C139.786 39.122 139.919 38.8911 140.023 38.6313H142.211C142.061 39.1278 141.848 39.5897 141.553 40.0112C141.265 40.4327 140.901 40.7964 140.462 41.1024C140.029 41.4084 139.527 41.6451 138.955 41.8126C138.383 41.98 137.743 42.0666 137.027 42.0666C136.438 42.0377 135.895 41.9685 135.387 41.8357Z" fill="#3E3EFF"/>
<path d="M144.984 30.7794H147.132V32.7252C147.294 32.4076 147.484 32.1247 147.71 31.8649C147.935 31.6109 148.195 31.3915 148.489 31.2125C148.783 31.0335 149.113 30.8949 149.476 30.8025C149.84 30.7102 150.238 30.6582 150.666 30.6582H150.868V32.754H150.29C149.794 32.754 149.349 32.8118 148.962 32.933C148.576 33.0543 148.241 33.239 147.975 33.4988C147.704 33.7587 147.496 34.0935 147.352 34.5092C147.207 34.9249 147.138 35.4273 147.138 36.0162V41.7379H144.984V30.7794Z" fill="#3E3EFF"/>
<path d="M153.315 43.3434H153.8C154.169 43.3434 154.475 43.3319 154.712 43.303C154.949 43.2741 155.145 43.2106 155.307 43.1125C155.468 43.0143 155.607 42.87 155.716 42.6794C155.826 42.4889 155.942 42.2291 156.051 41.9L156.126 41.6921L151.548 30.7799H153.863L157.281 39.2152H157.304L160.872 30.7799H163.072L158.147 42.0674C157.957 42.512 157.778 42.8931 157.61 43.2222C157.443 43.5455 157.275 43.8226 157.108 44.0536C156.94 44.2788 156.761 44.4693 156.565 44.6136C156.375 44.758 156.149 44.8734 155.901 44.9543C155.653 45.0409 155.37 45.0928 155.047 45.1217C154.729 45.1506 154.354 45.1621 153.927 45.1621H153.315V43.3434Z" fill="#3E3EFF"/>
<path d="M0 0V50H50V0H0Z" fill="#181863"/>
<path d="M0 11.1084V49.9998H38.8914V11.1084H0Z" fill="#3E3EFF"/>
<path d="M0 22.2229V50H27.7771V22.2229H0Z" fill="#9999FF"/>
</svg>
