<svg width="178" height="24" viewBox="0 0 178 24" fill="none" xmlns="http://www.w3.org/2000/svg">
<path fill-rule="evenodd" clip-rule="evenodd" d="M51.3835 22.93C51.9722 23.2848 52.6017 23.5513 53.2747 23.7294L53.2761 23.7281C53.9477 23.9048 54.6452 23.9946 55.3672 23.9946C55.9899 23.9946 56.5732 23.9307 57.117 23.8028C57.6609 23.675 58.1612 23.4956 58.6167 23.2617C59.0721 23.0279 59.48 22.7505 59.8417 22.4283C60.2034 22.106 60.4997 21.7566 60.7336 21.3786V23.4956H65.3821V0H60.7336V8.24881C60.4997 7.87083 60.202 7.52141 59.8417 7.19918C59.48 6.87695 59.0721 6.59959 58.6167 6.36573C58.1612 6.13324 57.6609 5.95241 57.117 5.82461C56.5718 5.6968 55.9899 5.6329 55.3672 5.6329C54.289 5.6329 53.2679 5.83548 52.3012 6.24065C51.3346 6.64582 50.493 7.23725 49.7764 8.01495C49.0599 8.79265 48.4902 9.74983 48.0688 10.8892C47.6459 12.0285 47.4352 13.3297 47.4352 14.7967V14.8307C47.4352 15.8083 47.529 16.7138 47.718 17.5472C47.9056 18.3807 48.1762 19.138 48.5256 19.8219C48.875 20.5058 49.2924 21.1054 49.7751 21.622C50.2591 22.1387 50.7948 22.5751 51.3835 22.93ZM58.841 19.8314C58.5242 20.0421 58.1802 20.2026 57.8077 20.3141C57.4352 20.4256 57.0327 20.4813 56.599 20.4813C56.1653 20.4813 55.7628 20.4256 55.3903 20.3141C55.0178 20.2039 54.6738 20.0421 54.357 19.8314C54.0402 19.6207 53.7547 19.3569 53.4991 19.0401C53.2435 18.7233 53.03 18.3562 52.8573 17.9402C52.6847 17.5241 52.5514 17.0578 52.4576 16.5411C52.3638 16.0245 52.3162 15.4561 52.3162 14.8334V14.7995C52.3162 14.1781 52.3624 13.6084 52.4576 13.0918C52.5514 12.5765 52.6847 12.1088 52.8573 11.6927C53.03 11.2753 53.2435 10.9096 53.4991 10.5928C53.7547 10.276 54.0402 10.0122 54.357 9.80149C54.6738 9.59075 55.0178 9.43032 55.3903 9.31883C55.7628 9.20734 56.1653 9.15159 56.599 9.15159C57.0327 9.15159 57.4352 9.20734 57.8077 9.31883C58.1802 9.42896 58.5242 9.59075 58.841 9.80149C59.1578 10.0122 59.4433 10.276 59.6989 10.5928C59.9545 10.9096 60.168 11.2767 60.3407 11.6927C60.5133 12.1088 60.6466 12.5751 60.7404 13.0918C60.8342 13.6084 60.8818 14.1767 60.8818 14.7995V14.8334C60.8818 15.4548 60.8342 16.0245 60.7404 16.5411C60.6466 17.0564 60.5133 17.5241 60.3407 17.9402C60.168 18.3562 59.9545 18.7233 59.6989 19.0401C59.4433 19.3569 59.1578 19.6207 58.841 19.8314ZM5.57749 0.00161133H0.761719V23.4972H5.57749V0.00161133ZM13.188 22.8226C13.8488 23.2046 14.5803 23.4969 15.3797 23.6968L15.3824 23.6995C16.1819 23.8994 17.0371 24 17.948 24C19.1703 24 20.2757 23.8423 21.2641 23.5255C22.2526 23.2087 23.1078 22.7614 23.8297 22.1835C24.5517 21.6057 25.1459 20.9164 25.6122 20.1169C26.0786 19.3175 26.4062 18.4459 26.5952 17.501H21.963C21.8406 17.9905 21.6639 18.4201 21.43 18.7926C21.1962 19.1652 20.9134 19.4752 20.5803 19.7253C20.2471 19.9755 19.8637 20.1618 19.43 20.2841C18.9963 20.4065 18.5299 20.4677 18.0296 20.4677C17.6081 20.4677 17.2138 20.412 16.8467 20.3005C16.4796 20.189 16.1411 20.0231 15.8297 19.8001C15.5184 19.5785 15.241 19.3066 14.9963 18.9844C14.7516 18.6621 14.5435 18.2909 14.3709 17.8681C14.1982 17.4453 14.065 16.9762 13.9711 16.4595C13.8773 15.9429 13.8297 15.3841 13.8297 14.7845V14.7505C13.8297 13.8613 13.9304 13.0646 14.1302 12.3589C14.3301 11.6546 14.6156 11.0591 14.9881 10.5765C15.3593 10.0938 15.8012 9.72399 16.3124 9.46838C16.8223 9.21278 17.3947 9.08497 18.0282 9.08497C18.5286 9.08497 18.9949 9.14615 19.4287 9.26852C19.8624 9.39089 20.2458 9.57307 20.5789 9.8178C20.912 10.0625 21.1948 10.3698 21.4287 10.7423C21.6611 11.1149 21.8393 11.55 21.9616 12.0503H26.5938C26.4049 11.0958 26.0772 10.2203 25.6108 9.42623C25.1445 8.63086 24.5503 7.94833 23.8284 7.37593C23.1064 6.80353 22.2512 6.35622 21.2628 6.03399C20.2743 5.71312 19.169 5.55132 17.9467 5.55132C16.5803 5.55132 15.3444 5.77566 14.239 6.22569C13.1336 6.67573 12.1928 7.30659 11.4151 8.11692C10.6374 8.92861 10.0391 9.89802 9.62308 11.0251C9.20568 12.1523 8.99766 13.3936 8.99766 14.7491V14.7831C8.99766 15.6954 9.09147 16.5534 9.28046 17.3583C9.46945 18.1631 9.74137 18.9069 10.0976 19.5907C10.4525 20.2733 10.8916 20.8878 11.4137 21.4317C11.9358 21.9755 12.5272 22.4391 13.188 22.8226ZM32.3477 23.6302C31.5483 23.3855 30.8562 23.0334 30.273 22.5725C29.6897 22.1115 29.2369 21.5527 28.9147 20.8974C28.5925 20.2421 28.432 19.5038 28.432 18.6812V18.6649C28.432 18.0313 28.515 17.463 28.6822 16.9572C28.8494 16.4514 29.0955 16.0014 29.4232 15.6071C29.7509 15.2128 30.1588 14.8661 30.6482 14.5657C31.1363 14.2652 31.7033 14.0014 32.3477 13.7744C32.9922 13.5473 33.7087 13.3502 34.4973 13.1829C35.2859 13.0157 36.1465 12.8716 37.0806 12.7492C37.7808 12.6608 38.3382 12.5684 38.7556 12.4746C39.1717 12.3807 39.4939 12.2638 39.7223 12.1251C39.9494 11.9865 40.1003 11.8219 40.1723 11.633C40.2444 11.444 40.2811 11.206 40.2811 10.9164V10.8824C40.2811 10.4936 40.2091 10.1605 40.0649 9.88313C39.9208 9.60576 39.7087 9.37463 39.4314 9.19108C39.154 9.00753 38.8236 8.87157 38.4402 8.7832C38.0568 8.69482 37.6258 8.64995 37.1486 8.64995C36.6265 8.64995 36.152 8.7057 35.7237 8.81719C35.2954 8.92867 34.9297 9.09999 34.6237 9.33384C34.3178 9.5677 34.0799 9.86137 33.9072 10.2176C33.7346 10.5738 33.638 10.9953 33.6163 11.4834H29.2002C29.222 10.495 29.4354 9.62888 29.842 8.88381C30.2471 8.1401 30.8005 7.51739 31.4993 7.01705C32.1995 6.51671 33.0343 6.1401 34.0078 5.88449C34.98 5.62888 36.0377 5.50108 37.1825 5.50108C38.3273 5.50108 39.4178 5.59897 40.3573 5.79203C41.2954 5.98646 42.0908 6.31685 42.7407 6.7832C43.3906 7.24955 43.8882 7.87225 44.2322 8.64995C44.5761 9.42766 44.7488 10.3998 44.7488 11.5663L44.6985 18.015C44.6985 18.6037 44.7067 19.1476 44.723 19.6479C44.7393 20.1483 44.7679 20.62 44.8059 21.0646C44.8454 21.5092 44.8997 21.9307 44.9732 22.3318C45.0452 22.7315 45.1309 23.1204 45.2315 23.4984H40.6985C40.6754 23.3651 40.6564 23.2373 40.6401 23.1149C40.6319 23.0538 40.6234 22.9927 40.6149 22.9316C40.6064 22.8704 40.5979 22.8091 40.5897 22.7478C40.5734 22.6255 40.5585 22.495 40.5476 22.3563C40.5367 22.2176 40.5313 22.0653 40.5313 21.8981C40.2417 22.2312 39.914 22.5289 39.5483 22.79C39.1812 23.051 38.7706 23.2713 38.3151 23.448C37.8596 23.6262 37.3539 23.7621 36.7991 23.8559C36.243 23.9497 35.6326 23.9973 34.9664 23.9973C34.0214 23.9973 33.1499 23.875 32.3505 23.6302H32.3477ZM37.3797 20.6894C37.7237 20.6282 38.0405 20.5398 38.3301 20.4229C38.6183 20.306 38.8793 20.1591 39.1132 19.981C39.3471 19.8029 39.5442 19.5922 39.7046 19.3474C39.8651 19.1027 39.9929 18.8281 40.088 18.5221C40.1819 18.2162 40.2295 17.8804 40.2295 17.5133V14.6799C39.929 14.7914 39.6462 14.8879 39.3797 14.9722C39.1132 15.0551 38.8549 15.1326 38.6047 15.206C38.3545 15.2781 38.1125 15.3447 37.88 15.4059C37.6462 15.4671 37.4246 15.5255 37.2138 15.5813C36.7135 15.7145 36.2689 15.8396 35.8814 15.9565C35.4925 16.0735 35.1513 16.1931 34.8562 16.3141C34.5612 16.4365 34.3124 16.567 34.1057 16.7057C33.9004 16.8444 33.7332 16.9967 33.6054 17.1639C33.4776 17.3311 33.3824 17.5133 33.3226 17.7132C33.2614 17.913 33.2315 18.1415 33.2315 18.3957V18.412C33.2315 18.79 33.3036 19.1258 33.4477 19.4195C33.5918 19.7145 33.7944 19.9606 34.0554 20.1605C34.3165 20.3603 34.6387 20.5126 35.0221 20.6187C35.4055 20.7247 35.8352 20.7764 36.3137 20.7764C36.6808 20.7764 37.0357 20.7465 37.3797 20.6853V20.6894Z" fill="#0C2340"/>
<path fill-rule="evenodd" clip-rule="evenodd" d="M81.3555 3H75.9707V10.8519H77.1518V7.38801H80.9331V6.35759H77.1518V4.03042H81.3555V3ZM82.6257 10.1389C82.8799 10.4092 83.188 10.6231 83.5498 10.7765C83.9117 10.9312 84.3193 11.0079 84.7726 11.0079C85.2259 11.0079 85.6335 10.9312 85.9981 10.7765C86.3613 10.6218 86.6693 10.4092 86.9222 10.1389C87.1751 9.86848 87.3688 9.54564 87.5047 9.17033C87.6405 8.79502 87.7078 8.38877 87.7078 7.95024V7.93948C87.7078 7.49691 87.6405 7.09066 87.5047 6.71939C87.3688 6.34812 87.1751 6.02662 86.9222 5.75355C86.6693 5.48047 86.3613 5.26793 85.9981 5.11593C85.6335 4.96392 85.2259 4.88724 84.7726 4.88724C84.3193 4.88724 83.9117 4.96392 83.5498 5.11593C83.188 5.26793 82.8799 5.48047 82.6257 5.75355C82.3714 6.02662 82.1764 6.34812 82.0405 6.71939C81.9047 7.09066 81.8374 7.49826 81.8374 7.93948V7.95024C81.8374 8.38877 81.9047 8.79502 82.0405 9.17033C82.1764 9.54429 82.3714 9.86848 82.6257 10.1389ZM86.0707 9.473C85.9254 9.65998 85.7438 9.8066 85.5273 9.91018C85.3093 10.0138 85.0591 10.0662 84.7726 10.0662C84.4861 10.0662 84.2345 10.0138 84.018 9.91018C83.8 9.8066 83.6198 9.65998 83.4745 9.473C83.3306 9.28467 83.2216 9.06271 83.149 8.80444C83.0763 8.5475 83.04 8.26232 83.04 7.95024V7.93948C83.04 7.62874 83.0763 7.34356 83.149 7.08528C83.2216 6.82701 83.3292 6.60505 83.4745 6.41942C83.6198 6.23378 83.8014 6.0885 84.018 5.98492C84.2345 5.88134 84.4861 5.82888 84.7726 5.82888C85.0591 5.82888 85.3093 5.88134 85.5273 5.98492C85.7452 6.0885 85.9254 6.23378 86.0707 6.41942C86.2146 6.60505 86.3236 6.82701 86.3962 7.08528C86.4689 7.34222 86.5052 7.6274 86.5052 7.93948V7.95024C86.5052 8.26098 86.4689 8.54616 86.3962 8.80444C86.3236 9.06271 86.216 9.28601 86.0707 9.473ZM90.19 10.7765C89.8281 10.6231 89.52 10.4092 89.2658 10.1389C89.0116 9.86848 88.8165 9.54429 88.6807 9.17033C88.5448 8.79502 88.4775 8.38877 88.4775 7.95024V7.93948C88.4775 7.49826 88.5448 7.09066 88.6807 6.71939C88.8165 6.34812 89.0116 6.02662 89.2658 5.75355C89.52 5.48047 89.8281 5.26793 90.19 5.11593C90.5518 4.96392 90.9594 4.88724 91.4127 4.88724C91.8661 4.88724 92.2737 4.96392 92.6382 5.11593C93.0014 5.26793 93.3094 5.48047 93.5623 5.75355C93.8152 6.02662 94.0089 6.34812 94.1448 6.71939C94.2807 7.09066 94.3479 7.49691 94.3479 7.93948V7.95024C94.3479 8.38877 94.2807 8.79502 94.1448 9.17033C94.0089 9.54564 93.8152 9.86848 93.5623 10.1389C93.3094 10.4092 93.0014 10.6218 92.6382 10.7765C92.2737 10.9312 91.8661 11.0079 91.4127 11.0079C90.9594 11.0079 90.5518 10.9312 90.19 10.7765ZM92.166 9.91018C92.3826 9.8066 92.5642 9.65998 92.7095 9.473C92.8548 9.28601 92.9624 9.06271 93.035 8.80444C93.1077 8.54616 93.144 8.26098 93.144 7.95024V7.93948C93.144 7.6274 93.1077 7.34222 93.035 7.08528C92.9624 6.82701 92.8534 6.60505 92.7095 6.41942C92.5642 6.23378 92.384 6.0885 92.166 5.98492C91.9481 5.88134 91.6979 5.82888 91.4114 5.82888C91.1249 5.82888 90.8733 5.88134 90.6567 5.98492C90.4402 6.0885 90.2586 6.23378 90.1133 6.41942C89.968 6.60505 89.8604 6.82701 89.7877 7.08528C89.7151 7.34356 89.6788 7.62874 89.6788 7.93948V7.95024C89.6788 8.26232 89.7151 8.5475 89.7877 8.80444C89.8604 9.06271 89.9693 9.28467 90.1133 9.473C90.2586 9.65998 90.4388 9.8066 90.6567 9.91018C90.8733 10.0138 91.1249 10.0662 91.4114 10.0662C91.6979 10.0662 91.9481 10.0138 92.166 9.91018ZM95.9892 10.4819C96.1116 10.6138 96.2771 10.7079 96.487 10.7658C96.6968 10.8236 96.9645 10.8518 97.2914 10.8518H97.9936V9.88331H97.481C97.3331 9.88331 97.2134 9.86986 97.1219 9.8443C97.0318 9.81874 96.9618 9.77704 96.9134 9.7192C96.865 9.66136 96.834 9.58468 96.8192 9.48783C96.8031 9.39097 96.7964 9.27394 96.7964 9.13673V6.01858H98.038V5.05005H96.7964V3.21252H95.661V5.05005H94.7705V6.01858H95.661V9.1596C95.661 9.47572 95.6852 9.74207 95.7336 9.95864C95.7807 10.1752 95.8668 10.3501 95.9892 10.4819ZM98.6874 5.04867H99.8631L101.202 9.6371L102.586 5.04867H103.799L105.243 9.64079L106.611 5.04867H107.696L105.908 10.8518H104.633L103.151 6.26308L101.754 10.8518H100.468L98.686 5.04867H98.6874ZM109.367 10.5976C109.584 10.7294 109.826 10.8317 110.094 10.9016L110.087 10.903C110.355 10.9743 110.642 11.0092 110.95 11.0092C111.33 11.0092 111.67 10.9648 111.973 10.8761C112.275 10.7873 112.542 10.6622 112.772 10.5007C113.003 10.3393 113.194 10.1483 113.349 9.92501C113.504 9.70305 113.619 9.45957 113.697 9.19592H112.539C112.484 9.33312 112.413 9.45688 112.325 9.56584C112.238 9.6748 112.132 9.76762 112.005 9.8443C111.879 9.91963 111.731 9.97747 111.563 10.0165C111.394 10.0555 111.202 10.0743 110.987 10.0743C110.801 10.0743 110.628 10.0515 110.466 10.0044C110.305 9.95864 110.157 9.89003 110.024 9.80125C109.889 9.71247 109.772 9.60485 109.67 9.4784C109.569 9.35196 109.481 9.20937 109.412 9.05198C109.342 8.89459 109.288 8.72106 109.253 8.53139C109.238 8.44954 109.226 8.36569 109.217 8.27984H113.785V8.27446C113.797 7.94892 113.777 7.63684 113.727 7.34224C113.677 7.0463 113.596 6.77323 113.487 6.52302C113.379 6.27282 113.241 6.04683 113.076 5.84639C112.91 5.64596 112.721 5.47377 112.505 5.33118C112.29 5.18859 112.049 5.07963 111.784 5.00296C111.518 4.92628 111.232 4.88862 110.924 4.88862C110.508 4.88862 110.122 4.95991 109.765 5.10519C109.409 5.24913 109.101 5.45494 108.841 5.71994C108.582 5.98495 108.378 6.30376 108.232 6.67503C108.084 7.0463 108.011 7.46062 108.011 7.91664V7.9274C108.011 8.22065 108.041 8.50045 108.1 8.76545C108.161 9.0318 108.247 9.27932 108.362 9.50665C108.478 9.73399 108.619 9.9398 108.789 10.1241C108.957 10.3084 109.151 10.4658 109.367 10.5976ZM109.233 7.36108C109.252 7.2224 109.279 7.09371 109.315 6.97501C109.395 6.70866 109.51 6.48805 109.66 6.31183C109.811 6.13561 109.993 6.00512 110.207 5.91903C110.42 5.83429 110.657 5.79124 110.917 5.79124C111.085 5.79124 111.24 5.80873 111.382 5.8437C111.525 5.87868 111.657 5.92979 111.778 5.99705C111.899 6.06431 112.006 6.14368 112.101 6.2365C112.195 6.32932 112.277 6.4329 112.345 6.54858C112.414 6.66292 112.468 6.78937 112.507 6.92658C112.546 7.06379 112.571 7.20773 112.582 7.3557V7.36108H109.233ZM115.782 10.8882C115.52 10.8088 115.294 10.6931 115.103 10.5425C114.911 10.3918 114.762 10.2089 114.655 9.99096C114.547 9.77438 114.493 9.52956 114.493 9.25918V9.24841C114.493 9.04395 114.52 8.85965 114.574 8.6942C114.628 8.52874 114.707 8.38211 114.813 8.25163C114.92 8.12115 115.051 8.00815 115.211 7.90861C115.372 7.81041 115.557 7.72297 115.768 7.64629C115.98 7.56962 116.218 7.5037 116.481 7.44855C116.745 7.3934 117.034 7.34497 117.35 7.30327C117.591 7.26964 117.782 7.23601 117.923 7.20238C118.065 7.16875 118.174 7.12705 118.249 7.07728C118.324 7.02751 118.374 6.96697 118.397 6.89568C118.42 6.82573 118.431 6.7356 118.431 6.62798V6.61722C118.431 6.47194 118.402 6.34684 118.347 6.24192C118.292 6.13565 118.211 6.04686 118.108 5.97422C118.004 5.90158 117.878 5.84777 117.73 5.8128C117.582 5.77783 117.414 5.76034 117.228 5.76034C117.042 5.76034 116.858 5.78052 116.697 5.82222C116.535 5.86257 116.395 5.92714 116.28 6.01458C116.163 6.10202 116.071 6.21098 116.004 6.34281C115.937 6.47463 115.9 6.63337 115.892 6.819H114.755C114.755 6.48539 114.823 6.19618 114.956 5.9527C115.089 5.70922 115.269 5.50879 115.495 5.3514C115.721 5.19401 115.985 5.07564 116.286 4.99761C116.588 4.91959 116.902 4.88058 117.233 4.88058C117.594 4.88058 117.917 4.91287 118.205 4.97744C118.492 5.04201 118.736 5.14962 118.934 5.29759C119.133 5.44556 119.285 5.64331 119.39 5.88813C119.496 6.13295 119.548 6.43428 119.548 6.79075L119.538 8.92288C119.538 9.13407 119.539 9.32778 119.543 9.50266C119.547 9.67753 119.555 9.84164 119.569 9.99499C119.582 10.1497 119.599 10.2963 119.624 10.4349C119.648 10.5734 119.676 10.712 119.71 10.8492H118.58L118.573 10.8045C118.567 10.7725 118.562 10.742 118.557 10.7133C118.553 10.6901 118.549 10.6668 118.545 10.6433L118.544 10.6425C118.541 10.6228 118.538 10.603 118.534 10.5828C118.526 10.5385 118.521 10.4914 118.518 10.4443C118.514 10.3959 118.51 10.3421 118.507 10.2829C118.414 10.3864 118.309 10.4833 118.192 10.5721C118.075 10.6609 117.942 10.7375 117.792 10.8008C117.641 10.864 117.47 10.9138 117.279 10.9514C117.088 10.9891 116.871 11.0066 116.631 11.0066C116.327 11.0066 116.043 10.9662 115.782 10.8869V10.8882ZM117.319 10.0797C117.455 10.0555 117.579 10.0206 117.692 9.97347C117.805 9.92774 117.909 9.86989 118.001 9.80129C118.094 9.73268 118.172 9.65197 118.235 9.55915C118.299 9.46634 118.347 9.36276 118.383 9.24707C118.418 9.13273 118.436 9.00628 118.436 8.86907V7.81713C118.324 7.8548 118.218 7.88843 118.116 7.92071L118.088 7.92921L118.088 7.92925L118.087 7.92932L118.087 7.92937L118.087 7.92949C117.995 7.95724 117.908 7.98367 117.824 8.0068C117.731 8.03236 117.641 8.05658 117.553 8.07944L117.457 8.10451L117.456 8.10463L117.456 8.10475C117.402 8.11865 117.348 8.13241 117.295 8.1467C117.091 8.19513 116.91 8.24221 116.752 8.28929C116.594 8.33638 116.456 8.38211 116.337 8.42785C116.219 8.47493 116.118 8.52201 116.036 8.57313C115.954 8.6229 115.888 8.6794 115.838 8.74262C115.789 8.80585 115.752 8.87445 115.729 8.94844C115.706 9.02242 115.696 9.10851 115.696 9.20402V9.2094C115.696 9.35468 115.723 9.48382 115.776 9.59682C115.83 9.70981 115.908 9.80532 116.011 9.88334C116.113 9.96137 116.238 10.0192 116.386 10.0582C116.534 10.0972 116.703 10.1161 116.893 10.1161C117.041 10.1161 117.184 10.104 117.319 10.0797ZM122.107 5.04878H120.971V10.8519H122.107V7.82256C122.107 7.51048 122.145 7.24548 122.222 7.02621C122.297 6.80829 122.407 6.62938 122.55 6.49217C122.693 6.35362 122.867 6.25407 123.073 6.19085C123.279 6.12762 123.514 6.09669 123.778 6.09669H124.085V4.98825H123.979C123.751 4.98825 123.541 5.01381 123.349 5.06358C123.157 5.11335 122.982 5.18599 122.826 5.28016C122.67 5.37566 122.532 5.49001 122.414 5.62587C122.294 5.76039 122.192 5.91239 122.107 6.0792V5.04878ZM127.672 5.04878H128.809V6.0792C128.894 5.91239 128.996 5.76039 129.116 5.62587C129.234 5.49001 129.371 5.37566 129.527 5.28016C129.683 5.18599 129.858 5.11335 130.051 5.06358C130.243 5.01381 130.453 4.98825 130.68 4.98825H130.786V6.09669H130.48C130.216 6.09669 129.981 6.12762 129.775 6.19085C129.569 6.25407 129.394 6.35362 129.252 6.49217C129.109 6.62938 128.999 6.80829 128.923 7.02621C128.847 7.24548 128.809 7.51048 128.809 7.82256V10.8519H127.672V5.04878ZM132.561 10.5976C132.778 10.7294 133.02 10.8317 133.288 10.9016L133.281 10.903C133.549 10.9743 133.837 11.0092 134.145 11.0092C134.524 11.0092 134.864 10.9648 135.167 10.8761C135.47 10.7873 135.736 10.6622 135.966 10.5007C136.198 10.3393 136.389 10.1483 136.543 9.92501C136.698 9.70305 136.814 9.45957 136.892 9.19592H135.733C135.678 9.33312 135.607 9.45688 135.52 9.56584C135.432 9.6748 135.326 9.76762 135.199 9.8443C135.073 9.91963 134.925 9.97747 134.757 10.0165C134.589 10.0555 134.396 10.0743 134.181 10.0743C133.995 10.0743 133.822 10.0515 133.66 10.0044C133.499 9.95864 133.351 9.89003 133.218 9.80125C133.083 9.71247 132.966 9.60485 132.864 9.4784C132.763 9.35196 132.676 9.20937 132.606 9.05198C132.536 8.89459 132.482 8.72106 132.447 8.53139C132.432 8.44954 132.42 8.36569 132.412 8.27984H136.979V8.27446C136.991 7.94892 136.971 7.63684 136.921 7.34224C136.871 7.0463 136.791 6.77323 136.682 6.52302C136.573 6.27282 136.436 6.04683 136.27 5.84639C136.105 5.64596 135.915 5.47377 135.7 5.33118C135.485 5.18859 135.244 5.07963 134.979 5.00296C134.712 4.92628 134.426 4.88862 134.118 4.88862C133.702 4.88862 133.316 4.95991 132.96 5.10519C132.603 5.24913 132.295 5.45494 132.036 5.71994C131.776 5.98495 131.573 6.30376 131.426 6.67503C131.278 7.0463 131.206 7.46062 131.206 7.91664V7.9274C131.206 8.22065 131.235 8.50045 131.294 8.76545C131.355 9.0318 131.441 9.27932 131.557 9.50665C131.672 9.73399 131.814 9.9398 131.983 10.1241C132.151 10.3084 132.345 10.4658 132.561 10.5976ZM132.427 7.36108C132.446 7.2224 132.473 7.09371 132.509 6.97501C132.59 6.70866 132.704 6.48805 132.855 6.31183C133.005 6.13561 133.187 6.00512 133.401 5.91903C133.615 5.83429 133.852 5.79124 134.111 5.79124C134.279 5.79124 134.434 5.80873 134.577 5.8437C134.719 5.87868 134.851 5.92979 134.972 5.99705C135.093 6.06431 135.201 6.14368 135.295 6.2365C135.389 6.32932 135.471 6.4329 135.54 6.54858C135.608 6.66292 135.662 6.78937 135.701 6.92658C135.74 7.06379 135.766 7.20773 135.776 7.3557V7.36108H132.427ZM137.169 5.04867H138.405L140.158 9.70404L141.958 5.04867H143.077L140.766 10.8518H139.485L137.169 5.04867ZM144.07 10.1389C144.324 10.4092 144.632 10.6231 144.994 10.7765C145.356 10.9312 145.764 11.0079 146.217 11.0079C146.67 11.0079 147.078 10.9312 147.442 10.7765C147.806 10.6218 148.114 10.4092 148.367 10.1389C148.619 9.86848 148.813 9.54564 148.949 9.17033C149.085 8.79502 149.152 8.38877 149.152 7.95024V7.93948C149.152 7.49691 149.085 7.09066 148.949 6.71939C148.813 6.34812 148.619 6.02662 148.367 5.75355C148.114 5.48047 147.806 5.26793 147.442 5.11593C147.078 4.96392 146.67 4.88724 146.217 4.88724C145.764 4.88724 145.356 4.96392 144.994 5.11593C144.632 5.26793 144.324 5.48047 144.07 5.75355C143.816 6.02662 143.621 6.34812 143.485 6.71939C143.349 7.09066 143.282 7.49826 143.282 7.93948V7.95024C143.282 8.38877 143.349 8.79502 143.485 9.17033C143.621 9.54429 143.816 9.86848 144.07 10.1389ZM147.515 9.473C147.37 9.65998 147.188 9.8066 146.972 9.91018C146.754 10.0138 146.503 10.0662 146.217 10.0662C145.93 10.0662 145.679 10.0138 145.462 9.91018C145.244 9.8066 145.064 9.65998 144.919 9.473C144.775 9.28467 144.666 9.06271 144.593 8.80444C144.521 8.5475 144.484 8.26232 144.484 7.95024V7.93948C144.484 7.62874 144.521 7.34356 144.593 7.08528C144.666 6.82701 144.773 6.60505 144.919 6.41942C145.064 6.23378 145.246 6.0885 145.462 5.98492C145.679 5.88134 145.93 5.82888 146.217 5.82888C146.503 5.82888 146.754 5.88134 146.972 5.98492C147.189 6.0885 147.37 6.23378 147.515 6.41942C147.659 6.60505 147.768 6.82701 147.841 7.08528C147.913 7.34222 147.949 7.6274 147.949 7.93948V7.95024C147.949 8.26098 147.913 8.54616 147.841 8.80444C147.768 9.06271 147.66 9.28601 147.515 9.473ZM150.269 3H151.406V10.8519H150.269V3ZM153.358 10.3393C153.534 10.5545 153.755 10.7186 154.018 10.8343L154.017 10.837C154.281 10.9514 154.589 11.0092 154.941 11.0092C155.156 11.0092 155.352 10.9877 155.526 10.9473C155.701 10.907 155.86 10.8491 156.003 10.7751C156.145 10.7012 156.274 10.611 156.39 10.5048C156.506 10.3985 156.611 10.2828 156.707 10.1564V10.8518H157.844V5.04867H156.707V8.27309C156.707 8.55827 156.679 8.81252 156.624 9.03313C156.569 9.25374 156.484 9.43937 156.371 9.59003C156.257 9.7407 156.114 9.85369 155.942 9.93037C155.77 10.007 155.568 10.0447 155.338 10.0447C155.108 10.0447 154.906 10.007 154.734 9.93037C154.561 9.85369 154.418 9.7407 154.305 9.59003C154.192 9.43937 154.107 9.25374 154.049 9.03313C153.992 8.81252 153.963 8.55962 153.963 8.27309V5.04867H152.827V8.51254C152.827 8.89861 152.871 9.24567 152.96 9.55371C153.049 9.86176 153.182 10.1241 153.358 10.3393ZM160.427 10.7658C160.217 10.7079 160.052 10.6138 159.93 10.4819C159.807 10.3501 159.721 10.1752 159.674 9.95864C159.626 9.74207 159.601 9.47572 159.601 9.1596V6.01858H158.711V5.05005H159.601V3.21252H160.737V5.05005H161.978V6.01858H160.737V9.13673C160.737 9.27394 160.743 9.39097 160.76 9.48783C160.774 9.58468 160.805 9.66136 160.854 9.7192C160.902 9.77704 160.972 9.81874 161.062 9.8443C161.154 9.86986 161.273 9.88331 161.421 9.88331H161.934V10.8518H161.232C160.905 10.8518 160.637 10.8236 160.427 10.7658ZM164.11 3H162.974V4.29138H164.11V3ZM164.11 5.04872H162.974V10.8519H164.11V5.04872ZM166.958 10.7765C166.596 10.6231 166.288 10.4092 166.034 10.1389C165.78 9.86848 165.585 9.54429 165.449 9.17033C165.313 8.79502 165.246 8.38877 165.246 7.95024V7.93948C165.246 7.49826 165.313 7.09066 165.449 6.71939C165.585 6.34812 165.78 6.02662 166.034 5.75355C166.288 5.48047 166.596 5.26793 166.958 5.11593C167.32 4.96392 167.727 4.88724 168.181 4.88724C168.634 4.88724 169.042 4.96392 169.406 5.11593C169.769 5.26793 170.077 5.48047 170.33 5.75355C170.583 6.02662 170.777 6.34812 170.913 6.71939C171.049 7.09066 171.116 7.49691 171.116 7.93948V7.95024C171.116 8.38877 171.049 8.79502 170.913 9.17033C170.777 9.54564 170.583 9.86848 170.33 10.1389C170.077 10.4092 169.769 10.6218 169.406 10.7765C169.042 10.9312 168.634 11.0079 168.181 11.0079C167.727 11.0079 167.32 10.9312 166.958 10.7765ZM168.935 9.91018C169.152 9.8066 169.334 9.65998 169.479 9.473C169.624 9.28601 169.732 9.06271 169.804 8.80444C169.877 8.54616 169.913 8.26098 169.913 7.95024V7.93948C169.913 7.6274 169.877 7.34222 169.804 7.08528C169.732 6.82701 169.623 6.60505 169.479 6.41942C169.334 6.23378 169.153 6.0885 168.935 5.98492C168.717 5.88134 168.467 5.82888 168.181 5.82888C167.894 5.82888 167.643 5.88134 167.426 5.98492C167.21 6.0885 167.028 6.23378 166.883 6.41942C166.737 6.60505 166.63 6.82701 166.557 7.08528C166.484 7.34356 166.448 7.62874 166.448 7.93948V7.95024C166.448 8.26232 166.484 8.5475 166.557 8.80444C166.63 9.06271 166.739 9.28467 166.883 9.473C167.028 9.65998 167.208 9.8066 167.426 9.91018C167.643 10.0138 167.894 10.0662 168.181 10.0662C168.467 10.0662 168.717 10.0138 168.935 9.91018ZM172.221 5.04868H172.22L172.221 5.04599V5.04868ZM172.221 5.04868H173.356V5.74415C173.453 5.61366 173.558 5.49663 173.674 5.39305C173.789 5.28947 173.917 5.20069 174.061 5.12536C174.204 5.05137 174.363 4.99353 174.537 4.95317C174.712 4.91282 174.907 4.8913 175.123 4.8913C175.475 4.8913 175.783 4.94914 176.047 5.06348C176.31 5.17917 176.53 5.34328 176.707 5.55851C176.883 5.77374 177.017 6.03605 177.105 6.3441C177.194 6.65215 177.239 6.99921 177.239 7.38528V10.8491H176.102V7.62472C176.102 7.33954 176.074 7.0853 176.018 6.86469C175.963 6.64408 175.877 6.45844 175.763 6.30778C175.647 6.15712 175.505 6.04412 175.331 5.96745C175.159 5.89077 174.957 5.85311 174.727 5.85311C174.497 5.85311 174.295 5.89077 174.123 5.96745C173.951 6.04412 173.807 6.15712 173.694 6.30778C173.581 6.45844 173.496 6.64408 173.441 6.86469C173.386 7.0853 173.358 7.33954 173.358 7.62472V10.8491H172.221V5.04868ZM76.9678 20.8722C76.6598 20.7874 76.3948 20.6623 76.1715 20.4996C75.9482 20.3368 75.7706 20.135 75.6374 19.8956C75.5043 19.6561 75.4182 19.3831 75.3818 19.0737H76.5172C76.5468 19.2633 76.6033 19.4248 76.6867 19.5579C76.7701 19.6911 76.8763 19.8014 77.0068 19.8862C77.1373 19.9723 77.288 20.0341 77.4602 20.0731C77.6323 20.1122 77.8247 20.131 78.0359 20.131C78.1543 20.131 78.2686 20.1243 78.3789 20.1108C78.4879 20.0974 78.5888 20.0772 78.6802 20.0462C78.7717 20.0167 78.8538 19.9817 78.9278 19.94C79.0017 19.8996 79.0636 19.8485 79.1147 19.7893C79.1645 19.7301 79.2035 19.6642 79.2318 19.5916C79.26 19.5189 79.2735 19.4382 79.2735 19.3494V19.3387C79.2735 19.1934 79.2439 19.0737 79.1847 18.9768C79.1255 18.88 79.0421 18.7993 78.9372 18.732C78.8309 18.6647 78.7045 18.6096 78.5578 18.5652C78.4112 18.5208 78.2511 18.4804 78.0763 18.4428L77.2247 18.2585C76.9866 18.206 76.7647 18.1347 76.5589 18.0446C76.3531 17.9531 76.1742 17.8401 76.0248 17.7043C75.8742 17.5684 75.7571 17.407 75.6711 17.2173C75.5863 17.0276 75.5433 16.8111 75.5433 16.5662V16.5555C75.5433 16.3066 75.6025 16.0793 75.7222 15.8735C75.8405 15.6677 76.0047 15.4914 76.2118 15.3448C76.419 15.1982 76.6651 15.0838 76.9463 15.0018C77.2288 14.9197 77.5328 14.8794 77.8597 14.8794C78.1866 14.8794 78.4812 14.9117 78.7529 14.9762C79.026 15.0408 79.2654 15.143 79.4712 15.2802C79.677 15.4174 79.8452 15.595 79.9757 15.8116C80.1061 16.0282 80.1909 16.2878 80.2312 16.5878H79.0946C79.0757 16.4761 79.0461 16.3793 79.0058 16.2959C78.9654 16.2125 78.9143 16.1385 78.8551 16.0752C78.7959 16.012 78.7287 15.9596 78.6547 15.9165C78.5807 15.8735 78.4986 15.8398 78.4099 15.8129C78.3211 15.7874 78.2256 15.7685 78.1233 15.7578C78.0211 15.747 77.9148 15.7416 77.8032 15.7416C77.6431 15.7416 77.4938 15.7591 77.3552 15.7941C77.2153 15.8291 77.097 15.8802 76.9961 15.9448C76.8952 16.0093 76.8172 16.0887 76.7593 16.1815C76.7015 16.2743 76.6732 16.3806 76.6732 16.499V16.5097C76.6732 16.6214 76.6934 16.7196 76.7351 16.8043C76.7755 16.8904 76.8346 16.9644 76.91 17.0276C76.9866 17.0909 77.0795 17.1447 77.1911 17.1891C77.3028 17.2335 77.4292 17.2711 77.5691 17.3007L78.4152 17.485C78.6937 17.5442 78.9547 17.6155 79.1981 17.6989C79.4416 17.7823 79.6528 17.8886 79.8331 18.019C80.0133 18.1495 80.1546 18.3083 80.2568 18.4979C80.359 18.6876 80.4102 18.919 80.4102 19.1934V19.2042C80.4102 19.3938 80.3819 19.57 80.3268 19.7328C80.2716 19.8956 80.1922 20.0449 80.09 20.1781C79.9878 20.3112 79.864 20.4296 79.7201 20.5319C79.5748 20.6341 79.4134 20.7188 79.2358 20.7874C79.0569 20.856 78.8645 20.9085 78.656 20.9435C78.4475 20.9785 78.2309 20.9959 78.005 20.9959C77.6229 20.9959 77.2772 20.9529 76.9692 20.8682L76.9678 20.8722ZM82.1245 20.4741C82.2469 20.6059 82.4124 20.7 82.6222 20.7579C82.8321 20.8157 83.0998 20.844 83.4266 20.844H84.1288V19.8754H83.6163C83.4683 19.8754 83.3486 19.862 83.2571 19.8364C83.167 19.8109 83.0971 19.7692 83.0486 19.7113C83.0002 19.6535 82.9693 19.5768 82.9545 19.48C82.9383 19.3831 82.9316 19.2661 82.9316 19.1289V16.0107H84.1732V15.0422H82.9316V13.2046H81.7963V15.0422H80.9058V16.0107H81.7963V19.1517C81.7963 19.4678 81.8205 19.7342 81.8689 19.9508C81.916 20.1673 82.0021 20.3422 82.1245 20.4741ZM86.1539 20.8803C85.8916 20.8009 85.6656 20.6852 85.4746 20.5345C85.2836 20.3839 85.1343 20.2009 85.0267 19.983C84.919 19.7651 84.8652 19.5216 84.8652 19.2512V19.2405C84.8652 19.036 84.8921 18.8517 84.9459 18.6863C84.9998 18.5208 85.0791 18.3742 85.1854 18.2437C85.2917 18.1132 85.4235 18.0002 85.5836 17.9007C85.7436 17.8025 85.9293 17.715 86.1405 17.6384C86.3517 17.5617 86.5898 17.4958 86.8534 17.4406C87.1171 17.3855 87.4063 17.337 87.7224 17.2953C87.9632 17.2617 88.1542 17.2281 88.2955 17.1944C88.4367 17.1608 88.5457 17.1191 88.621 17.0693C88.6963 17.0196 88.7461 16.959 88.769 16.8877C88.7918 16.8178 88.8026 16.7277 88.8026 16.62V16.6093C88.8026 16.464 88.7744 16.3389 88.7192 16.234C88.664 16.129 88.5833 16.0389 88.4798 15.9663C88.3762 15.8936 88.2497 15.8398 88.1018 15.8049C87.9538 15.7699 87.7856 15.7524 87.6 15.7524C87.4144 15.7524 87.2301 15.7726 87.0686 15.8143C86.9072 15.8546 86.7673 15.9192 86.6516 16.0066C86.5346 16.0941 86.4431 16.203 86.3759 16.3349C86.3086 16.4667 86.2723 16.6254 86.2642 16.8111H85.1275C85.1275 16.4775 85.1948 16.1882 85.328 15.9448C85.4611 15.7013 85.6414 15.5008 85.8674 15.3435C86.0934 15.1861 86.357 15.0677 86.6584 14.9897C86.9597 14.9117 87.2745 14.8726 87.6054 14.8726C87.9659 14.8726 88.2887 14.9049 88.5766 14.9695C88.8645 15.0341 89.108 15.1417 89.3057 15.2896C89.5048 15.4376 89.6568 15.6354 89.7617 15.8802C89.868 16.125 89.9205 16.4263 89.9205 16.7828L89.9097 18.9149C89.9097 19.1261 89.911 19.3198 89.9151 19.4947C89.9191 19.6696 89.9272 19.8337 89.9406 19.9871C89.9541 20.1417 89.9716 20.2884 89.9958 20.4269C90.02 20.5655 90.0482 20.704 90.0819 20.8412H88.9519L88.9446 20.7964L88.9446 20.7964C88.9395 20.7644 88.9346 20.734 88.929 20.7054C88.9247 20.6819 88.9207 20.6585 88.9166 20.6348L88.9166 20.6347L88.9166 20.6347L88.9166 20.6346C88.9132 20.6149 88.9098 20.595 88.9062 20.5749C88.8981 20.5305 88.8927 20.4834 88.89 20.4363C88.886 20.3879 88.882 20.3341 88.8793 20.2749C88.7865 20.3785 88.6815 20.4754 88.5645 20.5641C88.4475 20.6529 88.3143 20.7296 88.1636 20.7928C88.013 20.856 87.8421 20.9058 87.6511 20.9435C87.4601 20.9811 87.2435 20.9986 87.0027 20.9986C86.6987 20.9986 86.4149 20.9583 86.1539 20.8789V20.8803ZM87.6915 20.0731C87.8273 20.0489 87.9511 20.014 88.0641 19.9669C88.1771 19.9211 88.2807 19.8633 88.3735 19.7947C88.4663 19.7261 88.5443 19.6454 88.6075 19.5526C88.6708 19.4597 88.7192 19.3562 88.7555 19.2405C88.7905 19.1248 88.808 18.9997 88.808 18.8625V17.8105C88.6963 17.8482 88.5901 17.8818 88.4878 17.9141L88.4595 17.9227C88.3677 17.9505 88.2801 17.977 88.1959 18.0002C88.1031 18.0258 88.013 18.05 87.9255 18.0728L87.8287 18.0979L87.8286 18.0979C87.7743 18.1119 87.7205 18.1257 87.6673 18.1401C87.4628 18.1885 87.2825 18.2356 87.1238 18.2827C86.9664 18.3298 86.8279 18.3755 86.7095 18.4226C86.5911 18.4697 86.4902 18.5168 86.4082 18.5679C86.3261 18.6176 86.2602 18.6741 86.2104 18.7374C86.1606 18.8006 86.1243 18.8692 86.1015 18.9432C86.0786 19.0172 86.0678 19.1033 86.0678 19.1988V19.2042C86.0678 19.3494 86.0947 19.4786 86.1485 19.5916C86.2024 19.7046 86.2804 19.8001 86.3826 19.8781C86.4848 19.9561 86.6099 20.014 86.7579 20.053C86.9059 20.092 87.0754 20.1108 87.265 20.1108C87.413 20.1108 87.5556 20.0987 87.6915 20.0745V20.0731ZM92.4794 15.0408H91.3428V20.8439H92.4794V17.8146C92.4794 17.5025 92.5171 17.2375 92.5938 17.0182C92.6691 16.8003 92.7794 16.6214 92.922 16.4842C93.0646 16.3456 93.2395 16.2461 93.4453 16.1828C93.6511 16.1196 93.8865 16.0887 94.1502 16.0887H94.4569V14.9802H94.3506C94.1233 14.9802 93.9134 15.0058 93.7211 15.0556C93.5287 15.1053 93.3538 15.1766 93.1978 15.2721C93.0417 15.3677 92.9045 15.482 92.7861 15.6179C92.6664 15.7524 92.5642 15.9044 92.4794 16.0712V15.0408ZM96.7243 20.7579C96.5144 20.7 96.349 20.6059 96.2265 20.4741C96.1041 20.3422 96.018 20.1673 95.971 19.9508C95.9225 19.7342 95.8983 19.4678 95.8983 19.1517V16.0107H95.0078V15.0422H95.8983V13.2046H97.0337V15.0422H98.2753V16.0107H97.0337V19.1289C97.0337 19.2661 97.0404 19.3831 97.0565 19.48C97.0713 19.5768 97.1023 19.6535 97.1507 19.7113C97.1991 19.7692 97.2691 19.8109 97.3592 19.8364C97.4507 19.862 97.5704 19.8754 97.7184 19.8754H98.2309V20.844H97.5287C97.2018 20.844 96.9341 20.8157 96.7243 20.7579ZM99.6734 20.4996C99.8967 20.6623 100.162 20.7874 100.47 20.8722L100.471 20.8682C100.779 20.9529 101.125 20.9959 101.507 20.9959C101.733 20.9959 101.949 20.9785 102.158 20.9435C102.366 20.9085 102.559 20.856 102.738 20.7874C102.915 20.7188 103.077 20.6341 103.222 20.5319C103.366 20.4296 103.49 20.3112 103.592 20.1781C103.694 20.0449 103.774 19.8956 103.829 19.7328C103.884 19.57 103.912 19.3938 103.912 19.2042V19.1934C103.912 18.919 103.861 18.6876 103.759 18.4979C103.657 18.3083 103.515 18.1495 103.335 18.019C103.155 17.8886 102.944 17.7823 102.7 17.6989C102.457 17.6155 102.196 17.5442 101.917 17.485L101.071 17.3007C100.931 17.2711 100.805 17.2335 100.693 17.1891C100.581 17.1447 100.489 17.0909 100.412 17.0276C100.337 16.9644 100.277 16.8904 100.237 16.8043C100.195 16.7196 100.175 16.6214 100.175 16.5097V16.499C100.175 16.3806 100.203 16.2743 100.261 16.1815C100.319 16.0887 100.397 16.0093 100.498 15.9448C100.599 15.8802 100.717 15.8291 100.857 15.7941C100.996 15.7591 101.145 15.7416 101.305 15.7416C101.417 15.7416 101.523 15.747 101.625 15.7578C101.728 15.7685 101.823 15.7874 101.912 15.8129C102.001 15.8398 102.083 15.8735 102.157 15.9165C102.231 15.9596 102.298 16.012 102.357 16.0752C102.416 16.1385 102.467 16.2125 102.508 16.2959C102.548 16.3793 102.578 16.4761 102.596 16.5878H103.733C103.693 16.2878 103.608 16.0282 103.478 15.8116C103.347 15.595 103.179 15.4174 102.973 15.2802C102.767 15.143 102.528 15.0408 102.255 14.9762C101.983 14.9117 101.688 14.8794 101.362 14.8794C101.035 14.8794 100.731 14.9197 100.448 15.0018C100.167 15.0838 99.9209 15.1982 99.7138 15.3448C99.5066 15.4914 99.3425 15.6677 99.2241 15.8735C99.1044 16.0793 99.0452 16.3066 99.0452 16.5555V16.5662C99.0452 16.8111 99.0882 17.0276 99.173 17.2173C99.2591 17.407 99.3761 17.5684 99.5268 17.7043C99.6761 17.8401 99.855 17.9531 100.061 18.0446C100.267 18.1347 100.489 18.206 100.727 18.2585L101.578 18.4428C101.753 18.4804 101.913 18.5208 102.06 18.5652C102.206 18.6096 102.333 18.6647 102.439 18.732C102.544 18.7993 102.627 18.88 102.687 18.9768C102.746 19.0737 102.775 19.1934 102.775 19.3387V19.3494C102.775 19.4382 102.762 19.5189 102.734 19.5916C102.705 19.6642 102.666 19.7301 102.617 19.7893C102.566 19.8485 102.504 19.8996 102.43 19.94C102.356 19.9817 102.274 20.0167 102.182 20.0462C102.091 20.0772 101.99 20.0974 101.881 20.1108C101.771 20.1243 101.656 20.131 101.538 20.131C101.327 20.131 101.134 20.1122 100.962 20.0731C100.79 20.0341 100.639 19.9723 100.509 19.8862C100.378 19.8014 100.272 19.6911 100.189 19.5579C100.105 19.4248 100.049 19.2633 100.019 19.0737H98.8838C98.9201 19.3831 99.0062 19.6561 99.1394 19.8956C99.2725 20.135 99.4501 20.3368 99.6734 20.4996ZM107.721 12.992H107.723V20.8426H108.859V17.6181C108.859 17.333 108.887 17.0787 108.943 16.8581C108.998 16.6375 109.082 16.4519 109.195 16.3012C109.308 16.1505 109.452 16.0375 109.625 15.9609C109.797 15.8842 109.999 15.8465 110.229 15.8465C110.459 15.8465 110.66 15.8842 110.833 15.9609C111.006 16.0375 111.149 16.1505 111.264 16.3012C111.379 16.4519 111.465 16.6375 111.52 16.8581C111.575 17.0787 111.603 17.333 111.603 17.6181V20.8426H112.74V17.3787C112.74 16.9926 112.696 16.6456 112.607 16.3375C112.518 16.0295 112.385 15.7672 112.209 15.5519C112.031 15.3367 111.812 15.1726 111.548 15.0569C111.285 14.9426 110.977 14.8847 110.624 14.8847C110.409 14.8847 110.214 14.9062 110.039 14.9466C109.864 14.9869 109.705 15.0448 109.563 15.1188C109.419 15.1941 109.291 15.2829 109.175 15.3865C109.06 15.4914 108.955 15.6071 108.858 15.7376V12.992H107.723V12.9907L107.721 12.992ZM115.159 20.5897C115.376 20.7215 115.618 20.8238 115.886 20.8937H115.879C116.147 20.965 116.434 21 116.742 21C117.122 21 117.462 20.9556 117.765 20.8668C118.067 20.778 118.334 20.6529 118.564 20.4915C118.795 20.3301 118.986 20.1391 119.141 19.9158C119.296 19.6938 119.411 19.4503 119.489 19.1867H118.331C118.276 19.3239 118.205 19.4476 118.117 19.5566C118.03 19.6656 117.924 19.7584 117.797 19.8351C117.671 19.9104 117.524 19.9682 117.354 20.0072C117.186 20.0462 116.994 20.0651 116.779 20.0651C116.593 20.0651 116.42 20.0422 116.258 19.9951C116.097 19.9494 115.949 19.8808 115.816 19.792C115.681 19.7032 115.564 19.5956 115.462 19.4692C115.361 19.3427 115.273 19.2001 115.204 19.0427C115.134 18.8853 115.08 18.7118 115.045 18.5221C115.03 18.4403 115.018 18.3564 115.009 18.2706H119.577V18.2652C119.589 17.9397 119.569 17.6276 119.519 17.333C119.469 17.0371 119.388 16.764 119.279 16.5138C119.171 16.2636 119.033 16.0376 118.868 15.8371C118.702 15.6367 118.513 15.4645 118.297 15.3219C118.082 15.1793 117.841 15.0704 117.576 14.9937C117.31 14.917 117.024 14.8794 116.716 14.8794C116.3 14.8794 115.914 14.952 115.557 15.0959C115.201 15.2399 114.893 15.4457 114.633 15.7107C114.374 15.9757 114.17 16.2945 114.024 16.6658C113.876 17.0371 113.803 17.4514 113.803 17.9074V17.9182C113.803 18.2114 113.833 18.4912 113.892 18.7562C113.953 19.0226 114.039 19.2687 114.154 19.4974C114.27 19.7261 114.411 19.9319 114.581 20.1162C114.749 20.3005 114.943 20.4579 115.159 20.5897ZM115.025 17.3518C115.044 17.2132 115.071 17.0845 115.107 16.9658C115.187 16.6994 115.302 16.4788 115.452 16.3026C115.603 16.1264 115.785 15.9959 115.999 15.9098C116.212 15.825 116.449 15.782 116.709 15.782C116.877 15.782 117.032 15.7995 117.174 15.8345C117.317 15.8694 117.449 15.9205 117.57 15.9878C117.691 16.0551 117.798 16.1344 117.893 16.2273C117.987 16.3201 118.069 16.4236 118.137 16.5393C118.206 16.6537 118.26 16.7801 118.299 16.9173C118.338 17.0545 118.363 17.1985 118.374 17.3465V17.3518H115.025ZM120.685 15.0408H121.822V16.0712C121.906 15.9044 122.009 15.7524 122.128 15.6179C122.247 15.482 122.384 15.3677 122.54 15.2721C122.696 15.1766 122.871 15.1053 123.063 15.0556C123.256 15.0058 123.466 14.9802 123.693 14.9802H123.799V16.0887H123.492C123.229 16.0887 122.993 16.1196 122.788 16.1828C122.582 16.2461 122.407 16.3456 122.264 16.4842C122.122 16.6214 122.011 16.8003 121.936 17.0182C121.859 17.2375 121.822 17.5025 121.822 17.8146V20.8439H120.685V15.0408ZM125.574 20.5897C125.791 20.7215 126.033 20.8238 126.301 20.8937H126.294C126.562 20.965 126.849 21 127.157 21C127.537 21 127.877 20.9556 128.18 20.8668C128.482 20.778 128.749 20.6529 128.979 20.4915C129.21 20.3301 129.401 20.1391 129.556 19.9158C129.711 19.6938 129.826 19.4503 129.904 19.1867H128.746C128.691 19.3239 128.62 19.4476 128.532 19.5566C128.445 19.6656 128.339 19.7584 128.212 19.8351C128.086 19.9104 127.939 19.9682 127.77 20.0072C127.601 20.0462 127.409 20.0651 127.194 20.0651C127.008 20.0651 126.835 20.0422 126.673 19.9951C126.512 19.9494 126.364 19.8808 126.231 19.792C126.096 19.7032 125.979 19.5956 125.877 19.4692C125.776 19.3427 125.689 19.2001 125.619 19.0427C125.549 18.8853 125.495 18.7118 125.46 18.5221C125.445 18.4403 125.433 18.3564 125.424 18.2706H129.992V18.2652C130.004 17.9397 129.984 17.6276 129.934 17.333C129.884 17.0371 129.803 16.764 129.694 16.5138C129.586 16.2636 129.448 16.0376 129.283 15.8371C129.117 15.6367 128.928 15.4645 128.713 15.3219C128.497 15.1793 128.256 15.0704 127.991 14.9937C127.725 14.917 127.439 14.8794 127.131 14.8794C126.715 14.8794 126.329 14.952 125.972 15.0959C125.616 15.2399 125.308 15.4457 125.048 15.7107C124.789 15.9757 124.585 16.2945 124.439 16.6658C124.291 17.0371 124.218 17.4514 124.218 17.9074V17.9182C124.218 18.2114 124.248 18.4912 124.307 18.7562C124.368 19.0226 124.454 19.2687 124.569 19.4974C124.685 19.7261 124.826 19.9319 124.996 20.1162C125.164 20.3005 125.358 20.4579 125.574 20.5897ZM125.44 17.3518C125.459 17.2132 125.486 17.0845 125.522 16.9658C125.602 16.6994 125.717 16.4788 125.867 16.3026C126.018 16.1264 126.2 15.9959 126.414 15.9098C126.627 15.825 126.864 15.782 127.124 15.782C127.292 15.782 127.447 15.7995 127.589 15.8345C127.732 15.8694 127.864 15.9205 127.985 15.9878C128.106 16.0551 128.213 16.1344 128.308 16.2273C128.402 16.3201 128.484 16.4236 128.552 16.5393C128.621 16.6537 128.675 16.7801 128.714 16.9173C128.753 17.0545 128.778 17.1985 128.789 17.3465V17.3518H125.44Z" fill="#0C2340"/>
</svg>
