<svg width="125" height="36" viewBox="0 0 125 36" fill="none" xmlns="http://www.w3.org/2000/svg">
<path d="M2.00202 29V17.72H4.11402V29H2.00202ZM10.3706 29.24C9.93331 29.24 9.52531 29.1893 9.14664 29.088C8.76797 28.992 8.42131 28.8533 8.10664 28.672C7.79731 28.4907 7.51731 28.2693 7.26664 28.008C7.02131 27.7413 6.81331 27.4453 6.64264 27.12C6.47731 26.7947 6.34931 26.44 6.25864 26.056C6.16797 25.6667 6.12264 25.256 6.12264 24.824V24.808C6.12264 24.1627 6.22131 23.5707 6.41864 23.032C6.62131 22.488 6.90664 22.0213 7.27464 21.632C7.64264 21.2427 8.08797 20.9413 8.61064 20.728C9.13331 20.5093 9.71997 20.4 10.3706 20.4C10.9413 20.4 11.4586 20.4773 11.9226 20.632C12.3866 20.7813 12.7893 20.992 13.1306 21.264C13.4773 21.5307 13.76 21.8533 13.9786 22.232C14.2026 22.6053 14.36 23.016 14.4506 23.464H12.4106C12.352 23.2187 12.2613 23.0053 12.1386 22.824C12.0213 22.6373 11.8746 22.4827 11.6986 22.36C11.528 22.232 11.3333 22.1387 11.1146 22.08C10.896 22.016 10.656 21.984 10.3946 21.984C10.08 21.984 9.78931 22.048 9.52264 22.176C9.26131 22.2987 9.03464 22.4827 8.84264 22.728C8.65597 22.968 8.50931 23.264 8.40264 23.616C8.30131 23.9627 8.25064 24.36 8.25064 24.808V24.824C8.25064 25.1227 8.27464 25.4 8.32264 25.656C8.37064 25.912 8.43731 26.1467 8.52264 26.36C8.61331 26.568 8.72264 26.752 8.85064 26.912C8.97864 27.072 9.11997 27.208 9.27464 27.32C9.43464 27.432 9.60797 27.5173 9.79464 27.576C9.98664 27.6293 10.1866 27.656 10.3946 27.656C10.656 27.656 10.896 27.624 11.1146 27.56C11.3333 27.496 11.528 27.4027 11.6986 27.28C11.8746 27.152 12.0213 26.9973 12.1386 26.816C12.2613 26.6293 12.352 26.4133 12.4106 26.168H14.4506C14.36 26.616 14.2026 27.0293 13.9786 27.408C13.76 27.7813 13.4773 28.104 13.1306 28.376C12.7893 28.648 12.3866 28.8587 11.9226 29.008C11.4586 29.1627 10.9413 29.24 10.3706 29.24ZM18.8863 29.24C18.4383 29.24 18.0223 29.1813 17.6383 29.064C17.2596 28.9467 16.9289 28.7787 16.6463 28.56C16.3689 28.3413 16.1529 28.0747 15.9983 27.76C15.8436 27.4453 15.7663 27.0907 15.7663 26.696V26.68C15.7663 26.3813 15.8063 26.112 15.8863 25.872C15.9663 25.632 16.0836 25.4187 16.2383 25.232C16.3929 25.04 16.5876 24.8747 16.8223 24.736C17.0569 24.592 17.3263 24.4667 17.6303 24.36C17.9396 24.248 18.2836 24.152 18.6623 24.072C19.0409 23.992 19.4569 23.9227 19.9103 23.864C20.2463 23.816 20.5129 23.7707 20.7103 23.728C20.9129 23.68 21.0676 23.624 21.1743 23.56C21.2863 23.4907 21.3583 23.408 21.3903 23.312C21.4276 23.216 21.4463 23.096 21.4463 22.952V22.936C21.4463 22.744 21.4089 22.5787 21.3343 22.44C21.2596 22.3013 21.1529 22.184 21.0143 22.088C20.8809 21.992 20.7156 21.9227 20.5183 21.88C20.3263 21.832 20.1076 21.808 19.8623 21.808C19.6063 21.808 19.3716 21.8373 19.1583 21.896C18.9449 21.9493 18.7609 22.0347 18.6063 22.152C18.4516 22.2693 18.3289 22.416 18.2383 22.592C18.1529 22.768 18.1049 22.9787 18.0943 23.224H16.1423C16.1476 22.7493 16.2463 22.336 16.4383 21.984C16.6303 21.6267 16.8943 21.3307 17.2303 21.096C17.5663 20.856 17.9609 20.6773 18.4143 20.56C18.8676 20.4427 19.3583 20.384 19.8863 20.384C20.4303 20.384 20.9209 20.432 21.3583 20.528C21.8009 20.6187 22.1716 20.7733 22.4703 20.992C22.7743 21.2107 23.0063 21.504 23.1663 21.872C23.3316 22.24 23.4143 22.696 23.4143 23.24L23.3903 26.32C23.3903 26.6133 23.3929 26.8827 23.3983 27.128C23.4036 27.368 23.4169 27.5973 23.4383 27.816C23.4596 28.0293 23.4863 28.2347 23.5183 28.432C23.5556 28.624 23.5983 28.8133 23.6463 29H21.6543C21.6436 28.936 21.6329 28.8747 21.6223 28.816C21.6116 28.752 21.6009 28.6907 21.5903 28.632C21.5849 28.568 21.5796 28.504 21.5743 28.44C21.5689 28.3707 21.5636 28.296 21.5583 28.216C21.4249 28.3707 21.2703 28.512 21.0943 28.64C20.9236 28.768 20.7289 28.8747 20.5103 28.96C20.2969 29.0453 20.0543 29.112 19.7823 29.16C19.5156 29.2133 19.2169 29.24 18.8863 29.24ZM19.4383 27.776C19.6303 27.776 19.8116 27.7627 19.9823 27.736C20.1583 27.704 20.3183 27.6587 20.4623 27.6C20.6116 27.536 20.7449 27.4587 20.8623 27.368C20.9849 27.2773 21.0863 27.1733 21.1663 27.056C21.2516 26.9333 21.3156 26.7947 21.3583 26.64C21.4063 26.4853 21.4303 26.3173 21.4303 26.136V24.728C21.2863 24.776 21.1449 24.8213 21.0063 24.864C20.8729 24.9067 20.7423 24.9467 20.6143 24.984C20.4916 25.0213 20.3716 25.056 20.2543 25.088C20.1423 25.1147 20.0303 25.144 19.9183 25.176C19.6623 25.2347 19.4329 25.296 19.2303 25.36C19.0329 25.4187 18.8569 25.48 18.7023 25.544C18.5529 25.6027 18.4249 25.6667 18.3183 25.736C18.2169 25.8 18.1343 25.8747 18.0703 25.96C18.0063 26.0453 17.9583 26.1387 17.9263 26.24C17.8996 26.336 17.8863 26.448 17.8863 26.576V26.584C17.8863 26.776 17.9209 26.9467 17.9903 27.096C18.0596 27.2453 18.1609 27.3707 18.2943 27.472C18.4276 27.5733 18.5903 27.6507 18.7823 27.704C18.9796 27.752 19.1983 27.776 19.4383 27.776ZM29.1813 29.24C28.8293 29.24 28.4906 29.1947 28.1653 29.104C27.8399 29.0187 27.5359 28.8907 27.2533 28.72C26.9706 28.5493 26.7093 28.3387 26.4693 28.088C26.2346 27.8373 26.0346 27.5493 25.8693 27.224C25.7039 26.8987 25.5733 26.536 25.4773 26.136C25.3866 25.736 25.3413 25.304 25.3413 24.84V24.824C25.3413 24.1253 25.4426 23.504 25.6453 22.96C25.8479 22.4107 26.1226 21.9493 26.4693 21.576C26.8159 21.2027 27.2239 20.9173 27.6933 20.72C28.1626 20.5227 28.6586 20.424 29.1813 20.424C29.4799 20.424 29.7599 20.456 30.0213 20.52C30.2826 20.584 30.5226 20.6747 30.7413 20.792C30.9599 20.904 31.1573 21.0373 31.3333 21.192C31.5093 21.3467 31.6586 21.5173 31.7813 21.704V17.72H33.8053V29H31.7813V27.96C31.6586 28.1413 31.5093 28.312 31.3333 28.472C31.1573 28.6267 30.9599 28.7627 30.7413 28.88C30.5226 28.992 30.2826 29.08 30.0213 29.144C29.7599 29.208 29.4799 29.24 29.1813 29.24ZM29.6613 27.656C29.8746 27.656 30.0746 27.6293 30.2613 27.576C30.4533 27.5227 30.6293 27.4427 30.7893 27.336C30.9546 27.2293 31.1013 27.0987 31.2293 26.944C31.3626 26.784 31.4719 26.6 31.5573 26.392C31.6479 26.184 31.7173 25.952 31.7653 25.696C31.8186 25.4347 31.8453 25.1493 31.8453 24.84V24.824C31.8453 24.5147 31.8186 24.232 31.7653 23.976C31.7173 23.7147 31.6479 23.48 31.5573 23.272C31.4719 23.064 31.3626 22.8827 31.2293 22.728C31.1013 22.568 30.9546 22.4347 30.7893 22.328C30.6293 22.2213 30.4533 22.1413 30.2613 22.088C30.0746 22.0347 29.8746 22.008 29.6613 22.008C29.4479 22.008 29.2453 22.0347 29.0533 22.088C28.8613 22.1413 28.6853 22.2213 28.5253 22.328C28.3653 22.4347 28.2186 22.568 28.0853 22.728C27.9573 22.8827 27.8479 23.064 27.7573 23.272C27.6719 23.48 27.6026 23.7147 27.5493 23.976C27.5013 24.232 27.4773 24.5147 27.4773 24.824V24.84C27.4773 25.1493 27.5013 25.4347 27.5493 25.696C27.6026 25.952 27.6719 26.184 27.7573 26.392C27.8479 26.6 27.9573 26.784 28.0853 26.944C28.2186 27.0987 28.3653 27.2293 28.5253 27.336C28.6853 27.4427 28.8613 27.5227 29.0533 27.576C29.2453 27.6293 29.4479 27.656 29.6613 27.656Z" fill="#0C2340"/>
<path d="M45.5294 29.24C44.9054 29.24 44.3241 29.1733 43.7854 29.04C43.2521 28.9067 42.7641 28.72 42.3214 28.48C41.8841 28.2347 41.4921 27.9387 41.1454 27.592C40.8041 27.2453 40.5161 26.8533 40.2814 26.416C40.0467 25.9787 39.8681 25.5067 39.7454 25C39.6281 24.488 39.5694 23.944 39.5694 23.368V23.352C39.5694 22.488 39.7054 21.6987 39.9774 20.984C40.2494 20.264 40.6387 19.6453 41.1454 19.128C41.6574 18.6107 42.2814 18.208 43.0174 17.92C43.7587 17.6267 44.5961 17.48 45.5294 17.48C46.2441 17.48 46.9027 17.5707 47.5054 17.752C48.1081 17.9333 48.6414 18.1973 49.1054 18.544C49.5747 18.8853 49.9694 19.304 50.2894 19.8C50.6094 20.296 50.8441 20.8587 50.9934 21.488H48.8174C48.7001 21.1093 48.5321 20.7813 48.3134 20.504C48.1001 20.2267 47.8494 19.9973 47.5614 19.816C47.2734 19.6293 46.9561 19.4907 46.6094 19.4C46.2627 19.3093 45.8974 19.264 45.5134 19.264C45.1081 19.264 44.7321 19.3093 44.3854 19.4C44.0441 19.4907 43.7347 19.6187 43.4574 19.784C43.1854 19.9493 42.9454 20.1547 42.7374 20.4C42.5294 20.64 42.3534 20.912 42.2094 21.216C42.0707 21.5147 41.9667 21.8427 41.8974 22.2C41.8281 22.5573 41.7934 22.9413 41.7934 23.352V23.368C41.7934 23.7733 41.8281 24.1573 41.8974 24.52C41.9667 24.8773 42.0707 25.208 42.2094 25.512C42.3534 25.8107 42.5294 26.0827 42.7374 26.328C42.9454 26.568 43.1854 26.7707 43.4574 26.936C43.7347 27.1013 44.0441 27.2293 44.3854 27.32C44.7321 27.4107 45.1081 27.456 45.5134 27.456C45.8974 27.456 46.2627 27.4107 46.6094 27.32C46.9561 27.2293 47.2734 27.0933 47.5614 26.912C47.8494 26.7253 48.1001 26.4933 48.3134 26.216C48.5321 25.9333 48.7001 25.6053 48.8174 25.232H50.9934C50.8441 25.8613 50.6094 26.424 50.2894 26.92C49.9694 27.416 49.5747 27.8373 49.1054 28.184C48.6414 28.5253 48.1081 28.7867 47.5054 28.968C46.9027 29.1493 46.2441 29.24 45.5294 29.24ZM56.6965 29.24C56.0245 29.24 55.4192 29.1307 54.8805 28.912C54.3472 28.6933 53.8912 28.3893 53.5125 28C53.1338 27.6107 52.8432 27.144 52.6405 26.6C52.4378 26.056 52.3365 25.464 52.3365 24.824V24.808C52.3365 24.1627 52.4378 23.5707 52.6405 23.032C52.8432 22.4933 53.1338 22.0293 53.5125 21.64C53.8912 21.2453 54.3472 20.9413 54.8805 20.728C55.4192 20.5093 56.0245 20.4 56.6965 20.4C57.3632 20.4 57.9658 20.5093 58.5045 20.728C59.0432 20.9413 59.4992 21.2453 59.8725 21.64C60.2512 22.0293 60.5418 22.4933 60.7445 23.032C60.9472 23.5707 61.0485 24.1627 61.0485 24.808V24.824C61.0485 25.464 60.9472 26.056 60.7445 26.6C60.5418 27.144 60.2512 27.6107 59.8725 28C59.4992 28.3893 59.0432 28.6933 58.5045 28.912C57.9658 29.1307 57.3632 29.24 56.6965 29.24ZM56.6965 27.64C57.0645 27.64 57.3872 27.5733 57.6645 27.44C57.9418 27.3067 58.1738 27.1173 58.3605 26.872C58.5472 26.6213 58.6885 26.3253 58.7845 25.984C58.8805 25.6373 58.9285 25.2507 58.9285 24.824V24.808C58.9285 24.3813 58.8805 23.9973 58.7845 23.656C58.6885 23.3093 58.5472 23.0133 58.3605 22.768C58.1738 22.5227 57.9418 22.3333 57.6645 22.2C57.3872 22.0667 57.0645 22 56.6965 22C56.3285 22 56.0032 22.0667 55.7205 22.2C55.4432 22.3333 55.2112 22.5227 55.0245 22.768C54.8378 23.0133 54.6965 23.3093 54.6005 23.656C54.5098 23.9973 54.4645 24.3813 54.4645 24.808V24.824C54.4645 25.2507 54.5098 25.6373 54.6005 25.984C54.6965 26.3253 54.8378 26.6213 55.0245 26.872C55.2112 27.1173 55.4432 27.3067 55.7205 27.44C56.0032 27.5733 56.3285 27.64 56.6965 27.64ZM63.0641 29V17.72H65.0961V29H63.0641ZM71.4696 29.24C70.7976 29.24 70.1923 29.1307 69.6536 28.912C69.1203 28.6933 68.6643 28.3893 68.2856 28C67.907 27.6107 67.6163 27.144 67.4136 26.6C67.211 26.056 67.1096 25.464 67.1096 24.824V24.808C67.1096 24.1627 67.211 23.5707 67.4136 23.032C67.6163 22.4933 67.907 22.0293 68.2856 21.64C68.6643 21.2453 69.1203 20.9413 69.6536 20.728C70.1923 20.5093 70.7976 20.4 71.4696 20.4C72.1363 20.4 72.739 20.5093 73.2776 20.728C73.8163 20.9413 74.2723 21.2453 74.6456 21.64C75.0243 22.0293 75.315 22.4933 75.5176 23.032C75.7203 23.5707 75.8216 24.1627 75.8216 24.808V24.824C75.8216 25.464 75.7203 26.056 75.5176 26.6C75.315 27.144 75.0243 27.6107 74.6456 28C74.2723 28.3893 73.8163 28.6933 73.2776 28.912C72.739 29.1307 72.1363 29.24 71.4696 29.24ZM71.4696 27.64C71.8376 27.64 72.1603 27.5733 72.4376 27.44C72.715 27.3067 72.947 27.1173 73.1336 26.872C73.3203 26.6213 73.4616 26.3253 73.5576 25.984C73.6536 25.6373 73.7016 25.2507 73.7016 24.824V24.808C73.7016 24.3813 73.6536 23.9973 73.5576 23.656C73.4616 23.3093 73.3203 23.0133 73.1336 22.768C72.947 22.5227 72.715 22.3333 72.4376 22.2C72.1603 22.0667 71.8376 22 71.4696 22C71.1016 22 70.7763 22.0667 70.4936 22.2C70.2163 22.3333 69.9843 22.5227 69.7976 22.768C69.611 23.0133 69.4696 23.3093 69.3736 23.656C69.283 23.9973 69.2376 24.3813 69.2376 24.808V24.824C69.2376 25.2507 69.283 25.6373 69.3736 25.984C69.4696 26.3253 69.611 26.6213 69.7976 26.872C69.9843 27.1173 70.2163 27.3067 70.4936 27.44C70.7763 27.5733 71.1016 27.64 71.4696 27.64ZM77.8373 29V20.664H79.8693V22.2C79.9813 21.9547 80.1199 21.7307 80.2853 21.528C80.4559 21.3253 80.6506 21.152 80.8693 21.008C81.0879 20.864 81.3333 20.7547 81.6053 20.68C81.8773 20.6 82.1733 20.56 82.4933 20.56H82.6453V22.52H82.1413C81.7893 22.52 81.4719 22.56 81.1893 22.64C80.9119 22.72 80.6746 22.8507 80.4773 23.032C80.2799 23.2133 80.1279 23.4507 80.0213 23.744C79.9199 24.0373 79.8693 24.3947 79.8693 24.816V29H77.8373ZM85.9178 29L83.4138 20.664H85.4618L87.2858 27.136H87.1738L89.0458 20.664H91.0538L93.0138 27.152H92.8858L94.7418 20.664H96.6938L94.1818 29H91.9498L89.9098 22.376H90.1018L88.1578 29H85.9178ZM100.733 29.24C100.285 29.24 99.8685 29.1813 99.4845 29.064C99.1059 28.9467 98.7752 28.7787 98.4925 28.56C98.2152 28.3413 97.9992 28.0747 97.8445 27.76C97.6899 27.4453 97.6125 27.0907 97.6125 26.696V26.68C97.6125 26.3813 97.6525 26.112 97.7325 25.872C97.8125 25.632 97.9299 25.4187 98.0845 25.232C98.2392 25.04 98.4339 24.8747 98.6685 24.736C98.9032 24.592 99.1725 24.4667 99.4765 24.36C99.7859 24.248 100.13 24.152 100.509 24.072C100.887 23.992 101.303 23.9227 101.757 23.864C102.093 23.816 102.359 23.7707 102.557 23.728C102.759 23.68 102.914 23.624 103.021 23.56C103.133 23.4907 103.205 23.408 103.237 23.312C103.274 23.216 103.293 23.096 103.293 22.952V22.936C103.293 22.744 103.255 22.5787 103.181 22.44C103.106 22.3013 102.999 22.184 102.861 22.088C102.727 21.992 102.562 21.9227 102.365 21.88C102.173 21.832 101.954 21.808 101.709 21.808C101.453 21.808 101.218 21.8373 101.005 21.896C100.791 21.9493 100.607 22.0347 100.453 22.152C100.298 22.2693 100.175 22.416 100.085 22.592C99.9992 22.768 99.9512 22.9787 99.9405 23.224H97.9885C97.9939 22.7493 98.0925 22.336 98.2845 21.984C98.4765 21.6267 98.7405 21.3307 99.0765 21.096C99.4125 20.856 99.8072 20.6773 100.261 20.56C100.714 20.4427 101.205 20.384 101.733 20.384C102.277 20.384 102.767 20.432 103.205 20.528C103.647 20.6187 104.018 20.7733 104.317 20.992C104.621 21.2107 104.853 21.504 105.013 21.872C105.178 22.24 105.261 22.696 105.261 23.24L105.237 26.32C105.237 26.6133 105.239 26.8827 105.245 27.128C105.25 27.368 105.263 27.5973 105.285 27.816C105.306 28.0293 105.333 28.2347 105.365 28.432C105.402 28.624 105.445 28.8133 105.493 29H103.501C103.49 28.936 103.479 28.8747 103.469 28.816C103.458 28.752 103.447 28.6907 103.437 28.632C103.431 28.568 103.426 28.504 103.421 28.44C103.415 28.3707 103.41 28.296 103.405 28.216C103.271 28.3707 103.117 28.512 102.941 28.64C102.77 28.768 102.575 28.8747 102.357 28.96C102.143 29.0453 101.901 29.112 101.629 29.16C101.362 29.2133 101.063 29.24 100.733 29.24ZM101.285 27.776C101.477 27.776 101.658 27.7627 101.829 27.736C102.005 27.704 102.165 27.6587 102.309 27.6C102.458 27.536 102.591 27.4587 102.709 27.368C102.831 27.2773 102.933 27.1733 103.013 27.056C103.098 26.9333 103.162 26.7947 103.205 26.64C103.253 26.4853 103.277 26.3173 103.277 26.136V24.728C103.133 24.776 102.991 24.8213 102.853 24.864C102.719 24.9067 102.589 24.9467 102.461 24.984C102.338 25.0213 102.218 25.056 102.101 25.088C101.989 25.1147 101.877 25.144 101.765 25.176C101.509 25.2347 101.279 25.296 101.077 25.36C100.879 25.4187 100.703 25.48 100.549 25.544C100.399 25.6027 100.271 25.6667 100.165 25.736C100.063 25.8 99.9805 25.8747 99.9165 25.96C99.8525 26.0453 99.8045 26.1387 99.7725 26.24C99.7459 26.336 99.7325 26.448 99.7325 26.576V26.584C99.7325 26.776 99.7672 26.9467 99.8365 27.096C99.9059 27.2453 100.007 27.3707 100.141 27.472C100.274 27.5733 100.437 27.6507 100.629 27.704C100.826 27.752 101.045 27.776 101.285 27.776ZM107.792 31.6V29.992H108.352C108.602 29.992 108.805 29.9813 108.96 29.96C109.12 29.944 109.256 29.904 109.368 29.84C109.48 29.776 109.573 29.6827 109.648 29.56C109.722 29.4373 109.797 29.2667 109.872 29.048L109.928 28.896L106.52 20.664H108.656L111.04 26.752H111.056L113.608 20.664H115.624L111.888 29.216C111.738 29.5627 111.594 29.8613 111.456 30.112C111.322 30.368 111.186 30.584 111.048 30.76C110.909 30.936 110.76 31.0773 110.6 31.184C110.445 31.296 110.266 31.384 110.064 31.448C109.861 31.512 109.629 31.552 109.368 31.568C109.106 31.5893 108.802 31.6 108.456 31.6H107.792ZM120.242 29.24C119.661 29.24 119.138 29.176 118.674 29.048C118.21 28.9253 117.81 28.7467 117.474 28.512C117.138 28.272 116.871 27.9787 116.674 27.632C116.477 27.2853 116.354 26.888 116.306 26.44H118.314C118.351 26.6907 118.423 26.904 118.53 27.08C118.642 27.256 118.781 27.4 118.946 27.512C119.117 27.6187 119.314 27.6987 119.538 27.752C119.762 27.8053 120.01 27.832 120.282 27.832C120.437 27.832 120.583 27.824 120.722 27.808C120.866 27.7867 120.997 27.7573 121.114 27.72C121.231 27.6827 121.338 27.6373 121.434 27.584C121.53 27.5307 121.61 27.4667 121.674 27.392C121.738 27.3173 121.786 27.2347 121.818 27.144C121.855 27.048 121.874 26.944 121.874 26.832V26.816C121.874 26.6293 121.837 26.4747 121.762 26.352C121.687 26.2293 121.581 26.1253 121.442 26.04C121.303 25.9493 121.135 25.8747 120.938 25.816C120.741 25.7573 120.522 25.7013 120.282 25.648L119.002 25.384C118.629 25.304 118.287 25.1973 117.978 25.064C117.674 24.9253 117.413 24.7547 117.194 24.552C116.975 24.3493 116.805 24.112 116.682 23.84C116.565 23.5627 116.506 23.2507 116.506 22.904V22.888C116.506 22.52 116.594 22.184 116.77 21.88C116.951 21.5707 117.197 21.3093 117.506 21.096C117.821 20.8773 118.191 20.7067 118.618 20.584C119.05 20.4613 119.514 20.4 120.01 20.4C120.511 20.4 120.97 20.448 121.386 20.544C121.807 20.64 122.173 20.792 122.482 21C122.791 21.2027 123.042 21.464 123.234 21.784C123.431 22.0987 123.559 22.4747 123.618 22.912H121.618C121.597 22.7733 121.559 22.6507 121.506 22.544C121.458 22.432 121.394 22.336 121.314 22.256C121.239 22.1707 121.154 22.0987 121.058 22.04C120.967 21.9813 120.863 21.936 120.746 21.904C120.634 21.8667 120.511 21.84 120.378 21.824C120.245 21.808 120.106 21.8 119.962 21.8C119.754 21.8 119.562 21.824 119.386 21.872C119.21 21.9147 119.058 21.9787 118.93 22.064C118.802 22.1493 118.701 22.2507 118.626 22.368C118.551 22.4853 118.514 22.6187 118.514 22.768V22.784C118.514 22.9333 118.541 23.064 118.594 23.176C118.653 23.2827 118.733 23.3787 118.834 23.464C118.941 23.544 119.069 23.6133 119.218 23.672C119.373 23.7307 119.549 23.7813 119.746 23.824L121.002 24.08C121.429 24.1707 121.818 24.28 122.17 24.408C122.527 24.536 122.834 24.6987 123.09 24.896C123.346 25.088 123.543 25.3227 123.682 25.6C123.821 25.872 123.89 26.2 123.89 26.584V26.6C123.89 26.8773 123.85 27.136 123.77 27.376C123.69 27.6107 123.573 27.8267 123.418 28.024C123.263 28.216 123.077 28.3893 122.858 28.544C122.645 28.6933 122.402 28.8213 122.13 28.928C121.858 29.0293 121.562 29.1067 121.242 29.16C120.927 29.2133 120.594 29.24 120.242 29.24Z" fill="#4041F6"/>
</svg>
