<svg width="110" height="36" viewBox="0 0 110 36" fill="none" xmlns="http://www.w3.org/2000/svg">
<path d="M39.291 7.44019H41.1882V16.6886H39.291V7.44019Z" fill="#06061A"/>
<path d="M45.2843 16.7677C44.9711 16.6885 44.6831 16.5733 44.4203 16.4221C44.1611 16.2709 43.9271 16.0873 43.7219 15.8749C43.5167 15.6589 43.3439 15.4177 43.2035 15.1513C43.0631 14.8813 42.9551 14.5897 42.8831 14.2729C42.8075 13.9561 42.7715 13.6177 42.7715 13.2577V13.2433C42.7715 12.7105 42.8543 12.2209 43.0163 11.7781C43.1819 11.3353 43.4159 10.9537 43.7219 10.6333C44.0279 10.3129 44.3987 10.0645 44.8343 9.8881C45.2699 9.7117 45.7559 9.6217 46.2923 9.6217C46.7747 9.6217 47.2067 9.6865 47.5991 9.8125C47.9879 9.9385 48.3263 10.1149 48.6107 10.3417C48.8951 10.5685 49.1291 10.8349 49.3127 11.1481C49.4963 11.4613 49.6259 11.8069 49.7015 12.1813H47.8763C47.8295 11.9833 47.7575 11.8141 47.6675 11.6665C47.5739 11.5189 47.4659 11.4001 47.3327 11.3029C47.2031 11.2057 47.0519 11.1337 46.8791 11.0869C46.7099 11.0401 46.5263 11.0149 46.3283 11.0149C46.0799 11.0149 45.8531 11.0653 45.6515 11.1661C45.4499 11.2669 45.2771 11.4109 45.1295 11.6017C44.9819 11.7925 44.8703 12.0265 44.7911 12.3037C44.7119 12.5809 44.6723 12.8941 44.6723 13.2433V13.2577C44.6723 13.4953 44.6903 13.7149 44.7263 13.9165C44.7623 14.1181 44.8163 14.3053 44.8847 14.4709C44.9531 14.6365 45.0359 14.7841 45.1295 14.9101C45.2267 15.0361 45.3347 15.1441 45.4571 15.2305C45.5795 15.3169 45.7127 15.3853 45.8567 15.4285C46.0007 15.4717 46.1555 15.4933 46.3211 15.4933C46.5191 15.4933 46.7027 15.4681 46.8719 15.4213C47.0411 15.3745 47.1923 15.2989 47.3255 15.2017C47.4551 15.1045 47.5667 14.9821 47.6603 14.8345C47.7539 14.6869 47.8223 14.5177 47.8691 14.3269H49.6943C49.6187 14.6977 49.4927 15.0433 49.3055 15.3565C49.1183 15.6697 48.8879 15.9433 48.6035 16.1701C48.3191 16.3969 47.9843 16.5733 47.5919 16.6993C47.2031 16.8253 46.7675 16.8865 46.2851 16.8865C45.9359 16.8865 45.5975 16.8469 45.2843 16.7677Z" fill="#06061A"/>
<path d="M52.1401 16.7425C51.8269 16.6453 51.5533 16.5085 51.3229 16.3249C51.0925 16.1449 50.9161 15.9253 50.7865 15.6661C50.6605 15.4069 50.5957 15.1189 50.5957 14.7949V14.7877C50.5957 14.5393 50.6281 14.3161 50.6929 14.1145C50.7577 13.9165 50.8549 13.7401 50.9845 13.5817C51.1141 13.4269 51.2725 13.2901 51.4669 13.1713C51.6577 13.0525 51.8809 12.9481 52.1365 12.8581C52.3885 12.7681 52.6729 12.6925 52.9825 12.6241C53.2921 12.5593 53.6305 12.5017 53.9977 12.4549C54.2749 12.4189 54.4945 12.3829 54.6565 12.3469C54.8221 12.3109 54.9481 12.2641 55.0381 12.2101C55.1281 12.1561 55.1857 12.0913 55.2145 12.0157C55.2433 11.9401 55.2577 11.8465 55.2577 11.7349V11.7241C55.2577 11.5729 55.2289 11.4397 55.1713 11.3317C55.1137 11.2237 55.0309 11.1301 54.9229 11.0581C54.8149 10.9861 54.6817 10.9321 54.5341 10.8961C54.3829 10.8601 54.2137 10.8421 54.0265 10.8421C53.8213 10.8421 53.6341 10.8637 53.4649 10.9069C53.2957 10.9501 53.1517 11.0185 53.0329 11.1085C52.9141 11.2021 52.8169 11.3173 52.7521 11.4577C52.6837 11.5981 52.6477 11.7637 52.6369 11.9545H50.9017C50.9089 11.5657 50.9953 11.2237 51.1537 10.9321C51.3121 10.6405 51.5317 10.3957 51.8053 10.1977C52.0825 9.9997 52.4101 9.8521 52.7917 9.7513C53.1733 9.6505 53.5909 9.6001 54.0409 9.6001C54.5053 9.6001 54.9193 9.6397 55.2901 9.7153C55.6609 9.7909 55.9705 9.9205 56.2297 10.1041C56.4853 10.2877 56.6797 10.5325 56.8165 10.8385C56.9533 11.1445 57.0181 11.5261 57.0181 11.9869L57.0001 14.5249C57.0001 14.7553 57.0037 14.9713 57.0109 15.1693C57.0181 15.3673 57.0289 15.5509 57.0433 15.7273C57.0577 15.9037 57.0793 16.0693 57.1081 16.2241C57.1369 16.3825 57.1693 16.5337 57.2089 16.6849H55.4233C55.4161 16.6309 55.4053 16.5805 55.4017 16.5337C55.3945 16.4869 55.3873 16.4365 55.3837 16.3897C55.3765 16.3429 55.3729 16.2889 55.3657 16.2349C55.3621 16.1809 55.3585 16.1197 55.3585 16.0549C55.2433 16.1845 55.1173 16.3033 54.9697 16.4041C54.8257 16.5085 54.6637 16.5949 54.4837 16.6633C54.3037 16.7317 54.1057 16.7857 53.8861 16.8253C53.6665 16.8613 53.4253 16.8793 53.1661 16.8793C52.7989 16.8865 52.4569 16.8361 52.1401 16.7425ZM54.1237 15.5833C54.2605 15.5581 54.3829 15.5257 54.4981 15.4789C54.6133 15.4321 54.7141 15.3745 54.8077 15.3061C54.9013 15.2377 54.9769 15.1513 55.0417 15.0577C55.1065 14.9605 55.1569 14.8525 55.1929 14.7337C55.2289 14.6149 55.2469 14.4817 55.2469 14.3377V13.2217C55.1281 13.2649 55.0165 13.3045 54.9121 13.3369C54.8077 13.3693 54.7069 13.4017 54.6061 13.4305C54.5089 13.4593 54.4117 13.4845 54.3217 13.5097C54.2281 13.5349 54.1417 13.5565 54.0589 13.5781C53.8609 13.6321 53.6881 13.6789 53.5333 13.7257C53.3785 13.7725 53.2453 13.8193 53.1301 13.8661C53.0149 13.9129 52.9141 13.9669 52.8349 14.0209C52.7557 14.0749 52.6873 14.1361 52.6369 14.2009C52.5865 14.2657 52.5505 14.3377 52.5253 14.4169C52.5001 14.4961 52.4893 14.5861 52.4893 14.6869V14.6941C52.4893 14.8417 52.5181 14.9749 52.5757 15.0901C52.6333 15.2053 52.7125 15.3025 52.8169 15.3817C52.9213 15.4609 53.0473 15.5221 53.1985 15.5617C53.3497 15.6049 53.5189 15.6229 53.7061 15.6229C53.8465 15.6193 53.9869 15.6085 54.1237 15.5833Z" fill="#06061A"/>
<path d="M60.6988 16.7822C60.4324 16.7138 60.1876 16.6058 59.9536 16.469C59.7232 16.3286 59.5108 16.1558 59.32 15.9542C59.1292 15.7526 58.9672 15.515 58.8268 15.245C58.69 14.975 58.582 14.6762 58.51 14.3486C58.4344 14.021 58.3984 13.6646 58.3984 13.2794V13.265C58.3984 12.689 58.4812 12.1742 58.6468 11.7278C58.8124 11.2778 59.0356 10.9034 59.32 10.5974C59.6008 10.2914 59.932 10.0574 60.3136 9.89898C60.6952 9.74058 61.0948 9.65778 61.5196 9.65778C61.7644 9.65778 61.9948 9.68298 62.2072 9.73338C62.4232 9.78378 62.6176 9.85578 62.7976 9.94578C62.9776 10.0394 63.136 10.1474 63.28 10.2734C63.4204 10.3994 63.5392 10.5398 63.6292 10.6874V7.44019H65.458V16.6886H63.6292V15.857C63.5356 16.0046 63.4204 16.145 63.28 16.271C63.1396 16.397 62.9776 16.5086 62.7976 16.5986C62.6176 16.6922 62.4232 16.7606 62.2072 16.811C61.9912 16.8614 61.7644 16.8866 61.5196 16.8866C61.2388 16.8866 60.9652 16.8506 60.6988 16.7822ZM62.4844 15.4358C62.632 15.3926 62.7652 15.3278 62.8912 15.245C63.0172 15.1622 63.1288 15.0578 63.2296 14.9318C63.3304 14.8058 63.4132 14.6618 63.4816 14.4998C63.55 14.3342 63.6004 14.1506 63.64 13.949C63.676 13.7474 63.694 13.5206 63.694 13.2758V13.2614C63.694 13.0166 63.676 12.7934 63.64 12.5882C63.604 12.3866 63.55 12.1994 63.4816 12.0374C63.4132 11.8718 63.3304 11.7278 63.2296 11.6054C63.1288 11.4794 63.0172 11.3786 62.8912 11.2922C62.7652 11.2094 62.632 11.1446 62.4844 11.1014C62.3368 11.0582 62.1784 11.0366 62.0092 11.0366C61.84 11.0366 61.6816 11.0582 61.534 11.1014C61.3864 11.1446 61.2532 11.2094 61.1272 11.2922C61.0012 11.375 60.8896 11.4794 60.7888 11.6054C60.688 11.7314 60.6052 11.8754 60.5368 12.0374C60.4684 12.203 60.418 12.3866 60.3784 12.5882C60.3424 12.7898 60.3244 13.0166 60.3244 13.2614V13.2758C60.3244 13.5206 60.3424 13.7438 60.3784 13.949C60.4144 14.1506 60.4684 14.3378 60.5368 14.4998C60.6052 14.6654 60.688 14.8094 60.7888 14.9318C60.8896 15.0578 61.0012 15.1586 61.1272 15.245C61.2532 15.3278 61.3864 15.3926 61.534 15.4358C61.6816 15.479 61.84 15.5006 62.0092 15.5006C62.1784 15.5006 62.3368 15.479 62.4844 15.4358Z" fill="#06061A"/>
<path d="M38.543 19.2122H40.0334L42.1574 26.9917H42.0386L43.8494 19.2122H45.8114L47.6474 26.9845H47.5826L49.6814 19.2122H51.1178L48.5906 28.4605H46.7222L44.7998 20.4434H44.8646L42.9674 28.4605H41.099L38.543 19.2122Z" fill="#3E3EFF"/>
<path d="M54.0316 28.3707C53.6068 28.1907 53.2432 27.9387 52.9444 27.6183C52.6456 27.2979 52.4152 26.9199 52.2568 26.4771C52.0984 26.0343 52.0156 25.5555 52.0156 25.0407V25.0263C52.0156 24.5043 52.0948 24.0255 52.2568 23.5899C52.4152 23.1543 52.6456 22.7727 52.9444 22.4523C53.2432 22.1319 53.6068 21.8799 54.0316 21.6999C54.4564 21.5199 54.9388 21.4299 55.4716 21.4299C56.0044 21.4299 56.4868 21.5199 56.9152 21.6999C57.3436 21.8799 57.7072 22.1283 58.0024 22.4523C58.3012 22.7727 58.528 23.1543 58.6864 23.5899C58.8448 24.0255 58.9276 24.5043 58.9276 25.0263V25.0407C58.9276 25.5555 58.8484 26.0343 58.6864 26.4771C58.528 26.9199 58.2976 27.2979 58.0024 27.6183C57.7036 27.9387 57.3436 28.1871 56.9152 28.3707C56.4868 28.5507 56.0044 28.6443 55.4716 28.6443C54.9388 28.6443 54.46 28.5543 54.0316 28.3707ZM56.3608 27.3519C56.6164 27.2295 56.8288 27.0567 57.0016 26.8371C57.1708 26.6175 57.3004 26.3547 57.3868 26.0487C57.4732 25.7463 57.5164 25.4079 57.5164 25.0407V25.0263C57.5164 24.6591 57.4732 24.3243 57.3868 24.0183C57.3004 23.7159 57.1744 23.4531 57.0016 23.2335C56.8324 23.0139 56.6164 22.8447 56.3608 22.7223C56.1052 22.5999 55.81 22.5387 55.4716 22.5387C55.1332 22.5387 54.838 22.5999 54.5824 22.7223C54.3268 22.8447 54.1144 23.0139 53.9416 23.2335C53.7724 23.4531 53.6428 23.7123 53.5564 24.0183C53.47 24.3207 53.4268 24.6591 53.4268 25.0263V25.0407C53.4268 25.4079 53.47 25.7427 53.5564 26.0487C53.6428 26.3511 53.7688 26.6139 53.9416 26.8371C54.1108 27.0567 54.3268 27.2295 54.5824 27.3519C54.838 27.4743 55.1332 27.5355 55.4716 27.5355C55.81 27.5355 56.1052 27.4743 56.3608 27.3519Z" fill="#3E3EFF"/>
<path d="M60.5664 21.6242H61.9056V22.8374C62.0064 22.6394 62.1252 22.463 62.2656 22.3046C62.406 22.1462 62.568 22.0094 62.7516 21.8978C62.9352 21.7862 63.1404 21.6998 63.3672 21.6422C63.594 21.5846 63.8424 21.5522 64.1088 21.5522H64.2348V22.859H63.8748C63.5652 22.859 63.288 22.895 63.0468 22.9706C62.8056 23.0462 62.5968 23.1614 62.4312 23.3234C62.262 23.4854 62.1324 23.6942 62.0424 23.9534C61.9524 24.2126 61.9092 24.5258 61.9092 24.893V28.4606H60.57V21.6242H60.5664Z" fill="#3E3EFF"/>
<path d="M65.5466 19.2122H66.8858V24.7094L66.7418 24.6302L70.151 21.6242H71.7962L67.8794 24.9829L67.8722 24.6086L72.023 28.4605H70.115L66.5474 25.1269L66.8822 25.0477V28.4569H65.543V19.2122H65.5466Z" fill="#3E3EFF"/>
<path d="M74.331 28.4933C73.9674 28.3925 73.6542 28.2449 73.3914 28.0541C73.1286 27.8633 72.9198 27.6257 72.7614 27.3413C72.603 27.0569 72.5022 26.7365 72.459 26.3729H73.7982C73.8342 26.5961 73.899 26.7869 73.9998 26.9453C74.1006 27.1037 74.223 27.2333 74.3778 27.3341C74.5326 27.4349 74.709 27.5069 74.9142 27.5537C75.1194 27.6005 75.3426 27.6221 75.5946 27.6221C75.735 27.6221 75.8682 27.6149 75.9978 27.6005C76.1274 27.5861 76.2462 27.5609 76.3506 27.5249C76.4586 27.4889 76.5558 27.4493 76.6422 27.3989C76.7286 27.3521 76.8042 27.2909 76.8618 27.2225C76.9194 27.1541 76.9662 27.0749 76.9986 26.9885C77.031 26.9021 77.049 26.8085 77.049 26.7041V26.6897C77.049 26.5205 77.013 26.3765 76.9446 26.2649C76.8762 26.1497 76.779 26.0561 76.653 25.9769C76.527 25.8977 76.3794 25.8329 76.2066 25.7789C76.0338 25.7249 75.843 25.6781 75.6378 25.6349L74.6334 25.4189C74.3526 25.3577 74.0934 25.2749 73.8486 25.1669C73.6074 25.0589 73.395 24.9257 73.2186 24.7673C73.0422 24.6089 72.9018 24.4181 72.801 24.1949C72.7002 23.9717 72.6498 23.7161 72.6498 23.4281V23.4137C72.6498 23.1221 72.7182 22.8521 72.8586 22.6109C72.999 22.3697 73.1898 22.1609 73.4346 21.9881C73.6794 21.8153 73.9674 21.6821 74.3022 21.5849C74.6334 21.4877 74.9934 21.4409 75.3786 21.4409C75.7602 21.4409 76.1094 21.4805 76.4298 21.5561C76.7502 21.6317 77.0346 21.7505 77.2758 21.9125C77.517 22.0745 77.715 22.2833 77.8698 22.5389C78.0246 22.7945 78.1218 23.1005 78.1722 23.4533H76.833C76.8114 23.3237 76.7754 23.2085 76.7286 23.1077C76.6818 23.0105 76.6206 22.9241 76.5522 22.8485C76.4838 22.7729 76.4046 22.7117 76.3146 22.6613C76.2282 22.6109 76.131 22.5713 76.0266 22.5389C75.9222 22.5101 75.8106 22.4849 75.6882 22.4741C75.5694 22.4597 75.4434 22.4561 75.3102 22.4561C75.123 22.4561 74.9466 22.4777 74.781 22.5173C74.6154 22.5605 74.475 22.6181 74.3562 22.6937C74.2374 22.7693 74.1438 22.8629 74.079 22.9709C74.0106 23.0789 73.9782 23.2049 73.9782 23.3453V23.3597C73.9782 23.4893 74.0034 23.6081 74.0502 23.7089C74.097 23.8097 74.1654 23.8961 74.2554 23.9717C74.3454 24.0473 74.457 24.1085 74.5866 24.1625C74.7162 24.2165 74.8674 24.2597 75.033 24.2921L76.0302 24.5081C76.3578 24.5765 76.6638 24.6629 76.9518 24.7601C77.2398 24.8573 77.4882 24.9833 77.7006 25.1381C77.913 25.2929 78.0786 25.4801 78.1974 25.7033C78.3162 25.9265 78.3774 26.2001 78.3774 26.5241V26.5385C78.3774 26.7617 78.345 26.9705 78.2802 27.1613C78.2154 27.3521 78.1218 27.5285 78.003 27.6869C77.8842 27.8453 77.7366 27.9821 77.5674 28.1045C77.3982 28.2233 77.2074 28.3241 76.995 28.4069C76.7862 28.4861 76.5594 28.5473 76.3146 28.5905C76.0698 28.6337 75.8142 28.6517 75.5478 28.6517C75.1014 28.6445 74.6946 28.5941 74.331 28.4933Z" fill="#3E3EFF"/>
<path d="M82.7742 28.5653C82.5546 28.5113 82.353 28.4393 82.1694 28.3421C81.9858 28.2449 81.8202 28.1297 81.6726 27.9965C81.525 27.8633 81.399 27.7193 81.2982 27.5609V30.5921H79.959V21.6245H81.2982V22.5245C81.399 22.3661 81.525 22.2221 81.6726 22.0889C81.8202 21.9557 81.9858 21.8405 82.1694 21.7433C82.353 21.6461 82.5546 21.5741 82.7742 21.5201C82.9938 21.4661 83.2242 21.4409 83.4618 21.4409C83.7534 21.4409 84.0378 21.4769 84.3078 21.5489C84.5778 21.6209 84.8334 21.7289 85.0674 21.8657C85.305 22.0061 85.521 22.1789 85.7154 22.3841C85.9134 22.5893 86.079 22.8269 86.2158 23.0933C86.3526 23.3597 86.4606 23.6549 86.5362 23.9789C86.6118 24.3029 86.6514 24.6557 86.6514 25.0337V25.0481C86.6514 25.6169 86.5686 26.1245 86.3994 26.5673C86.2302 27.0101 86.0034 27.3881 85.7154 27.6941C85.4274 28.0001 85.089 28.2377 84.7002 28.3997C84.3114 28.5617 83.8974 28.6409 83.4582 28.6409C83.2242 28.6445 82.9938 28.6157 82.7742 28.5653ZM83.7966 27.4601C83.9694 27.4133 84.1278 27.3449 84.2754 27.2549C84.423 27.1613 84.5562 27.0497 84.675 26.9093C84.7938 26.7725 84.8982 26.6105 84.981 26.4269C85.0638 26.2433 85.1286 26.0381 85.1754 25.8077C85.2222 25.5773 85.2438 25.3253 85.2438 25.0517V25.0373C85.2438 24.7601 85.2222 24.5081 85.1754 24.2813C85.1286 24.0509 85.0638 23.8457 84.981 23.6621C84.8982 23.4785 84.7974 23.3165 84.675 23.1797C84.5562 23.0429 84.423 22.9277 84.2754 22.8341C84.1278 22.7405 83.9694 22.6721 83.7966 22.6289C83.6238 22.5821 83.4402 22.5605 83.2494 22.5605C83.0622 22.5605 82.8822 22.5821 82.7094 22.6289C82.5366 22.6757 82.3746 22.7441 82.227 22.8341C82.0794 22.9277 81.9426 23.0393 81.8238 23.1797C81.705 23.3165 81.6006 23.4785 81.5178 23.6621C81.435 23.8457 81.3702 24.0509 81.3234 24.2813C81.2766 24.5117 81.255 24.7637 81.255 25.0373V25.0517C81.255 25.3289 81.2766 25.5809 81.3234 25.8077C81.3702 26.0381 81.435 26.2433 81.5178 26.4269C81.6006 26.6105 81.7014 26.7725 81.8238 26.9093C81.9426 27.0461 82.0794 27.1613 82.227 27.2549C82.3746 27.3485 82.5366 27.4169 82.7094 27.4601C82.8822 27.5069 83.0622 27.5285 83.2494 27.5285C83.4402 27.5285 83.6238 27.5069 83.7966 27.4601Z" fill="#3E3EFF"/>
<path d="M89.318 28.504C89.0084 28.4104 88.742 28.2736 88.5188 28.0972C88.292 27.9208 88.1192 27.7048 87.9896 27.4492C87.8636 27.1936 87.7988 26.9056 87.7988 26.5852V26.5708C87.7988 26.3296 87.8312 26.1136 87.8924 25.9192C87.9572 25.7248 88.0508 25.552 88.1732 25.3972C88.2992 25.2424 88.454 25.1092 88.6412 24.994C88.8284 24.8788 89.048 24.7744 89.2964 24.6844C89.5448 24.5944 89.8256 24.5188 90.1352 24.4504C90.4448 24.3856 90.7868 24.328 91.1576 24.2812C91.442 24.2416 91.6652 24.202 91.8344 24.1624C92 24.1228 92.1296 24.0724 92.2196 24.0148C92.3096 23.9572 92.3672 23.8852 92.3924 23.8024C92.4176 23.7196 92.432 23.6152 92.432 23.4892V23.4748C92.432 23.3056 92.3996 23.158 92.3348 23.032C92.27 22.906 92.1764 22.8016 92.054 22.7188C91.9316 22.6324 91.784 22.5712 91.6076 22.528C91.4312 22.4848 91.2368 22.4668 91.0172 22.4668C90.7904 22.4668 90.5816 22.492 90.3908 22.5388C90.2 22.5856 90.038 22.6612 89.8976 22.7656C89.7608 22.87 89.6528 22.996 89.5736 23.1544C89.4944 23.3092 89.4512 23.4964 89.444 23.716H88.1048C88.1048 23.3236 88.184 22.9816 88.3424 22.6972C88.5008 22.4092 88.7132 22.1752 88.9796 21.988C89.246 21.8008 89.5556 21.664 89.912 21.5704C90.2684 21.4768 90.6392 21.4336 91.028 21.4336C91.4528 21.4336 91.8344 21.4732 92.1728 21.5488C92.5112 21.6244 92.7992 21.7504 93.0332 21.9268C93.2672 22.1032 93.4472 22.3336 93.5696 22.6216C93.6956 22.9096 93.7568 23.266 93.7568 23.6836L93.7424 26.1964C93.7424 26.4448 93.746 26.6716 93.7496 26.8804C93.7532 27.0856 93.764 27.28 93.7784 27.46C93.7928 27.64 93.8144 27.8128 93.8432 27.9784C93.872 28.144 93.9044 28.306 93.944 28.468H92.612C92.6048 28.4104 92.594 28.3564 92.5868 28.306C92.5796 28.2556 92.5688 28.2052 92.5616 28.1512C92.5544 28.0972 92.5472 28.0432 92.5436 27.9856C92.54 27.928 92.5364 27.8668 92.5292 27.7948C92.4212 27.9172 92.2952 28.0324 92.1584 28.1368C92.0216 28.2412 91.8632 28.3312 91.6868 28.4068C91.5104 28.4824 91.3088 28.54 91.082 28.5832C90.8552 28.6264 90.6032 28.648 90.3188 28.648C89.9588 28.6444 89.6276 28.5976 89.318 28.504ZM91.1288 27.55C91.2872 27.5212 91.4348 27.4816 91.568 27.424C91.7012 27.37 91.8236 27.3016 91.9316 27.2224C92.0396 27.1432 92.1332 27.046 92.2088 26.938C92.2844 26.83 92.342 26.7076 92.3816 26.5708C92.4248 26.434 92.4428 26.2864 92.4428 26.1244V24.886C92.3132 24.9292 92.1872 24.9688 92.0648 25.0084C91.946 25.0444 91.8308 25.0804 91.7192 25.1092C91.6112 25.1416 91.5032 25.1668 91.4024 25.1956C91.298 25.2208 91.1972 25.2496 91.0964 25.2748C90.8552 25.3324 90.6428 25.3864 90.4556 25.4404C90.2684 25.4944 90.1064 25.5484 89.966 25.606C89.8256 25.66 89.7068 25.7176 89.6132 25.7752C89.516 25.8328 89.4404 25.9012 89.3792 25.9768C89.3216 26.0524 89.2784 26.1316 89.2496 26.218C89.2244 26.3044 89.21 26.4052 89.21 26.5204V26.5276C89.21 26.6968 89.2424 26.8516 89.3036 26.9848C89.3684 27.118 89.4584 27.2296 89.5808 27.3232C89.6996 27.4168 89.8472 27.4852 90.0236 27.5284C90.2 27.5752 90.398 27.5968 90.6212 27.5968C90.8012 27.5932 90.9668 27.5788 91.1288 27.55Z" fill="#3E3EFF"/>
<path d="M97.7373 28.522C97.4349 28.4428 97.1613 28.3276 96.9093 28.1764C96.6609 28.0288 96.4341 27.8452 96.2361 27.6328C96.0381 27.4168 95.8689 27.1792 95.7357 26.9128C95.5989 26.6464 95.4945 26.3548 95.4225 26.0416C95.3505 25.7284 95.3145 25.3936 95.3145 25.0444V25.03C95.3145 24.5044 95.3937 24.022 95.5557 23.5792C95.7141 23.1364 95.9445 22.7584 96.2361 22.4416C96.5313 22.1248 96.8877 21.8764 97.3053 21.7C97.7229 21.5236 98.1908 21.4336 98.7056 21.4336C99.1484 21.4336 99.5516 21.4912 99.9152 21.61C100.279 21.7288 100.599 21.8944 100.873 22.1068C101.146 22.3192 101.373 22.5748 101.553 22.87C101.733 23.1688 101.863 23.4964 101.938 23.8528H100.574C100.516 23.644 100.434 23.4568 100.322 23.2912C100.21 23.1256 100.074 22.9888 99.9152 22.8772C99.7568 22.7656 99.5768 22.6828 99.3752 22.6252C99.1736 22.5676 98.9541 22.5388 98.7201 22.5388C98.4321 22.5388 98.1656 22.5928 97.9244 22.7044C97.6832 22.816 97.4708 22.978 97.2945 23.1904C97.1181 23.4028 96.9813 23.662 96.8805 23.9716C96.7833 24.2812 96.7329 24.6304 96.7329 25.0228V25.0372C96.7329 25.3 96.7545 25.5448 96.8013 25.768C96.8481 25.9948 96.9128 26.2 96.9956 26.3836C97.0784 26.5708 97.1793 26.7328 97.2981 26.8768C97.4169 27.0172 97.5501 27.1396 97.6941 27.2332C97.8417 27.3304 98.0001 27.4024 98.1729 27.4528C98.3457 27.5032 98.5293 27.5284 98.7201 27.5284C98.9577 27.5284 99.1736 27.4996 99.3752 27.4384C99.5768 27.3808 99.7568 27.2944 99.9152 27.1828C100.074 27.0712 100.21 26.9344 100.322 26.7688C100.434 26.6032 100.516 26.4196 100.574 26.2072H101.938C101.863 26.5672 101.737 26.8948 101.553 27.19C101.373 27.4888 101.143 27.7444 100.873 27.9568C100.599 28.1728 100.279 28.3384 99.9152 28.4536C99.5516 28.5724 99.1484 28.63 98.7056 28.63C98.36 28.6444 98.0361 28.6012 97.7373 28.522Z" fill="#3E3EFF"/>
<path d="M105.459 28.5185C105.146 28.4357 104.858 28.3169 104.602 28.1621C104.347 28.0073 104.12 27.8201 103.918 27.6041C103.72 27.3881 103.551 27.1433 103.418 26.8769C103.281 26.6069 103.18 26.3189 103.108 26.0057C103.04 25.6925 103.004 25.3649 103.004 25.0193V25.0049C103.004 24.4685 103.09 23.9789 103.263 23.5433C103.436 23.1077 103.674 22.7297 103.983 22.4201C104.289 22.1069 104.653 21.8657 105.07 21.6965C105.491 21.5273 105.945 21.4409 106.435 21.4409C106.798 21.4409 107.137 21.4841 107.45 21.5741C107.763 21.6641 108.044 21.7937 108.3 21.9629C108.552 22.1321 108.778 22.3337 108.973 22.5713C109.167 22.8089 109.329 23.0717 109.459 23.3669C109.588 23.6621 109.682 23.9825 109.74 24.3317C109.797 24.6809 109.822 25.0445 109.808 25.4297V25.4369H103.976L103.962 24.3533H108.39V24.3461C108.375 24.1697 108.346 24.0041 108.3 23.8421C108.253 23.6801 108.192 23.5325 108.109 23.3957C108.03 23.2589 107.932 23.1365 107.821 23.0285C107.709 22.9205 107.583 22.8269 107.439 22.7477C107.299 22.6685 107.14 22.6073 106.975 22.5677C106.806 22.5245 106.626 22.5065 106.428 22.5065C106.122 22.5065 105.844 22.5569 105.592 22.6577C105.34 22.7585 105.128 22.9133 104.948 23.1185C104.772 23.3273 104.635 23.5865 104.541 23.8997C104.448 24.2129 104.401 24.5837 104.408 25.0121V25.0265C104.408 25.2749 104.43 25.5125 104.469 25.7357C104.512 25.9589 104.574 26.1641 104.656 26.3477C104.739 26.5349 104.84 26.7005 104.962 26.8481C105.081 26.9957 105.222 27.1253 105.38 27.2297C105.538 27.3341 105.711 27.4133 105.902 27.4709C106.093 27.5249 106.298 27.5537 106.514 27.5537C106.766 27.5537 106.993 27.5321 107.194 27.4853C107.392 27.4385 107.569 27.3701 107.716 27.2837C107.864 27.1937 107.99 27.0857 108.094 26.9561C108.199 26.8265 108.281 26.6825 108.346 26.5205H109.711C109.617 26.8301 109.484 27.1181 109.3 27.3809C109.12 27.6437 108.893 27.8705 108.62 28.0613C108.35 28.2521 108.037 28.3997 107.68 28.5041C107.324 28.6085 106.924 28.6625 106.478 28.6625C106.114 28.6445 105.776 28.6013 105.459 28.5185Z" fill="#3E3EFF"/>
<path d="M15.9868 0L31.5099 8.99999V18L23.7124 22.5L23.716 31.5L15.9148 36L0.333984 27.0036V18.0036L8.12077 13.5V4.49999L15.9868 0Z" fill="#9999FF"/>
<path d="M23.7146 22.5L8.12305 13.5V4.5L23.7254 13.5072L23.7146 22.5Z" fill="#181863"/>
<path d="M15.9112 35.9997L0.333984 27.0069V18.007L15.9148 27.0069L15.9112 35.9997Z" fill="#181863"/>
<path d="M15.916 8.99999V18L23.7172 13.5L23.7136 4.5L15.916 8.99999Z" fill="#3939E5"/>
<path d="M23.7148 13.4964V22.5L31.5124 17.9964V9L23.7148 13.4964Z" fill="#3939E5"/>
<path d="M8.10938 22.5L8.12377 31.5108L15.9106 27L15.907 18L8.10938 22.5Z" fill="#3939E5"/>
<path d="M15.916 27V36L23.7172 31.5L23.7136 22.5L15.916 27Z" fill="#3939E5"/>
</svg>
