<svg width="151" height="36" viewBox="0 0 151 36" fill="none" xmlns="http://www.w3.org/2000/svg">
<path d="M44.9629 5.79529H47.1519V16.4661H44.9629V5.79529Z" fill="#06061A"/>
<path d="M51.868 16.5574C51.5067 16.4661 51.1744 16.3331 50.8711 16.1587C50.5721 15.9842 50.3021 15.7724 50.0653 15.5273C49.8286 15.2781 49.6292 14.9998 49.4672 14.6924C49.3052 14.3809 49.1806 14.0445 49.0975 13.6789C49.0103 13.3134 48.9688 12.923 48.9688 12.5076V12.491C48.9688 11.8762 49.0643 11.3113 49.2512 10.8004C49.4423 10.2895 49.7123 9.84924 50.0653 9.47956C50.4184 9.10989 50.8462 8.82328 51.3488 8.61975C51.8514 8.41622 52.4122 8.31238 53.0311 8.31238C53.5877 8.31238 54.0861 8.38714 54.5388 8.53252C54.9874 8.6779 55.3779 8.88143 55.706 9.14312C56.0342 9.4048 56.3042 9.71217 56.516 10.0735C56.7278 10.4349 56.8774 10.8337 56.9646 11.2656H54.8587C54.8047 11.0372 54.7216 10.842 54.6178 10.6717C54.5098 10.5014 54.3852 10.3643 54.2315 10.2521C54.0819 10.14 53.9075 10.0569 53.7081 10.0029C53.5129 9.94893 53.301 9.91985 53.0726 9.91985C52.786 9.91985 52.5243 9.97801 52.2917 10.0943C52.0591 10.2106 51.8597 10.3768 51.6894 10.5969C51.5191 10.8171 51.3903 11.087 51.299 11.4069C51.2076 11.7267 51.1619 12.0881 51.1619 12.491V12.5076C51.1619 12.7817 51.1827 13.0351 51.2242 13.2677C51.2657 13.5003 51.328 13.7163 51.407 13.9074C51.4859 14.0985 51.5814 14.2688 51.6894 14.4141C51.8016 14.5595 51.9262 14.6841 52.0674 14.7838C52.2086 14.8835 52.3623 14.9624 52.5285 15.0123C52.6946 15.0621 52.8732 15.087 53.0643 15.087C53.2927 15.087 53.5046 15.058 53.6998 15.004C53.895 14.95 54.0695 14.8627 54.2232 14.7506C54.3727 14.6384 54.5015 14.4972 54.6095 14.3269C54.7175 14.1566 54.7964 13.9614 54.8504 13.7412H56.9563C56.8691 14.1691 56.7237 14.5678 56.5077 14.9292C56.2959 15.2906 56.0259 15.6063 55.6977 15.8679C55.3696 16.1296 54.9833 16.3331 54.5305 16.4785C54.0819 16.6239 53.5793 16.6945 53.0227 16.6945C52.6198 16.6945 52.2335 16.6488 51.868 16.5574Z" fill="#06061A"/>
<path d="M59.7956 16.5285C59.4342 16.4164 59.1186 16.2585 58.8527 16.0467C58.5869 15.839 58.3834 15.5856 58.2338 15.2866C58.0884 14.9875 58.0137 14.6552 58.0137 14.2814V14.2731C58.0137 13.9865 58.0511 13.7289 58.1258 13.4963C58.2006 13.2679 58.3127 13.0643 58.4623 12.8816C58.6118 12.703 58.7946 12.5451 59.0189 12.4081C59.239 12.271 59.4965 12.1505 59.7915 12.0467C60.0822 11.9428 60.4104 11.8556 60.7676 11.7767C61.1248 11.7019 61.5152 11.6355 61.9389 11.5815C62.2587 11.5399 62.5121 11.4984 62.699 11.4569C62.8901 11.4153 63.0355 11.3613 63.1393 11.299C63.2432 11.2367 63.3096 11.1619 63.3429 11.0747C63.3761 10.9875 63.3927 10.8795 63.3927 10.7507V10.7383C63.3927 10.5597 63.3595 10.4101 63.293 10.2855C63.2265 10.1609 63.131 10.0529 63.0064 9.96984C62.8818 9.88677 62.7281 9.82446 62.5578 9.78292C62.3834 9.74139 62.1881 9.72062 61.9721 9.72062C61.7354 9.72062 61.5194 9.74554 61.3242 9.79539C61.1289 9.84523 60.9628 9.92415 60.8257 10.028C60.6886 10.136 60.5765 10.2689 60.5017 10.4309C60.4228 10.5929 60.3813 10.784 60.3688 11.0041H58.3667C58.375 10.5555 58.4747 10.1609 58.6575 9.82446C58.8403 9.48801 59.0936 9.20556 59.4093 8.97711C59.7291 8.74866 60.1071 8.57836 60.5474 8.46205C60.9877 8.34575 61.4695 8.2876 61.9887 8.2876C62.5246 8.2876 63.0023 8.33329 63.4301 8.42052C63.8579 8.50774 64.2151 8.65728 64.5142 8.86911C64.8091 9.08095 65.0334 9.3634 65.1912 9.71647C65.3491 10.0695 65.4239 10.5098 65.4239 11.0415L65.4031 13.9698C65.4031 14.2357 65.4072 14.4849 65.4155 14.7134C65.4238 14.9418 65.4363 15.1536 65.4529 15.3572C65.4695 15.5607 65.4945 15.7518 65.5277 15.9304C65.5609 16.1131 65.5983 16.2876 65.644 16.4621H63.5838C63.5755 16.3997 63.563 16.3416 63.5588 16.2876C63.5505 16.2336 63.5422 16.1754 63.5381 16.1214C63.5298 16.0675 63.5256 16.0051 63.5173 15.9428C63.5132 15.8805 63.509 15.8099 63.509 15.7352C63.3761 15.8847 63.2307 16.0218 63.0604 16.1381C62.8943 16.2585 62.7073 16.3582 62.4997 16.4371C62.292 16.5161 62.0635 16.5784 61.8101 16.624C61.5568 16.6656 61.2785 16.6864 60.9794 16.6864C60.5557 16.6947 60.1611 16.6365 59.7956 16.5285ZM62.0843 15.191C62.2421 15.1619 62.3834 15.1246 62.5163 15.0706C62.6492 15.0166 62.7655 14.9501 62.8735 14.8712C62.9815 14.7923 63.0687 14.6967 63.1435 14.5846C63.2182 14.4724 63.2764 14.3478 63.3179 14.2108C63.3595 14.0737 63.3802 13.92 63.3802 13.7538V12.4662C63.2432 12.5161 63.1144 12.5617 62.9939 12.5991C62.8735 12.6365 62.7572 12.6739 62.6409 12.7071C62.5287 12.7404 62.4166 12.7694 62.3127 12.7985C62.2047 12.8276 62.1051 12.8525 62.0095 12.8774C61.7811 12.9397 61.5817 12.9937 61.4031 13.0477C61.2245 13.1017 61.0708 13.1557 60.9379 13.2097C60.805 13.2637 60.6886 13.326 60.5973 13.3883C60.5059 13.4506 60.427 13.5212 60.3688 13.596C60.3107 13.6708 60.2691 13.7538 60.24 13.8452C60.211 13.9366 60.1985 14.0405 60.1985 14.1568V14.1651C60.1985 14.3354 60.2317 14.4891 60.2982 14.622C60.3647 14.7549 60.456 14.867 60.5765 14.9584C60.697 15.0498 60.8423 15.1204 61.0168 15.1661C61.1912 15.2159 61.3865 15.2367 61.6025 15.2367C61.7645 15.2326 61.9264 15.2201 62.0843 15.191Z" fill="#06061A"/>
<path d="M69.6679 16.5741C69.3605 16.4952 69.0781 16.3706 68.8081 16.2127C68.5422 16.0507 68.2972 15.8514 68.077 15.6188C67.8569 15.3862 67.67 15.112 67.508 14.8005C67.3501 14.489 67.2255 14.1442 67.1424 13.7662C67.0552 13.3882 67.0137 12.977 67.0137 12.5326V12.516C67.0137 11.8514 67.1092 11.2574 67.3003 10.7423C67.4913 10.2231 67.7489 9.79114 68.077 9.43807C68.401 9.08501 68.7831 8.81502 69.2234 8.63226C69.6637 8.44949 70.1248 8.35396 70.6149 8.35396C70.8974 8.35396 71.1632 8.38304 71.4083 8.44119C71.6575 8.49934 71.8818 8.58241 72.0895 8.68625C72.2972 8.79425 72.4799 8.91886 72.6461 9.06424C72.8081 9.20962 72.9451 9.37161 73.049 9.54191V5.79529H75.159V16.4661H73.049V15.5066C72.941 15.6769 72.8081 15.8389 72.6461 15.9843C72.4841 16.1297 72.2972 16.2584 72.0895 16.3623C71.8818 16.4703 71.6575 16.5492 71.4083 16.6073C71.159 16.6655 70.8974 16.6946 70.6149 16.6946C70.2909 16.6946 69.9753 16.653 69.6679 16.5741ZM71.7281 15.0206C71.8984 14.9708 72.0521 14.896 72.1975 14.8005C72.3428 14.7049 72.4716 14.5845 72.5879 14.4391C72.7042 14.2937 72.7998 14.1276 72.8787 13.9407C72.9576 13.7496 73.0157 13.5378 73.0614 13.3052C73.103 13.0725 73.1237 12.8109 73.1237 12.5284V12.5118C73.1237 12.2293 73.103 11.9718 73.0614 11.7351C73.0199 11.5025 72.9576 11.2865 72.8787 11.0995C72.7998 10.9085 72.7042 10.7423 72.5879 10.6011C72.4716 10.4557 72.3428 10.3394 72.1975 10.2397C72.0521 10.1442 71.8984 10.0694 71.7281 10.0196C71.5578 9.96974 71.375 9.94482 71.1798 9.94482C70.9846 9.94482 70.8018 9.96974 70.6315 10.0196C70.4612 10.0694 70.3075 10.1442 70.1622 10.2397C70.0168 10.3353 69.888 10.4557 69.7717 10.6011C69.6554 10.7465 69.5599 10.9126 69.481 11.0995C69.402 11.2906 69.3439 11.5025 69.2982 11.7351C69.2567 11.9677 69.2359 12.2293 69.2359 12.5118V12.5284C69.2359 12.8109 69.2567 13.0684 69.2982 13.3052C69.3397 13.5378 69.402 13.7538 69.481 13.9407C69.5599 14.1317 69.6554 14.2979 69.7717 14.4391C69.888 14.5845 70.0168 14.7008 70.1622 14.8005C70.3075 14.896 70.4612 14.9708 70.6315 15.0206C70.8018 15.0705 70.9846 15.0954 71.1798 15.0954C71.375 15.0954 71.5578 15.0705 71.7281 15.0206Z" fill="#06061A"/>
<path d="M45.1113 19.3778H47.6534L50.6565 28.3996H50.6731L53.6679 19.3778H56.21V30.0486H54.6648V25.6291L54.6814 20.9271H54.6648L51.5703 30.0486H49.7552L46.6523 20.9271H46.6357L46.6523 25.6291V30.0486H45.1113V19.3778Z" fill="#3E3EFF"/>
<path d="M59.9697 30.0988C59.6124 29.9908 59.3051 29.8329 59.0475 29.6294C58.7859 29.4259 58.5865 29.1766 58.4369 28.8817C58.2916 28.5868 58.2168 28.2545 58.2168 27.8848V27.8682C58.2168 27.5899 58.2542 27.3407 58.3248 27.1164C58.3996 26.8921 58.5076 26.6927 58.6488 26.5141C58.7942 26.3355 58.9728 26.1818 59.1888 26.0489C59.4048 25.916 59.6581 25.7955 59.9447 25.6917C60.2313 25.5879 60.5553 25.5006 60.9125 25.4217C61.2698 25.3469 61.6644 25.2805 62.0922 25.2265C62.4203 25.1808 62.6779 25.1351 62.8731 25.0894C63.0641 25.0437 63.2137 24.9856 63.3175 24.9191C63.4214 24.8527 63.4878 24.7696 63.5169 24.674C63.546 24.5785 63.5626 24.4581 63.5626 24.3127V24.2961C63.5626 24.1008 63.5252 23.9305 63.4504 23.7852C63.3757 23.6398 63.2677 23.5193 63.1265 23.4238C62.9852 23.3241 62.8149 23.2535 62.6114 23.2036C62.4079 23.1538 62.1836 23.133 61.9302 23.133C61.6685 23.133 61.4276 23.1621 61.2075 23.2161C60.9873 23.2701 60.8004 23.3573 60.6384 23.4778C60.4806 23.5982 60.3559 23.7436 60.2646 23.9264C60.1732 24.105 60.1233 24.321 60.115 24.5744H58.5699C58.5699 24.1216 58.6612 23.727 58.844 23.3989C59.0268 23.0666 59.2718 22.7966 59.5792 22.5806C59.8866 22.3646 60.2438 22.2068 60.655 22.0988C61.0621 21.9908 61.4941 21.9409 61.9427 21.9409C62.4328 21.9409 62.8731 21.9866 63.2635 22.0738C63.654 22.1611 63.9863 22.3064 64.2563 22.51C64.5262 22.7135 64.7339 22.9793 64.8752 23.3116C65.0205 23.6439 65.0911 24.0551 65.0911 24.537L65.0745 27.4362C65.0745 27.7228 65.0787 27.9845 65.0828 28.2213C65.087 28.4581 65.0995 28.6824 65.1161 28.89C65.1327 29.0977 65.1576 29.2971 65.1908 29.4882C65.2241 29.6792 65.2614 29.8662 65.3071 30.0531H63.7703C63.762 29.9866 63.7495 29.9243 63.7412 29.8662C63.7329 29.808 63.7204 29.7498 63.7121 29.6875C63.7038 29.6252 63.6955 29.5629 63.6914 29.4965C63.6872 29.43 63.683 29.3594 63.6747 29.2763C63.5501 29.4176 63.4047 29.5505 63.2469 29.6709C63.0891 29.7914 62.9063 29.8952 62.7028 29.9825C62.4992 30.0697 62.2666 30.1361 62.005 30.186C61.7433 30.2358 61.4525 30.2608 61.1244 30.2608C60.709 30.2608 60.3269 30.2068 59.9697 30.0988ZM62.059 28.998C62.2417 28.9648 62.412 28.9191 62.5657 28.8527C62.7194 28.7903 62.8606 28.7114 62.9852 28.62C63.1098 28.5287 63.2178 28.4165 63.3051 28.2919C63.3923 28.1673 63.4587 28.0261 63.5044 27.8682C63.5543 27.7104 63.5751 27.5401 63.5751 27.3532V25.9243C63.4255 25.9741 63.2801 26.0198 63.1389 26.0655C63.0018 26.1071 62.8689 26.1486 62.7402 26.1818C62.6156 26.2192 62.4909 26.2483 62.3746 26.2815C62.2542 26.3106 62.1379 26.3438 62.0216 26.3729C61.7433 26.4394 61.4982 26.5017 61.2822 26.564C61.0662 26.6263 60.8793 26.6886 60.7173 26.755C60.5553 26.8173 60.4183 26.8838 60.3103 26.9503C60.1981 27.0167 60.1109 27.0956 60.0403 27.1829C59.9738 27.2701 59.924 27.3615 59.8907 27.4612C59.8617 27.5609 59.845 27.6772 59.845 27.8101V27.8184C59.845 28.0136 59.8824 28.1922 59.953 28.3459C60.0278 28.4996 60.1316 28.6284 60.2729 28.7363C60.4099 28.8443 60.5802 28.9233 60.7838 28.9731C60.9873 29.0271 61.2158 29.052 61.4733 29.052C61.681 29.0479 61.8762 29.0313 62.059 28.998Z" fill="#3E3EFF"/>
<path d="M68.9206 29.9323C68.634 29.8534 68.4097 29.7247 68.2435 29.546C68.0774 29.3674 67.9611 29.1307 67.8946 28.8358C67.8281 28.5409 67.7949 28.1795 67.7949 27.7517V23.4775H66.582V22.1608H67.7949V19.6644H69.3401V22.1608H71.0265V23.4775H69.3401V27.7143C69.3401 27.9012 69.3484 28.059 69.3692 28.1919C69.3899 28.3249 69.4315 28.4287 69.4979 28.5076C69.5644 28.5865 69.6599 28.6447 69.7804 28.6779C69.905 28.7153 70.067 28.7319 70.2705 28.7319H70.9683V30.0486H70.013C69.5685 30.0486 69.203 30.0071 68.9206 29.9323Z" fill="#3E3EFF"/>
<path d="M75.1587 30.1149C74.7974 30.0193 74.4651 29.8823 74.1702 29.7037C73.8752 29.5251 73.6136 29.3091 73.3851 29.0598C73.1567 28.8106 72.9614 28.5282 72.8078 28.2208C72.6499 27.9093 72.5336 27.577 72.4505 27.2156C72.3716 26.8542 72.3301 26.4762 72.3301 26.0775V26.0609C72.3301 25.442 72.4298 24.8771 72.6291 24.3745C72.8285 23.8719 73.1027 23.4357 73.4599 23.0785C73.8129 22.7172 74.2325 22.4389 74.7143 22.2436C75.2003 22.0484 75.7236 21.9487 76.2885 21.9487C76.7081 21.9487 77.0985 21.9986 77.4599 22.1024C77.8213 22.2063 78.1452 22.3558 78.4402 22.551C78.7309 22.7462 78.9926 22.9788 79.2169 23.253C79.4412 23.5271 79.6281 23.8304 79.7776 24.171C79.9272 24.5116 80.0352 24.8812 80.1016 25.2841C80.1681 25.687 80.1972 26.1066 80.1805 26.551V26.5593H73.4516L73.435 25.3091H78.544V25.3008C78.5274 25.0972 78.4941 24.9062 78.4402 24.7192C78.3862 24.5323 78.3155 24.362 78.22 24.2042C78.1286 24.0463 78.0165 23.9051 77.8877 23.7805C77.7589 23.6559 77.6136 23.5479 77.4474 23.4565C77.2854 23.3651 77.1027 23.2945 76.9116 23.2488C76.7164 23.199 76.5087 23.1782 76.2802 23.1782C75.9272 23.1782 75.6073 23.2364 75.3166 23.3527C75.0258 23.469 74.7808 23.6476 74.5731 23.8843C74.3695 24.1253 74.2117 24.4243 74.1037 24.7857C73.9957 25.1471 73.9417 25.5749 73.95 26.0692V26.0858C73.95 26.3724 73.9749 26.6465 74.0206 26.9041C74.0705 27.1616 74.1411 27.3984 74.2366 27.6102C74.3322 27.8262 74.4485 28.0173 74.5897 28.1876C74.7268 28.3579 74.8887 28.5074 75.0715 28.6279C75.2543 28.7483 75.4537 28.8397 75.6738 28.9062C75.8939 28.9685 76.1307 29.0017 76.3799 29.0017C76.6707 29.0017 76.9324 28.9768 77.165 28.9228C77.3934 28.8688 77.597 28.7899 77.7673 28.6902C77.9376 28.5863 78.0829 28.4617 78.2034 28.3122C78.3238 28.1626 78.4194 27.9965 78.4942 27.8096H80.0684C79.9604 28.1668 79.8067 28.4991 79.5949 28.8023C79.3872 29.1055 79.1255 29.3672 78.8098 29.5874C78.4983 29.8075 78.1369 29.9778 77.7257 30.0983C77.3145 30.2187 76.8534 30.281 76.3384 30.281C75.9147 30.2603 75.5201 30.2104 75.1587 30.1149Z" fill="#3E3EFF"/>
<path d="M82.0625 22.1607H83.6077V23.5605C83.724 23.3321 83.861 23.1285 84.023 22.9416C84.185 22.7588 84.3719 22.601 84.5838 22.4722C84.7956 22.3435 85.0324 22.2438 85.2941 22.1773C85.5558 22.1109 85.8424 22.0735 86.1497 22.0735H86.2951V23.5813H85.8797C85.5225 23.5813 85.2027 23.6228 84.9244 23.71C84.6461 23.7973 84.4052 23.9302 84.2141 24.1171C84.0189 24.304 83.8694 24.5449 83.7655 24.844C83.6617 25.1431 83.6118 25.5044 83.6118 25.9281V30.0444H82.0667V22.1607H82.0625Z" fill="#3E3EFF"/>
<path d="M87.8086 19.3778H89.3538V21.1348H87.8086V19.3778ZM87.8086 22.1608H89.3538V30.0486H87.8086V22.1608Z" fill="#3E3EFF"/>
<path d="M92.9716 30.0988C92.6144 29.9908 92.307 29.8329 92.0495 29.6294C91.7878 29.4259 91.5884 29.1766 91.4389 28.8817C91.2935 28.5868 91.2188 28.2545 91.2188 27.8848V27.8682C91.2188 27.5899 91.2561 27.3407 91.3267 27.1164C91.4015 26.8921 91.5095 26.6927 91.6507 26.5141C91.7961 26.3355 91.9747 26.1818 92.1907 26.0489C92.4067 25.916 92.6601 25.7955 92.9467 25.6917C93.2333 25.5879 93.5573 25.5006 93.9145 25.4217C94.2717 25.3469 94.6663 25.2805 95.0941 25.2265C95.4223 25.1808 95.6798 25.1351 95.875 25.0894C96.0661 25.0437 96.2156 24.9856 96.3195 24.9191C96.4233 24.8527 96.4898 24.7696 96.5188 24.674C96.5479 24.5785 96.5645 24.4581 96.5645 24.3127V24.2961C96.5645 24.1008 96.5272 23.9305 96.4524 23.7852C96.3776 23.6398 96.2696 23.5193 96.1284 23.4238C95.9872 23.3241 95.8169 23.2535 95.6133 23.2036C95.4098 23.1538 95.1855 23.133 94.9321 23.133C94.6705 23.133 94.4295 23.1621 94.2094 23.2161C93.9893 23.2701 93.8023 23.3573 93.6403 23.4778C93.4825 23.5982 93.3579 23.7436 93.2665 23.9264C93.1751 24.105 93.1253 24.321 93.117 24.5744H91.5718C91.5718 24.1216 91.6632 23.727 91.846 23.3989C92.0287 23.0666 92.2738 22.7966 92.5812 22.5806C92.8885 22.3646 93.2457 22.2068 93.657 22.0988C94.064 21.9908 94.496 21.9409 94.9446 21.9409C95.4347 21.9409 95.875 21.9866 96.2655 22.0738C96.6559 22.1611 96.9882 22.3064 97.2582 22.51C97.5282 22.7135 97.7359 22.9793 97.8771 23.3116C98.0225 23.6439 98.0931 24.0551 98.0931 24.537L98.0765 27.4362C98.0765 27.7228 98.0806 27.9845 98.0848 28.2213C98.0889 28.4581 98.1014 28.6824 98.118 28.89C98.1346 29.0977 98.1596 29.2971 98.1928 29.4882C98.226 29.6792 98.2634 29.8662 98.3091 30.0531H96.7722C96.7639 29.9866 96.7515 29.9243 96.7432 29.8662C96.7348 29.808 96.7224 29.7498 96.7141 29.6875C96.7058 29.6252 96.6975 29.5629 96.6933 29.4965C96.6891 29.43 96.685 29.3594 96.6767 29.2763C96.5521 29.4176 96.4067 29.5505 96.2489 29.6709C96.091 29.7914 95.9083 29.8952 95.7047 29.9825C95.5012 30.0697 95.2686 30.1361 95.0069 30.186C94.7452 30.2358 94.4545 30.2608 94.1263 30.2608C93.711 30.2608 93.3288 30.2068 92.9716 30.0988ZM95.0609 28.998C95.2437 28.9648 95.414 28.9191 95.5677 28.8527C95.7213 28.7903 95.8626 28.7114 95.9872 28.62C96.1118 28.5287 96.2198 28.4165 96.307 28.2919C96.3942 28.1673 96.4607 28.0261 96.5064 27.8682C96.5562 27.7104 96.577 27.5401 96.577 27.3532V25.9243C96.4275 25.9741 96.2821 26.0198 96.1409 26.0655C96.0038 26.1071 95.8709 26.1486 95.7421 26.1818C95.6175 26.2192 95.4929 26.2483 95.3766 26.2815C95.2561 26.3106 95.1398 26.3438 95.0235 26.3729C94.7452 26.4394 94.5002 26.5017 94.2842 26.564C94.0682 26.6263 93.8813 26.6886 93.7193 26.755C93.5573 26.8173 93.4202 26.8838 93.3122 26.9503C93.2001 27.0167 93.1128 27.0956 93.0422 27.1829C92.9758 27.2701 92.9259 27.3615 92.8927 27.4612C92.8636 27.5609 92.847 27.6772 92.847 27.8101V27.8184C92.847 28.0136 92.8844 28.1922 92.955 28.3459C93.0297 28.4996 93.1336 28.6284 93.2748 28.7363C93.4119 28.8443 93.5822 28.9233 93.7857 28.9731C93.9892 29.0271 94.2177 29.052 94.4752 29.052C94.6829 29.0479 94.8781 29.0313 95.0609 28.998Z" fill="#3E3EFF"/>
<path d="M100.438 19.3778H101.983V30.0486H100.438V19.3778Z" fill="#3E3EFF"/>
<path d="M105.931 30.0858C105.512 29.9695 105.151 29.7992 104.847 29.5791C104.544 29.3589 104.303 29.0848 104.12 28.7566C103.938 28.4285 103.821 28.0588 103.771 27.6393H105.317C105.358 27.8968 105.433 28.117 105.549 28.2997C105.666 28.4825 105.807 28.632 105.985 28.7483C106.164 28.8646 106.368 28.9477 106.604 29.0017C106.841 29.0557 107.099 29.0806 107.389 29.0806C107.551 29.0806 107.705 29.0723 107.855 29.0557C108.004 29.0391 108.141 29.01 108.262 28.9685C108.386 28.9269 108.498 28.8812 108.598 28.8231C108.698 28.7691 108.785 28.6985 108.851 28.6196C108.918 28.5406 108.972 28.4492 109.009 28.3496C109.047 28.2499 109.067 28.1419 109.067 28.0214V28.0048C109.067 27.8096 109.026 27.6434 108.947 27.5147C108.868 27.3818 108.756 27.2738 108.611 27.1824C108.465 27.091 108.295 27.0162 108.095 26.9539C107.896 26.8916 107.676 26.8376 107.439 26.7878L106.28 26.5386C105.956 26.4679 105.657 26.3724 105.375 26.2478C105.097 26.1232 104.851 25.9695 104.648 25.7867C104.444 25.604 104.282 25.3838 104.166 25.1263C104.05 24.8688 103.992 24.5739 103.992 24.2416V24.225C103.992 23.8885 104.071 23.577 104.233 23.2987C104.395 23.0204 104.615 22.7795 104.897 22.5801C105.18 22.3807 105.512 22.227 105.898 22.1149C106.28 22.0027 106.696 21.9487 107.14 21.9487C107.58 21.9487 107.983 21.9944 108.353 22.0816C108.723 22.1689 109.051 22.3059 109.329 22.4929C109.607 22.6798 109.836 22.9207 110.014 23.2156C110.193 23.5105 110.305 23.8636 110.363 24.2706H108.818C108.793 24.1211 108.752 23.9882 108.698 23.8719C108.644 23.7597 108.573 23.66 108.494 23.5728C108.415 23.4856 108.324 23.415 108.22 23.3568C108.12 23.2987 108.008 23.253 107.888 23.2156C107.767 23.1824 107.639 23.1533 107.497 23.1408C107.36 23.1242 107.215 23.1201 107.061 23.1201C106.845 23.1201 106.642 23.145 106.451 23.1907C106.26 23.2405 106.098 23.307 105.96 23.3942C105.823 23.4814 105.715 23.5894 105.641 23.714C105.562 23.8387 105.524 23.984 105.524 24.146V24.1626C105.524 24.3122 105.553 24.4493 105.607 24.5656C105.661 24.6819 105.74 24.7815 105.844 24.8688C105.948 24.956 106.077 25.0266 106.226 25.0889C106.376 25.1512 106.55 25.2011 106.741 25.2384L107.892 25.4877C108.27 25.5666 108.623 25.6663 108.955 25.7784C109.288 25.8906 109.574 26.036 109.819 26.2146C110.064 26.3932 110.255 26.6092 110.392 26.8667C110.53 27.1242 110.6 27.4399 110.6 27.8137V27.8304C110.6 28.0879 110.563 28.3288 110.488 28.5489C110.413 28.7691 110.305 28.9726 110.168 29.1554C110.031 29.3381 109.861 29.496 109.666 29.6372C109.47 29.7743 109.25 29.8906 109.005 29.9861C108.764 30.0775 108.503 30.1481 108.22 30.198C107.938 30.2478 107.643 30.2686 107.335 30.2686C106.82 30.2603 106.351 30.2021 105.931 30.0858Z" fill="#3E3EFF"/>
<path d="M117.893 29.9987C117.362 29.8243 116.905 29.5833 116.531 29.2801C116.153 28.9769 115.858 28.6155 115.638 28.196C115.418 27.7765 115.272 27.3279 115.193 26.8377H116.876C116.946 27.17 117.054 27.4691 117.2 27.7308C117.345 27.9925 117.54 28.2126 117.777 28.3912C118.018 28.5698 118.304 28.7069 118.637 28.7983C118.969 28.8897 119.355 28.9395 119.796 28.9395C120.037 28.9395 120.269 28.9271 120.489 28.898C120.709 28.8689 120.909 28.8274 121.096 28.7734C121.279 28.7194 121.449 28.6446 121.598 28.5574C121.748 28.4701 121.877 28.3663 121.98 28.2458C122.084 28.1254 122.163 27.9925 122.221 27.8388C122.28 27.6851 122.309 27.5148 122.309 27.3279V27.3113C122.309 27.0081 122.25 26.7547 122.134 26.5553C122.018 26.3518 121.856 26.1856 121.652 26.0527C121.449 25.9198 121.204 25.8076 120.925 25.7246C120.647 25.6373 120.34 25.5584 120.012 25.4836L118.512 25.143C118.047 25.035 117.627 24.9021 117.254 24.736C116.876 24.5698 116.556 24.3622 116.294 24.1171C116.028 23.8679 115.825 23.5771 115.679 23.2407C115.534 22.9042 115.463 22.5096 115.463 22.0693V22.0485C115.463 21.7619 115.509 21.4878 115.6 21.2344C115.692 20.9811 115.821 20.7443 115.987 20.5325C116.153 20.3165 116.356 20.1295 116.593 19.9592C116.83 19.7931 117.096 19.6519 117.391 19.5314C117.686 19.411 118.005 19.3237 118.35 19.2614C118.695 19.1991 119.06 19.17 119.443 19.17C120.028 19.17 120.556 19.2365 121.029 19.3736C121.503 19.5106 121.91 19.71 122.259 19.9717C122.608 20.2334 122.89 20.5532 123.102 20.9312C123.318 21.3092 123.463 21.737 123.538 22.2189H121.864C121.785 21.899 121.669 21.6332 121.524 21.413C121.378 21.1929 121.2 21.0143 120.992 20.8772C120.784 20.7401 120.543 20.6405 120.269 20.5781C119.995 20.5158 119.696 20.4868 119.36 20.4868C119.148 20.4868 118.944 20.4992 118.749 20.5283C118.554 20.5574 118.375 20.5989 118.209 20.6529C118.043 20.7069 117.893 20.7775 117.76 20.8606C117.627 20.9437 117.511 21.0434 117.416 21.1555C117.32 21.2677 117.245 21.3964 117.191 21.5335C117.137 21.6706 117.112 21.8284 117.112 21.9987V22.0153C117.112 22.2438 117.15 22.4431 117.225 22.6218C117.299 22.8004 117.416 22.9541 117.565 23.087C117.715 23.2199 117.902 23.3362 118.122 23.4317C118.342 23.5273 118.595 23.6103 118.882 23.6809L120.39 24.0382C120.934 24.1628 121.428 24.304 121.868 24.4618C122.309 24.6197 122.682 24.8108 122.994 25.0392C123.301 25.2677 123.538 25.5501 123.704 25.8866C123.87 26.223 123.953 26.6342 123.953 27.1244V27.1451C123.953 27.6602 123.845 28.1129 123.634 28.4992C123.422 28.8897 123.127 29.2137 122.753 29.4712C122.375 29.7329 121.931 29.9281 121.411 30.061C120.892 30.1939 120.331 30.2604 119.729 30.2604C119.04 30.2604 118.425 30.1732 117.893 29.9987Z" fill="#3E3EFF"/>
<path d="M128.073 30.1195C127.724 30.0281 127.408 29.8952 127.117 29.7208C126.831 29.5505 126.569 29.3386 126.341 29.0936C126.112 28.8443 125.917 28.5702 125.763 28.2628C125.605 27.9555 125.485 27.619 125.402 27.2576C125.319 26.8963 125.277 26.51 125.277 26.1071V26.0904C125.277 25.484 125.369 24.9274 125.556 24.4165C125.738 23.9056 126.004 23.4695 126.341 23.104C126.681 22.7384 127.093 22.4518 127.574 22.2483C128.056 22.0448 128.596 21.9409 129.19 21.9409C129.701 21.9409 130.166 22.0074 130.586 22.1444C131.005 22.2815 131.375 22.4726 131.691 22.7177C132.006 22.9627 132.268 23.2576 132.476 23.5982C132.683 23.943 132.833 24.321 132.92 24.7322H131.346C131.279 24.4913 131.184 24.2753 131.055 24.0842C130.926 23.8931 130.769 23.7353 130.586 23.6065C130.403 23.4778 130.195 23.3822 129.963 23.3158C129.73 23.2493 129.477 23.2161 129.207 23.2161C128.874 23.2161 128.567 23.2784 128.289 23.4072C128.01 23.5359 127.765 23.7228 127.562 23.9679C127.358 24.213 127.201 24.5121 127.084 24.8693C126.972 25.2265 126.914 25.6294 126.914 26.0821V26.0988C126.914 26.402 126.939 26.6844 126.993 26.942C127.047 27.2036 127.122 27.4404 127.217 27.6522C127.313 27.8682 127.429 28.0551 127.566 28.2213C127.703 28.3833 127.857 28.5245 128.023 28.6325C128.193 28.7447 128.376 28.8277 128.575 28.8859C128.775 28.944 128.987 28.9731 129.207 28.9731C129.481 28.9731 129.73 28.9399 129.963 28.8693C130.195 28.8028 130.403 28.7031 130.586 28.5744C130.769 28.4456 130.926 28.2878 131.055 28.0967C131.184 27.9056 131.279 27.6938 131.346 27.4487H132.92C132.833 27.8641 132.688 28.2421 132.476 28.5827C132.268 28.9274 132.002 29.2223 131.691 29.4674C131.375 29.7166 131.005 29.9077 130.586 30.0406C130.166 30.1777 129.701 30.2441 129.19 30.2441C128.796 30.2608 128.422 30.2151 128.073 30.1195Z" fill="#3E3EFF"/>
<path d="M135.87 30.0988C135.513 29.9908 135.205 29.8329 134.948 29.6294C134.686 29.4259 134.487 29.1766 134.337 28.8817C134.192 28.5868 134.117 28.2545 134.117 27.8848V27.8682C134.117 27.5899 134.155 27.3407 134.225 27.1164C134.3 26.8921 134.408 26.6927 134.549 26.5141C134.695 26.3355 134.873 26.1818 135.089 26.0489C135.305 25.916 135.559 25.7955 135.845 25.6917C136.132 25.5879 136.456 25.5006 136.813 25.4217C137.17 25.3469 137.565 25.2805 137.993 25.2265C138.321 25.1808 138.578 25.1351 138.773 25.0894C138.965 25.0437 139.114 24.9856 139.218 24.9191C139.322 24.8527 139.388 24.7696 139.417 24.674C139.446 24.5785 139.463 24.4581 139.463 24.3127V24.2961C139.463 24.1008 139.426 23.9305 139.351 23.7852C139.276 23.6398 139.168 23.5193 139.027 23.4238C138.886 23.3241 138.715 23.2535 138.512 23.2036C138.308 23.1538 138.084 23.133 137.831 23.133C137.569 23.133 137.328 23.1621 137.108 23.2161C136.888 23.2701 136.701 23.3573 136.539 23.4778C136.381 23.5982 136.256 23.7436 136.165 23.9264C136.074 24.105 136.024 24.321 136.015 24.5744H134.47C134.47 24.1216 134.562 23.727 134.744 23.3989C134.927 23.0666 135.172 22.7966 135.48 22.5806C135.787 22.3646 136.144 22.2068 136.555 22.0988C136.962 21.9908 137.394 21.9409 137.843 21.9409C138.333 21.9409 138.773 21.9866 139.164 22.0738C139.554 22.1611 139.887 22.3064 140.157 22.51C140.427 22.7135 140.634 22.9793 140.776 23.3116C140.921 23.6439 140.992 24.0551 140.992 24.537L140.975 27.4362C140.975 27.7228 140.979 27.9845 140.983 28.2213C140.987 28.4581 141 28.6824 141.016 28.89C141.033 29.0977 141.058 29.2971 141.091 29.4882C141.124 29.6792 141.162 29.8662 141.208 30.0531H139.671C139.662 29.9866 139.65 29.9243 139.642 29.8662C139.633 29.808 139.621 29.7498 139.613 29.6875C139.604 29.6252 139.596 29.5629 139.592 29.4965C139.588 29.43 139.583 29.3594 139.575 29.2763C139.451 29.4176 139.305 29.5505 139.147 29.6709C138.989 29.7914 138.807 29.8952 138.603 29.9825C138.4 30.0697 138.167 30.1361 137.905 30.186C137.644 30.2358 137.353 30.2608 137.025 30.2608C136.609 30.2608 136.223 30.2068 135.87 30.0988ZM137.959 28.998C138.142 28.9648 138.312 28.9191 138.466 28.8527C138.62 28.7903 138.761 28.7114 138.886 28.62C139.01 28.5287 139.118 28.4165 139.205 28.2919C139.293 28.1673 139.359 28.0261 139.405 27.8682C139.455 27.7104 139.475 27.5401 139.475 27.3532V25.9243C139.326 25.9741 139.181 26.0198 139.039 26.0655C138.902 26.1071 138.769 26.1486 138.641 26.1818C138.516 26.2192 138.391 26.2483 138.275 26.2815C138.155 26.3106 138.038 26.3438 137.922 26.3729C137.644 26.4394 137.399 26.5017 137.183 26.564C136.967 26.6263 136.78 26.6886 136.618 26.755C136.456 26.8173 136.319 26.8838 136.211 26.9503C136.099 27.0167 136.011 27.0956 135.941 27.1829C135.874 27.2701 135.824 27.3615 135.791 27.4612C135.762 27.5609 135.745 27.6772 135.745 27.8101V27.8184C135.745 28.0136 135.783 28.1922 135.853 28.3459C135.928 28.4996 136.032 28.6284 136.173 28.7363C136.31 28.8443 136.481 28.9233 136.684 28.9731C136.888 29.0271 137.116 29.052 137.374 29.052C137.581 29.0479 137.772 29.0313 137.959 28.998Z" fill="#3E3EFF"/>
<path d="M143.346 22.1608H144.891V23.1078C145.024 22.9292 145.165 22.7714 145.323 22.6302C145.481 22.489 145.655 22.3685 145.85 22.2688C146.046 22.1691 146.262 22.0902 146.498 22.0362C146.735 21.9822 147.001 21.9531 147.292 21.9531C147.769 21.9531 148.189 22.032 148.546 22.1857C148.903 22.3436 149.202 22.5679 149.443 22.8586C149.684 23.1494 149.863 23.5066 149.983 23.9261C150.104 24.3456 150.166 24.815 150.166 25.3425V30.0487H148.621V25.6665C148.621 25.2761 148.584 24.9355 148.509 24.6323C148.434 24.3332 148.318 24.0798 148.16 23.8763C148.002 23.6728 147.807 23.5191 147.574 23.4152C147.342 23.3114 147.067 23.2615 146.752 23.2615C146.44 23.2615 146.166 23.3114 145.929 23.4152C145.697 23.5191 145.501 23.6728 145.348 23.8763C145.194 24.0798 145.078 24.3332 145.003 24.6323C144.928 24.9313 144.891 25.2761 144.891 25.6665V30.0487H143.346V22.1608Z" fill="#3E3EFF"/>
<path d="M9.59917 0H0V36H9.59917V0Z" fill="url(#paint0_linear_2034_46256)"/>
<path d="M15.2316 0.00842285L0 26.3968V32.781L5.54517 35.9835L23.5472 4.81009L15.2316 0.00842285Z" fill="url(#paint1_linear_2034_46256)"/>
<path d="M4.79751 34.7125L0 26.3969L31.1734 8.39893L35.9751 16.7105L4.79751 34.7125Z" fill="#D8D8FF"/>
<path d="M36 26.397H0V35.9961H36V26.397Z" fill="url(#paint2_linear_2034_46256)"/>
<defs>
<linearGradient id="paint0_linear_2034_46256" x1="4.31811" y1="34.0704" x2="4.97904" y2="11.9292" gradientUnits="userSpaceOnUse">
<stop stop-color="#06061A"/>
<stop offset="1" stop-color="#181863"/>
</linearGradient>
<linearGradient id="paint1_linear_2034_46256" x1="0.663854" y1="33.3232" x2="20.0232" y2="2.81493" gradientUnits="userSpaceOnUse">
<stop stop-color="#9999FF"/>
<stop offset="1" stop-color="#B3B3FF"/>
</linearGradient>
<linearGradient id="paint2_linear_2034_46256" x1="17.9974" y1="35.9969" x2="17.9974" y2="26.3973" gradientUnits="userSpaceOnUse">
<stop stop-color="#3939E5"/>
<stop offset="1" stop-color="#3E3EFF"/>
</linearGradient>
</defs>
</svg>
